 0
SECTION
 2
ENTITIES
  0
LINE
 8
Layer0
10
61.51598766100657
20
386.39576434634955
30
2.446095326291697e-10
11
60.14054547916592
21
386.08432235352643
31
2.446095326291697e-10
  0
LINE
 8
Layer0
10
37.34277889362459
20
389.8957643463496
30
2.4458697289730936e-10
11
78.34277889362465
21
389.8957643463496
31
2.4458697289730936e-10
  0
LINE
 8
Layer0
10
25.712389079870185
20
292.7207261240809
30
2.446095326291697e-10
11
29.564750932617997
21
287.56335948574787
31
2.446095326291697e-10
  0
LINE
 8
Layer0
10
109.65247393196277
20
378.91281839106887
30
2.446095326291697e-10
11
104.03547626660267
21
382.05741052901556
31
2.446095326291697e-10
  0
LINE
 8
Layer0
10
136.34277889362468
20
326.8957643463497
30
2.446208124950999e-10
11
136.34277889362463
21
311.411888070141
31
2.446095326291697e-10
  0
LINE
 8
Layer0
10
37.34277889362459
20
262.89576434634955
30
2.446095326291697e-10
11
78.34277889362465
21
262.89576434634955
31
2.446095326291697e-10
  0
LINE
 8
Layer0
10
60.14054547916592
20
386.08432235352643
30
2.446095326291697e-10
11
54.0451530498753
21
384.014222447811
31
2.446095326291697e-10
  0
LINE
 8
Layer0
10
181.84277889362463
20
387.89576434634944
30
2.445192937017282e-10
11
181.84277889362463
21
346.3957643463496
31
2.4458697289730936e-10
  0
LINE
 8
Layer0
10
162.8427788936246
20
344.89576434634944
30
2.446433722269603e-10
11
162.8427788936246
21
349.89576434634955
31
2.446320923610301e-10
  0
LINE
 8
Layer0
10
136.03133690080148
20
343.5979977608082
30
2.446095326291697e-10
11
133.96123699508613
21
349.6933901900989
31
2.446095326291697e-10
  0
LINE
 8
Layer0
10
139.8427788936246
20
383.89576434634944
30
2.445192937017282e-10
11
141.8427788936246
21
383.89576434634944
31
2.445192937017282e-10
  0
LINE
 8
Layer0
10
19.724320792163137
20
304.09813850260014
30
2.446095326291697e-10
11
22.420222477643907
21
298.2525216327636
31
2.446095326291697e-10
  0
LINE
 8
Layer0
10
37.51037403302303
20
374.17379230735617
30
2.446095326291697e-10
11
32.783941453177626
21
369.8034424867042
31
2.446095326291697e-10
  0
LINE
 8
Layer0
10
141.8427788936246
20
383.89576434634944
30
2.445192937017282e-10
11
141.8427788936246
21
380.8957643463496
31
2.445192937017282e-10
  0
LINE
 8
Layer0
10
37.34277889362459
20
387.89576434634944
30
2.445192937017282e-10
11
37.34277889362459
21
389.8957643463496
31
2.4458697289730936e-10
  0
LINE
 8
Layer0
10
24.825724848905292
20
359.70545938468763
30
2.446095326291697e-10
11
21.681132710958664
21
354.0884617193276
31
2.446095326291697e-10
  0
LINE
 8
Layer0
10
23.447024178712912
20
272.38638048787124
30
2.445982527632395e-10
11
23.3430887537255
21
272.43601445817797
31
2.446208124950999e-10
  0
LINE
 8
Layer0
10
48.19953618003865
20
381.3183207623303
30
2.446095326291697e-10
11
42.66774067135604
21
378.02615416010394
31
2.446095326291697e-10
  0
LINE
 8
Layer0
10
139.8427788936246
20
356.89576434634955
30
2.446208124950999e-10
11
141.8427788936246
21
356.89576434634955
31
2.446208124950999e-10
  0
LINE
 8
Layer0
10
124.12080685463127
20
366.2281692069512
30
2.446095326291697e-10
11
119.75045703397927
21
370.9546017867965
31
2.446095326291697e-10
  0
LINE
 8
Layer0
10
78.34277889362465
20
389.8957643463496
30
2.4458697289730936e-10
11
78.34277889362465
21
387.89576434634944
31
2.445192937017282e-10
  0
LINE
 8
Layer0
10
78.34277889362465
20
387.89576434634944
30
2.445192937017282e-10
11
119.34277889362467
21
387.89576434634944
31
2.445192937017282e-10
  0
LINE
 8
Layer0
10
141.8427788936246
20
380.8957643463496
30
2.445192937017282e-10
11
139.8427788936246
21
380.8957643463496
31
2.445192937017282e-10
  0
LINE
 8
Layer0
10
0.0
20
400.0
30
0.0
11
0.0
21
0.0
31
0.0
  0
LINE
 8
Layer0
10
37.34277889362459
20
264.8957643463496
30
2.445982527632395e-10
11
37.34277889362459
21
262.89576434634955
31
2.446095326291697e-10
  0
LINE
 8
Layer0
10
33.93510075326999
20
282.83692690590254
30
2.446095326291697e-10
11
38.77555607463655
21
278.5932121689592
31
2.446095326291697e-10
  0
LINE
 8
Layer0
10
15.842778893624606
20
387.89576434634944
30
2.445192937017282e-10
11
37.34277889362459
21
387.89576434634944
31
2.445192937017282e-10
  0
LINE
 8
Layer0
10
146.8427788936246
20
356.89576434634955
30
2.446208124950999e-10
11
146.8427788936246
21
354.8957643463496
31
2.4456441316544896e-10
  0
LINE
 8
Layer0
10
160.34277889362463
20
389.8957643463496
30
2.4458697289730936e-10
11
160.34277889362463
21
387.89576434634944
31
2.445192937017282e-10
  0
LINE
 8
Layer0
10
15.842778893624606
20
264.8957643463496
30
2.445982527632395e-10
11
15.842778893624606
21
306.3957643463496
31
2.4458697289730936e-10
  0
LINE
 8
Layer0
10
17.342778893624626
20
311.5689731137316
30
2.446095326291697e-10
11
17.342778893624626
21
326.8957643463497
31
2.446208124950999e-10
  0
LINE
 8
Layer0
10
181.84277889362463
20
306.3957643463496
30
2.4458697289730936e-10
11
183.84277889362463
21
306.3957643463496
31
2.4458697289730936e-10
  0
LINE
 8
Layer0
10
160.34277889362463
20
387.89576434634944
30
2.445192937017282e-10
11
181.84277889362463
21
387.89576434634944
31
2.445192937017282e-10
  0
LINE
 8
Layer0
10
141.8427788936246
20
284.89576434634967
30
2.4458697289730936e-10
11
141.8427788936246
21
288.8957643463496
31
2.445982527632395e-10
  0
LINE
 8
Layer0
10
32.783941453177626
20
369.8034424867042
30
2.446095326291697e-10
11
28.54022671623428
21
364.96298716533755
31
2.446095326291697e-10
  0
LINE
 8
Layer0
10
92.1695701262426
20
267.3957643463495
30
2.446095326291697e-10
11
76.84277889362463
21
267.3957643463495
31
2.446095326291697e-10
  0
LINE
 8
Layer0
10
15.842778893624606
20
306.3957643463496
30
2.4458697289730936e-10
11
13.84277889362461
21
306.3957643463496
31
2.4458697289730936e-10
  0
LINE
 8
Layer0
10
114.91000171261263
20
375.1983165237399
30
2.446095326291697e-10
11
109.65247393196277
21
378.91281839106887
31
2.446095326291697e-10
  0
LINE
 8
Layer0
10
125.14533107101498
20
288.8285415273614
30
2.446095326291697e-10
11
128.85983293834397
21
294.08606930801136
31
2.446095326291697e-10
  0
LINE
 8
Layer0
10
17.342778893624626
20
326.8957643463497
30
2.446208124950999e-10
11
17.342778893624626
21
342.37964062255804
31
2.446095326291697e-10
  0
LINE
 8
Layer0
10
119.34277889362467
20
389.8957643463496
30
2.4458697289730936e-10
11
160.34277889362463
21
389.8957643463496
31
2.4458697289730936e-10
  0
LINE
 8
Layer0
10
132.0044250762906
20
299.70306697337145
30
2.446095326291697e-10
11
134.54465467534345
21
305.6179935215875
31
2.446095326291697e-10
  0
LINE
 8
Layer0
10
49.6500815206465
20
271.7341181636835
30
2.446095326291697e-10
11
55.56500806886266
21
269.19388856463064
31
2.446095326291697e-10
  0
LINE
 8
Layer0
10
119.34277889362467
20
264.8957643463496
30
2.445982527632395e-10
11
78.34277889362465
21
264.8957643463496
31
2.445982527632395e-10
  0
LINE
 8
Layer0
10
17.342778893624626
20
311.5689731137316
30
2.446095326291697e-10
11
17.65422088644779
21
310.1935309318908
31
2.446095326291697e-10
  0
LINE
 8
Layer0
10
17.65422088644779
20
310.1935309318908
30
2.446095326291697e-10
11
19.724320792163137
21
304.09813850260014
31
2.446095326291697e-10
  0
LINE
 8
Layer0
10
183.84277889362463
20
306.3957643463496
30
2.4458697289730936e-10
11
183.84277889362463
21
346.3957643463496
31
2.4458697289730936e-10
  0
LINE
 8
Layer0
10
119.34277889362467
20
264.8957643463496
30
2.445982527632395e-10
11
119.34277889362467
21
262.89576434634955
31
2.446095326291697e-10
  0
LINE
 8
Layer0
10
160.34277889362463
20
262.89576434634955
30
2.446095326291697e-10
11
160.34277889362463
21
264.8957643463496
31
2.445982527632395e-10
  0
LINE
 8
Layer0
10
13.84277889362461
20
346.3957643463496
30
2.4458697289730936e-10
11
15.842778893624606
21
346.3957643463496
31
2.4458697289730936e-10
  0
LINE
 8
Layer0
10
22.420222477643907
20
298.2525216327636
30
2.446095326291697e-10
11
25.712389079870185
21
292.7207261240809
31
2.446095326291697e-10
  0
LINE
 8
Layer0
10
37.34277889362459
20
264.8957643463496
30
2.445982527632395e-10
11
15.842778893624606
21
264.8957643463496
31
2.445982527632395e-10
  0
LINE
 8
Layer0
10
0.0
20
0.0
30
0.0
11
199.99999999999994
21
0.0
31
0.0
  0
LINE
 8
Layer0
10
54.0451530498753
20
384.014222447811
30
2.446095326291697e-10
11
48.19953618003865
21
381.3183207623303
31
2.446095326291697e-10
  0
LINE
 8
Layer0
10
139.8427788936246
20
284.89576434634967
30
2.4458697289730936e-10
11
141.8427788936246
21
284.89576434634967
31
2.4458697289730936e-10
  0
LINE
 8
Layer0
10
199.99999999999994
20
400.0
30
0.0
11
0.0
21
400.0
31
0.0
  0
LINE
 8
Layer0
10
139.8427788936246
20
352.8957643463495
30
2.4458697289730936e-10
11
139.8427788936246
21
356.89576434634955
31
2.446208124950999e-10
  0
LINE
 8
Layer0
10
15.842778893624606
20
346.3957643463496
30
2.4458697289730936e-10
11
15.842778893624606
21
387.89576434634944
31
2.445192937017282e-10
  0
LINE
 8
Layer0
10
199.99999999999994
20
0.0
30
0.0
11
199.99999999999994
21
400.0
31
0.0
  0
LINE
 8
Layer0
10
119.34277889362467
20
387.89576434634944
30
2.445192937017282e-10
11
119.34277889362467
21
389.8957643463496
31
2.4458697289730936e-10
  0
LINE
 8
Layer0
10
21.681132710958664
20
354.0884617193276
30
2.446095326291697e-10
11
19.14090311190581
21
348.17353517111144
31
2.446095326291697e-10
  0
LINE
 8
Layer0
10
139.8427788936246
20
271.8957643463496
30
2.445982527632395e-10
11
139.8427788936246
21
274.89576434634955
31
2.445982527632395e-10
  0
LINE
 8
Layer0
10
78.34277889362465
20
262.89576434634955
30
2.446095326291697e-10
11
78.34277889362465
21
264.8957643463496
31
2.445982527632395e-10
  0
LINE
 8
Layer0
10
24.456896780644925
20
272.19872608817974
30
2.446208124950999e-10
11
24.341756287903205
21
272.1957645840137
31
2.445982527632395e-10
  0
LINE
 8
Layer0
10
183.84277889362463
20
346.3957643463496
30
2.4458697289730936e-10
11
181.84277889362463
21
346.3957643463496
31
2.4458697289730936e-10
  0
LINE
 8
Layer0
10
61.51598766100657
20
386.39576434634955
30
2.446095326291697e-10
11
76.84277889362463
21
386.3957643463496
31
2.4446289437207724e-10
  0
LINE
 8
Layer0
10
139.8427788936246
20
274.89576434634955
30
2.445982527632395e-10
11
141.8427788936246
21
274.89576434634955
31
2.445982527632395e-10
  0
LINE
 8
Layer0
10
120.90161633407163
20
283.9880862059948
30
2.446095326291697e-10
11
125.14533107101498
21
288.8285415273614
31
2.446095326291697e-10
  0
LINE
 8
Layer0
10
76.84277889362463
20
386.3957643463496
30
2.4446289437207724e-10
11
92.32665516983319
21
386.39576434634955
31
2.446095326291697e-10
  0
LINE
 8
Layer0
10
181.84277889362463
20
306.3957643463496
30
2.4458697289730936e-10
11
181.84277889362463
21
264.8957643463496
31
2.445982527632395e-10
  0
LINE
 8
Layer0
10
19.14090311190581
20
348.17353517111144
30
2.446095326291697e-10
11
17.342778893624626
21
342.37964062255804
31
2.446095326291697e-10
  0
LINE
 8
Layer0
10
22.145847673551348
20
274.5119246419214
30
2.446095326291697e-10
11
22.1549378515812
21
274.626743944476
31
2.446095326291697e-10
  0
LINE
 8
Layer0
10
22.19106701616546
20
274.8541702760683
30
2.446208124950999e-10
11
22.218006975191006
21
274.9661539453395
31
2.446095326291697e-10
  0
LINE
 8
Layer0
10
127.97316870737907
20
361.07080256861815
30
2.446095326291697e-10
11
124.12080685463127
21
366.2281692069512
31
2.446095326291697e-10
  0
LINE
 8
Layer0
10
23.774364817187468
20
276.5210656044558
30
2.446095326291697e-10
11
23.88637348257151
21
276.5479014471779
31
2.446095326291697e-10
  0
LINE
 8
Layer0
10
22.288535708093896
20
273.6083096272066
30
2.446208124950999e-10
11
22.25013878126097
21
273.71689958800187
31
2.446320923610301e-10
  0
LINE
 8
Layer0
10
160.8427788936246
20
356.89576434634955
30
2.446208124950999e-10
11
155.84277889362465
21
356.89576434634955
31
2.446208124950999e-10
  0
LINE
 8
Layer0
10
29.564750932617997
20
287.56335948574787
30
2.446095326291697e-10
11
33.93510075326999
21
282.83692690590254
31
2.446095326291697e-10
  0
LINE
 8
Layer0
10
181.84277889362463
20
264.8957643463496
30
2.445982527632395e-10
11
160.34277889362463
21
264.8957643463496
31
2.445982527632395e-10
  0
LINE
 8
Layer0
10
13.84277889362461
20
306.3957643463496
30
2.4458697289730936e-10
11
13.84277889362461
21
346.3957643463496
31
2.4458697289730936e-10
  0
LINE
 8
Layer0
10
92.1695701262426
20
267.3957643463495
30
2.446095326291697e-10
11
93.54501230808334
21
267.7072063391726
31
2.446095326291697e-10
  0
LINE
 8
Layer0
10
42.66774067135604
20
378.02615416010394
30
2.446095326291697e-10
11
37.51037403302303
21
374.17379230735617
31
2.446095326291697e-10
  0
LINE
 8
Layer0
10
22.17002474983239
20
274.74093014800724
30
2.446208124950999e-10
11
22.19106701616546
21
274.8541702760683
31
2.446208124950999e-10
  0
LINE
 8
Layer0
10
131.26533530960535
20
355.53900705993544
30
2.446095326291697e-10
11
127.97316870737907
21
361.07080256861815
31
2.446095326291697e-10
  0
LINE
 8
Layer0
10
24.57172448419055
20
272.20770952149707
30
2.446208124950999e-10
11
24.456896780644925
21
272.19872608817974
31
2.446208124950999e-10
  0
LINE
 8
Layer0
10
119.75045703397927
20
370.9546017867965
30
2.446095326291697e-10
11
114.91000171261263
21
375.1983165237399
31
2.446095326291697e-10
  0
LINE
 8
Layer0
10
162.8427788936246
20
354.8957643463496
30
2.4456441316544896e-10
11
160.8427788936246
21
354.8957643463496
31
2.4456441316544896e-10
  0
LINE
 8
Layer0
10
23.553414805110688
20
272.34225409904997
30
2.445982527632395e-10
11
23.447024178712912
21
272.38638048787124
31
2.445982527632395e-10
  0
LINE
 8
Layer0
10
104.03547626660267
20
382.05741052901556
30
2.446095326291697e-10
11
98.1205497183866
21
384.5976401280684
31
2.446095326291697e-10
  0
LINE
 8
Layer0
10
22.786421051628107
20
272.84085268723305
30
2.446095326291697e-10
11
22.70717619740686
21
272.92443711553875
31
2.446095326291697e-10
  0
LINE
 8
Layer0
10
28.54022671623428
20
364.96298716533755
30
2.446095326291697e-10
11
24.825724848905292
21
359.70545938468763
31
2.446095326291697e-10
  0
LINE
 8
Layer0
10
55.56500806886266
20
269.19388856463064
30
2.446095326291697e-10
11
61.35890261741607
21
267.3957643463495
31
2.446095326291697e-10
  0
LINE
 8
Layer0
10
119.34277889362467
20
262.89576434634955
30
2.446095326291697e-10
11
160.34277889362463
21
262.89576434634955
31
2.446095326291697e-10
  0
LINE
 8
Layer0
10
23.772389294634692
20
272.2709924279159
30
2.446095326291697e-10
11
23.66196902360709
21
272.30375623907867
31
2.446095326291697e-10
  0
LINE
 8
Layer0
10
136.34277889362463
20
342.22255557896744
30
2.446095326291697e-10
11
136.03133690080148
21
343.5979977608082
31
2.446095326291697e-10
  0
LINE
 8
Layer0
10
141.8427788936246
20
274.89576434634955
30
2.445982527632395e-10
11
141.8427788936246
21
271.8957643463496
31
2.445982527632395e-10
  0
LINE
 8
Layer0
10
141.8427788936246
20
288.8957643463496
30
2.445982527632395e-10
11
139.8427788936246
21
288.8957643463496
31
2.445982527632395e-10
  0
LINE
 8
Layer0
10
22.632414416486586
20
273.01205434951333
30
2.446320923610301e-10
11
22.56234062571217
21
273.10346423640874
31
2.446320923610301e-10
  0
LINE
 8
Layer0
10
23.04882417286952
20
272.616528223561
30
2.446208124950999e-10
11
22.957479468975357
21
272.6866869624764
31
2.446095326291697e-10
  0
LINE
 8
Layer0
10
111.01781711589321
20
275.76537453259505
30
2.446095326291697e-10
11
116.17518375422624
21
279.6177363853428
31
2.446095326291697e-10
  0
LINE
 8
Layer0
10
44.03308385528649
20
274.8787103016301
30
2.446095326291697e-10
11
49.6500815206465
21
271.7341181636835
31
2.446095326291697e-10
  0
LINE
 8
Layer0
10
162.8427788936246
20
349.89576434634955
30
2.446320923610301e-10
11
160.8427788936246
21
349.89576434634955
31
2.446320923610301e-10
  0
LINE
 8
Layer0
10
22.70717619740686
20
272.92443711553875
30
2.446095326291697e-10
11
22.632414416486586
21
273.01205434951333
31
2.446320923610301e-10
  0
LINE
 8
Layer0
10
25.130233612767533
20
272.34152116081884
30
2.446208124950999e-10
11
25.02164365197229
21
272.3031242339859
31
2.446095326291697e-10
  0
LINE
 8
Layer0
10
26.54277865596045
20
274.3947417406282
30
2.446208124950999e-10
11
26.53971011369788
21
274.2796040507777
31
2.446095326291697e-10
  0
LINE
 8
Layer0
10
98.1205497183866
20
384.5976401280684
30
2.446095326291697e-10
11
92.32665516983319
21
386.39576434634955
31
2.446095326291697e-10
  0
LINE
 8
Layer0
10
23.997613091967015
20
272.2230102025573
30
2.446208124950999e-10
11
23.884372963905854
21
272.24405246889046
31
2.446208124950999e-10
  0
LINE
 8
Layer0
10
141.8427788936246
20
352.8957643463495
30
2.4458697289730936e-10
11
139.8427788936246
21
352.8957643463495
31
2.4458697289730936e-10
  0
LINE
 8
Layer0
10
129.3439246066874
20
276.5957641086854
30
2.446320923610301e-10
11
129.45906229653795
21
276.5926955664229
31
2.446208124950999e-10
  0
LINE
 8
Layer0
10
127.70866781832117
20
275.86861146546096
30
2.446320923610301e-10
11
127.7879903418497
21
275.95212218834604
31
2.446320923610301e-10
  0
LINE
 8
Layer0
10
22.16970480827454
20
274.05261857618797
30
2.446208124950999e-10
11
22.15472406877206
21
274.1668187557836
31
2.446095326291697e-10
  0
LINE
 8
Layer0
10
22.289268646324953
20
275.1851284348635
30
2.446095326291697e-10
11
22.33339503514628
21
275.29151906126134
31
2.446095326291697e-10
  0
LINE
 8
Layer0
10
25.443664377325284
20
276.30050872599145
30
2.446095326291697e-10
11
25.54184227053756
21
276.24028244551425
31
2.446208124950999e-10
  0
LINE
 8
Layer0
10
160.8427788936246
20
349.89576434634955
30
2.446320923610301e-10
11
160.8427788936246
21
344.89576434634944
31
2.446433722269603e-10
  0
LINE
 8
Layer0
10
22.332563172709666
20
273.5018780250613
30
2.446320923610301e-10
11
22.288535708093896
21
273.6083096272066
31
2.446208124950999e-10
  0
LINE
 8
Layer0
10
24.111799295498265
20
272.2079233043061
30
2.446095326291697e-10
11
23.997613091967015
21
272.2230102025573
31
2.446208124950999e-10
  0
LINE
 8
Layer0
10
25.897690552741008
20
272.8394065043531
30
2.445982527632395e-10
11
25.814106124435384
21
272.76016165013186
31
2.446095326291697e-10
  0
LINE
 8
Layer0
10
22.957479468975357
20
272.6866869624764
30
2.446095326291697e-10
11
22.86993177451318
21
272.7615301637046
31
2.446095326291697e-10
  0
LINE
 8
Layer0
10
139.8427788936246
20
380.8957643463496
30
2.445192937017282e-10
11
139.8427788936246
21
383.89576434634944
31
2.445192937017282e-10
  0
LINE
 8
Layer0
10
25.814106124435384
20
272.76016165013186
30
2.446095326291697e-10
11
25.726488890460807
21
272.6853998692115
31
2.446208124950999e-10
  0
LINE
 8
Layer0
10
38.77555607463655
20
278.5932121689592
30
2.446095326291697e-10
11
44.03308385528649
21
274.8787103016301
31
2.446095326291697e-10
  0
LINE
 8
Layer0
10
26.122015016413165
20
273.10180962559446
30
2.446208124950999e-10
11
26.051856277497684
21
273.01046492170036
31
2.446208124950999e-10
  0
LINE
 8
Layer0
10
26.051856277497684
20
273.01046492170036
30
2.446208124950999e-10
11
25.977013076269547
21
272.92291722723803
31
2.446208124950999e-10
  0
LINE
 8
Layer0
10
22.497146892473392
20
273.19841622807877
30
2.446095326291697e-10
11
22.43701190826137
21
273.29665006771444
31
2.446095326291697e-10
  0
LINE
 8
Layer0
10
23.24366461498949
20
276.3015313317128
30
2.446208124950999e-10
11
23.344911050464336
21
276.35644274108614
31
2.446095326291697e-10
  0
LINE
 8
Layer0
10
127.49726999981488
20
273.19841622807877
30
2.446320923610301e-10
11
127.43713501560285
21
273.29665006771444
31
2.446208124950999e-10
  0
LINE
 8
Layer0
10
160.8427788936246
20
356.89576434634955
30
2.446208124950999e-10
11
162.8427788936246
21
356.89576434634955
31
2.446208124950999e-10
  0
LINE
 8
Layer0
10
139.8427788936246
20
288.8957643463496
30
2.445982527632395e-10
11
139.8427788936246
21
284.89576434634967
31
2.4458697289730936e-10
  0
LINE
 8
Layer0
10
160.8427788936246
20
344.89576434634944
30
2.446433722269603e-10
11
162.8427788936246
21
344.89576434634944
31
2.446433722269603e-10
  0
LINE
 8
Layer0
10
105.4860216072106
20
272.47320793036874
30
2.446095326291697e-10
11
111.01781711589321
21
275.76537453259505
31
2.446095326291697e-10
  0
LINE
 8
Layer0
10
116.17518375422624
20
279.6177363853428
30
2.446095326291697e-10
11
120.90161633407163
21
283.9880862059948
31
2.446095326291697e-10
  0
LINE
 8
Layer0
10
155.84277889362465
20
354.8957643463496
30
2.4456441316544896e-10
11
160.8427788936246
21
354.8957643463496
31
2.4456441316544896e-10
  0
LINE
 8
Layer0
10
136.34277889362463
20
342.22255557896744
30
2.446095326291697e-10
11
136.34277889362468
21
326.8957643463497
31
2.446208124950999e-10
  0
LINE
 8
Layer0
10
141.8427788936246
20
356.89576434634955
30
2.446208124950999e-10
11
146.8427788936246
21
356.89576434634955
31
2.446208124950999e-10
  0
LINE
 8
Layer0
10
128.85983293834397
20
294.08606930801136
30
2.446095326291697e-10
11
132.0044250762906
21
299.70306697337145
31
2.446095326291697e-10
  0
LINE
 8
Layer0
10
146.8427788936246
20
354.8957643463496
30
2.4456441316544896e-10
11
141.8427788936246
21
354.8957643463496
31
2.4456441316544896e-10
  0
LINE
 8
Layer0
10
22.56234062571217
20
273.10346423640874
30
2.446320923610301e-10
11
22.497146892473392
21
273.19841622807877
31
2.446095326291697e-10
  0
LINE
 8
Layer0
10
93.54501230808334
20
267.7072063391726
30
2.446095326291697e-10
11
99.64040473737396
21
269.777306244888
31
2.446095326291697e-10
  0
LINE
 8
Layer0
10
76.84277889362463
20
267.3957643463495
30
2.446095326291697e-10
11
61.35890261741607
21
267.3957643463495
31
2.446095326291697e-10
  0
LINE
 8
Layer0
10
22.33339503514628
20
275.29151906126134
30
2.446095326291697e-10
11
22.383029005453036
21
275.39545448624864
31
2.446095326291697e-10
  0
LINE
 8
Layer0
10
23.66196902360709
20
272.30375623907867
30
2.446095326291697e-10
11
23.553414805110688
21
272.34225409904997
31
2.445982527632395e-10
  0
LINE
 8
Layer0
10
23.241893409923943
20
272.49101996670765
30
2.446208124950999e-10
11
23.143715516711666
21
272.55124624718485
31
2.446095326291697e-10
  0
LINE
 8
Layer0
10
23.143715516711666
20
272.55124624718485
30
2.446095326291697e-10
11
23.04882417286952
21
272.616528223561
31
2.446208124950999e-10
  0
LINE
 8
Layer0
10
99.64040473737396
20
269.777306244888
30
2.446095326291697e-10
11
105.4860216072106
21
272.47320793036874
31
2.446095326291697e-10
  0
LINE
 8
Layer0
10
22.218006975191006
20
274.9661539453395
30
2.446095326291697e-10
11
22.2507707863538
21
275.0765742163671
31
2.446095326291697e-10
  0
LINE
 8
Layer0
10
22.70854471097968
20
275.86861146546096
30
2.446208124950999e-10
11
22.78786723450822
21
275.95212218834604
31
2.446095326291697e-10
  0
LINE
 8
Layer0
10
25.02164365197229
20
272.3031242339859
30
2.446095326291697e-10
11
24.91119297006176
21
272.2704630882433
31
2.446095326291697e-10
  0
LINE
 8
Layer0
10
26.468080151730884
20
274.9641784227868
30
2.445982527632395e-10
11
26.494915994452864
21
274.85216975740263
31
2.446095326291697e-10
  0
LINE
 8
Layer0
10
23.14543077535385
20
276.2413963475009
30
2.446320923610301e-10
11
23.24366461498949
21
276.3015313317128
31
2.446208124950999e-10
  0
LINE
 8
Layer0
10
162.8427788936246
20
356.89576434634955
30
2.446208124950999e-10
11
162.8427788936246
21
354.8957643463496
31
2.4456441316544896e-10
  0
LINE
 8
Layer0
10
25.34064673678498
20
272.43508595161296
30
2.446095326291697e-10
11
25.23666521491289
21
272.3855486254346
31
2.446095326291697e-10
  0
LINE
 8
Layer0
10
22.145740635454782
20
274.28164645932924
30
2.446095326291697e-10
11
22.142779131288776
21
274.39678695207095
31
2.445982527632395e-10
  0
LINE
 8
Layer0
10
133.96123699508613
20
349.6933901900989
30
2.446095326291697e-10
11
131.26533530960535
21
355.53900705993544
31
2.446095326291697e-10
  0
LINE
 8
Layer0
10
26.39702207915533
20
275.18321906549255
30
2.446095326291697e-10
11
26.43541900598835
21
275.0746291046973
31
2.446320923610301e-10
  0
LINE
 8
Layer0
10
130.3425921408652
20
276.35551423452114
30
2.446320923610301e-10
11
130.44378748466676
21
276.30050872599145
31
2.446320923610301e-10
  0
LINE
 8
Layer0
10
22.1549378515812
20
274.626743944476
30
2.446095326291697e-10
11
22.17002474983239
21
274.74093014800724
31
2.446208124950999e-10
  0
LINE
 8
Layer0
10
22.43701190826137
20
273.29665006771444
30
2.446095326291697e-10
11
22.38210049888804
21
273.39789650318926
31
2.4458697289730936e-10
  0
LINE
 8
Layer0
10
141.8427788936246
20
271.8957643463496
30
2.445982527632395e-10
11
139.8427788936246
21
271.8957643463496
31
2.445982527632395e-10
  0
LINE
 8
Layer0
10
141.8427788936246
20
354.8957643463496
30
2.4456441316544896e-10
11
141.8427788936246
21
352.8957643463495
31
2.4458697289730936e-10
  0
LINE
 8
Layer0
10
134.54465467534345
20
305.6179935215875
30
2.446095326291697e-10
11
136.34277889362463
21
311.411888070141
31
2.446095326291697e-10
  0
LINE
 8
Layer0
10
25.023588763642138
20
276.4877724536204
30
2.446095326291697e-10
11
25.13214298213854
21
276.4492745936492
31
2.446208124950999e-10
  0
LINE
 8
Layer0
10
26.434787000895426
20
273.71495447633214
30
2.446095326291697e-10
11
26.396289140924274
21
273.60640025783573
31
2.446095326291697e-10
  0
LINE
 8
Layer0
10
22.871451662813843
20
276.0313670425673
30
2.445982527632395e-10
11
22.95906889678842
21
276.10612882348755
31
2.446095326291697e-10
  0
LINE
 8
Layer0
10
22.15472406877206
20
274.1668187557836
30
2.446095326291697e-10
11
22.145740635454782
21
274.28164645932924
31
2.446095326291697e-10
  0
LINE
 8
Layer0
10
22.86993177451318
20
272.7615301637046
30
2.446095326291697e-10
11
22.786421051628107
21
272.84085268723305
31
2.446095326291697e-10
  0
LINE
 8
Layer0
10
25.23666521491289
20
272.3855486254346
30
2.446095326291697e-10
11
25.130233612767533
21
272.34152116081884
31
2.446208124950999e-10
  0
LINE
 8
Layer0
10
22.25013878126097
20
273.71689958800187
30
2.446320923610301e-10
11
22.217477635518343
21
273.8273502699124
31
2.446208124950999e-10
  0
LINE
 8
Layer0
10
24.799184304677627
20
272.2436272455212
30
2.446095326291697e-10
11
24.68592466378629
21
272.2226902609994
31
2.446320923610301e-10
  0
LINE
 8
Layer0
10
23.88637348257151
20
276.5479014471779
30
2.446095326291697e-10
11
23.999633123463024
21
276.5688384316997
31
2.446095326291697e-10
  0
LINE
 8
Layer0
10
127.38222360622953
20
273.39789650318926
30
2.446095326291697e-10
11
127.33268628005115
21
273.5018780250613
31
2.446433722269603e-10
  0
LINE
 8
Layer0
10
26.352162752103037
20
273.5000096314378
30
2.446095326291697e-10
11
26.30252878179619
21
273.3960742064504
31
2.445982527632395e-10
  0
LINE
 8
Layer0
10
23.884372963905854
20
272.24405246889046
30
2.446208124950999e-10
11
23.772389294634692
21
272.2709924279159
31
2.446095326291697e-10
  0
LINE
 8
Layer0
10
127.28939175366644
20
275.1851284348635
30
2.446320923610301e-10
11
127.33351814248776
21
275.29151906126134
31
2.446320923610301e-10
  0
LINE
 8
Layer0
10
26.187296992789303
20
273.1967009694365
30
2.446208124950999e-10
11
26.122015016413165
21
273.10180962559446
31
2.446208124950999e-10
  0
LINE
 8
Layer0
10
22.38210049888804
20
273.39789650318926
30
2.4458697289730936e-10
11
22.332563172709666
21
273.5018780250613
31
2.446320923610301e-10
  0
LINE
 8
Layer0
10
24.91119297006176
20
272.2704630882433
30
2.446095326291697e-10
11
24.799184304677627
21
272.2436272455212
31
2.446095326291697e-10
  0
LINE
 8
Layer0
10
127.17002451216831
20
379.74092991034314
30
2.4454185343358855e-10
11
127.19106677850138
21
379.8541700384042
31
2.4454185343358855e-10
  0
LINE
 8
Layer0
10
25.977013076269547
20
272.92291722723803
30
2.446208124950999e-10
11
25.897690552741008
21
272.8394065043531
31
2.445982527632395e-10
  0
LINE
 8
Layer0
10
26.396289140924274
20
273.60640025783573
30
2.446095326291697e-10
11
26.352162752103037
21
273.5000096314378
31
2.446095326291697e-10
  0
LINE
 8
Layer0
10
24.226618598052774
20
272.19883312627627
30
2.445982527632395e-10
11
24.111799295498265
21
272.2079233043061
31
2.446095326291697e-10
  0
LINE
 8
Layer0
10
26.43541900598835
20
275.0746291046973
30
2.446320923610301e-10
11
26.468080151730884
21
274.9641784227868
31
2.445982527632395e-10
  0
LINE
 8
Layer0
10
131.43554211332983
20
275.0746291046973
30
2.4465465209289047e-10
11
131.46820325907237
21
274.9641784227868
31
2.446208124950999e-10
  0
LINE
 8
Layer0
10
22.142779131288776
20
274.39678695207095
30
2.445982527632395e-10
11
22.145847673551348
21
274.5119246419214
31
2.446095326291697e-10
  0
LINE
 8
Layer0
10
128.14555388269534
20
276.2413963475009
30
2.446433722269603e-10
11
128.24378772233098
21
276.3015313317128
31
2.446433722269603e-10
  0
LINE
 8
Layer0
10
127.43815762132422
20
275.4966498300502
30
2.446320923610301e-10
11
127.4983839018014
21
275.5948277232626
31
2.446433722269603e-10
  0
LINE
 8
Layer0
10
25.978381589842368
20
275.8670915771603
30
2.446095326291697e-10
11
26.05314337076264
21
275.77947434318577
31
2.446208124950999e-10
  0
LINE
 8
Layer0
10
26.35299461453956
20
275.28965066763794
30
2.446320923610301e-10
11
26.39702207915533
21
275.18321906549255
31
2.446095326291697e-10
  0
LINE
 8
Layer0
10
22.438034513982732
20
275.4966498300502
30
2.446208124950999e-10
11
22.498260794459924
21
275.5948277232626
31
2.446320923610301e-10
  0
LINE
 8
Layer0
10
26.49449077108377
20
273.9373584166309
30
2.446320923610301e-10
11
26.46755081205822
21
273.8253747473597
31
2.446095326291697e-10
  0
LINE
 8
Layer0
10
129.57388159909246
20
276.583605388393
30
2.446320923610301e-10
11
129.68806780262378
21
276.5685184901418
31
2.446320923610301e-10
  0
LINE
 8
Layer0
10
129.45906229653795
20
276.5926955664229
30
2.446208124950999e-10
11
129.57388159909246
21
276.583605388393
31
2.446320923610301e-10
  0
LINE
 8
Layer0
10
26.530833718477165
20
274.62470993691556
30
2.446095326291697e-10
11
26.539817151794445
21
274.50988223337
31
2.446208124950999e-10
  0
LINE
 8
Layer0
10
155.84277889362465
20
356.89576434634955
30
2.446208124950999e-10
11
155.84277889362465
21
354.8957643463496
31
2.4456441316544896e-10
  0
LINE
 8
Layer0
10
26.247523273266495
20
273.29487886264894
30
2.446208124950999e-10
11
26.187296992789303
21
273.1967009694365
31
2.446208124950999e-10
  0
LINE
 8
Layer0
10
127.33268628005115
20
273.5018780250613
30
2.446433722269603e-10
11
127.28865881543538
21
273.6083096272066
31
2.446433722269603e-10
  0
LINE
 8
Layer0
10
22.78786723450822
20
275.95212218834604
30
2.446095326291697e-10
11
22.871451662813843
21
276.0313670425673
31
2.445982527632395e-10
  0
LINE
 8
Layer0
10
127.56246373305366
20
273.10346423640874
30
2.446433722269603e-10
11
127.49726999981488
21
273.19841622807877
31
2.446320923610301e-10
  0
LINE
 8
Layer0
10
22.2507707863538
20
275.0765742163671
30
2.446095326291697e-10
11
22.289268646324953
21
275.1851284348635
31
2.446095326291697e-10
  0
LINE
 8
Layer0
10
26.30252878179619
20
273.3960742064504
30
2.445982527632395e-10
11
26.247523273266495
21
273.29487886264894
31
2.446208124950999e-10
  0
LINE
 8
Layer0
10
25.342469033523727
20
276.35551423452114
30
2.446095326291697e-10
11
25.443664377325284
21
276.30050872599145
31
2.446095326291697e-10
  0
LINE
 8
Layer0
10
22.383029005453036
20
275.39545448624864
30
2.446095326291697e-10
11
22.438034513982732
21
275.4966498300502
31
2.446208124950999e-10
  0
LINE
 8
Layer0
10
24.458939189196453
20
276.5926955664229
30
2.445982527632395e-10
11
24.57375849175096
21
276.583605388393
31
2.446208124950999e-10
  0
LINE
 8
Layer0
10
26.46755081205822
20
273.8253747473597
30
2.446095326291697e-10
11
26.434787000895426
21
273.71495447633214
31
2.446095326291697e-10
  0
LINE
 8
Layer0
10
23.3430887537255
20
272.43601445817797
30
2.446208124950999e-10
11
23.241893409923943
21
272.49101996670765
31
2.446208124950999e-10
  0
LINE
 8
Layer0
10
26.53061993566794
20
274.1647847482232
30
2.446208124950999e-10
11
26.515533037416745
21
274.0505985446919
31
2.446320923610301e-10
  0
LINE
 8
Layer0
10
25.540127011895375
20
272.5501323451982
30
2.446208124950999e-10
11
25.441893172259736
21
272.4899973609863
31
2.446208124950999e-10
  0
LINE
 8
Layer0
10
129.11395641040016
20
276.5838191712021
30
2.446433722269603e-10
11
129.22878411394578
21
276.5928026045195
31
2.446320923610301e-10
  0
LINE
 8
Layer0
10
127.43713501560285
20
273.29665006771444
30
2.446208124950999e-10
11
127.38222360622953
21
273.39789650318926
31
2.446095326291697e-10
  0
LINE
 8
Layer0
10
24.68592466378629
20
272.2226902609994
30
2.446320923610301e-10
11
24.57172448419055
21
272.20770952149707
31
2.446208124950999e-10
  0
LINE
 8
Layer0
10
25.72807831827387
20
276.1048417302227
30
2.446208124950999e-10
11
25.815626012736047
21
276.02999852899455
31
2.446095326291697e-10
  0
LINE
 8
Layer0
10
130.97850469718387
20
275.8670915771603
30
2.446320923610301e-10
11
131.05326647810412
21
275.77947434318577
31
2.446320923610301e-10
  0
LINE
 8
Layer0
10
25.63507900356542
20
272.61532607843714
30
2.446095326291697e-10
11
25.540127011895375
21
272.5501323451982
31
2.446208124950999e-10
  0
LINE
 8
Layer0
10
22.190641792796363
20
273.9393589352965
30
2.446095326291697e-10
11
22.16970480827454
21
274.05261857618797
31
2.446208124950999e-10
  0
LINE
 8
Layer0
10
22.498260794459924
20
275.5948277232626
30
2.446320923610301e-10
11
22.56354277083606
21
275.68971906710465
31
2.445982527632395e-10
  0
LINE
 8
Layer0
10
22.217477635518343
20
273.8273502699124
30
2.446208124950999e-10
11
22.190641792796363
21
273.9393589352965
31
2.446095326291697e-10
  0
LINE
 8
Layer0
10
24.341756287903205
20
272.1957645840137
30
2.445982527632395e-10
11
24.226618598052774
21
272.19883312627627
31
2.445982527632395e-10
  0
LINE
 8
Layer0
10
131.1885340021173
20
275.59311246462033
30
2.446320923610301e-10
11
131.24866898632925
21
275.4948786249848
31
2.446208124950999e-10
  0
LINE
 8
Layer0
10
26.53971011369788
20
274.2796040507777
30
2.446095326291697e-10
11
26.53061993566794
21
274.1647847482232
31
2.446208124950999e-10
  0
LINE
 8
Layer0
10
127.15484717611355
20
274.1668187557836
30
2.446320923610301e-10
11
127.14586374279627
21
274.28164645932924
31
2.446320923610301e-10
  0
LINE
 8
Layer0
10
26.123217161537056
20
275.68806445629036
30
2.446208124950999e-10
11
26.188410894775835
21
275.59311246462033
31
2.446095326291697e-10
  0
LINE
 8
Layer0
10
127.14586374279627
20
274.28164645932924
30
2.446320923610301e-10
11
127.14290223863026
21
274.39678695207095
31
2.446208124950999e-10
  0
LINE
 8
Layer0
10
26.494915994452864
20
274.85216975740263
30
2.446095326291697e-10
11
26.51585297897469
21
274.73891011651125
31
2.446320923610301e-10
  0
LINE
 8
Layer0
10
25.726488890460807
20
272.6853998692115
30
2.446208124950999e-10
11
25.63507900356542
21
272.61532607843714
31
2.446095326291697e-10
  0
LINE
 8
Layer0
10
25.441893172259736
20
272.4899973609863
30
2.446208124950999e-10
11
25.34064673678498
21
272.43508595161296
31
2.446095326291697e-10
  0
LINE
 8
Layer0
10
25.54184227053756
20
276.24028244551425
30
2.446208124950999e-10
11
25.63673361437962
21
276.1750004691382
31
2.446208124950999e-10
  0
LINE
 8
Layer0
10
127.95760257631684
20
272.6866869624764
30
2.446320923610301e-10
11
127.87005488185467
21
272.7615301637046
31
2.446320923610301e-10
  0
LINE
 8
Layer0
10
23.999633123463024
20
276.5688384316997
30
2.446095326291697e-10
11
24.113833303058676
21
276.5838191712021
31
2.446208124950999e-10
  0
LINE
 8
Layer0
10
130.54196537787905
20
276.24028244551425
30
2.446433722269603e-10
11
130.6368567217211
21
276.1750004691382
31
2.446320923610301e-10
  0
LINE
 8
Layer0
10
23.555324174481694
20
276.4500075318804
30
2.446095326291697e-10
11
23.663914135276936
21
276.48840445871326
31
2.446095326291697e-10
  0
LINE
 8
Layer0
10
130.72820142561537
20
276.1048417302227
30
2.446433722269603e-10
11
130.81574912007753
21
276.02999852899455
31
2.446208124950999e-10
  0
LINE
 8
Layer0
10
26.24854587898777
20
275.4948786249848
30
2.446095326291697e-10
11
26.3034572883611
21
275.3936321895099
31
2.446208124950999e-10
  0
LINE
 8
Layer0
10
127.38315211279452
20
275.39545448624864
30
2.446320923610301e-10
11
127.43815762132422
21
275.4966498300502
31
2.446320923610301e-10
  0
LINE
 8
Layer0
10
131.53983322103937
20
274.2796040507777
30
2.446320923610301e-10
11
131.53074304300944
21
274.1647847482232
31
2.446433722269603e-10
  0
LINE
 8
Layer0
10
24.801184823343373
20
276.5474762238087
30
2.446208124950999e-10
11
24.913168492614535
21
276.52053626478323
31
2.446095326291697e-10
  0
LINE
 8
Layer0
10
127.21800673752693
20
379.9661537076754
30
2.445305735676584e-10
11
127.25077054868972
21
380.076573978703
31
2.445305735676584e-10
  0
LINE
 8
Layer0
10
23.448892572336245
20
276.4059800672646
30
2.446208124950999e-10
11
23.555324174481694
21
276.4500075318804
31
2.446095326291697e-10
  0
LINE
 8
Layer0
10
131.35311772188103
20
275.28965066763794
30
2.446433722269603e-10
11
131.39714518649683
21
275.18321906549255
31
2.446320923610301e-10
  0
LINE
 8
Layer0
10
131.12334026887854
20
275.68806445629036
30
2.446433722269603e-10
11
131.1885340021173
21
275.59311246462033
31
2.446320923610301e-10
  0
LINE
 8
Layer0
10
26.188410894775835
20
275.59311246462033
30
2.446095326291697e-10
11
26.24854587898777
21
275.4948786249848
31
2.446095326291697e-10
  0
LINE
 8
Layer0
10
127.15506095892269
20
274.626743944476
30
2.446320923610301e-10
11
127.17014785717387
21
274.74093014800724
31
2.446433722269603e-10
  0
LINE
 8
Layer0
10
130.2386567158778
20
276.405148204828
30
2.446208124950999e-10
11
130.3425921408652
21
276.35551423452114
31
2.446320923610301e-10
  0
LINE
 8
Layer0
10
129.913291599956
20
276.52053626478323
30
2.446320923610301e-10
11
130.02371187098362
21
276.4877724536204
31
2.446320923610301e-10
  0
LINE
 8
Layer0
10
127.1457403977907
20
379.28164622166514
30
2.445305735676584e-10
11
127.1427788936247
21
379.39678671440686
31
2.445192937017282e-10
  0
LINE
 8
Layer0
10
128.44901567967773
20
276.4059800672646
30
2.446320923610301e-10
11
128.55544728182318
21
276.4500075318804
31
2.446208124950999e-10
  0
LINE
 8
Layer0
10
127.28926840866087
20
380.1851281971994
30
2.4454185343358855e-10
11
127.3333947974822
21
380.29151882359724
31
2.445305735676584e-10
  0
LINE
 8
Layer0
10
128.9997562308045
20
276.5688384316997
30
2.446320923610301e-10
11
129.11395641040016
21
276.5838191712021
31
2.446433722269603e-10
  0
LINE
 8
Layer0
10
129.80130793068486
20
276.5474762238087
30
2.446320923610301e-10
11
129.913291599956
21
276.52053626478323
31
2.446320923610301e-10
  0
LINE
 8
Layer0
10
26.51585297897469
20
274.73891011651125
30
2.446320923610301e-10
11
26.530833718477165
21
274.62470993691556
31
2.446095326291697e-10
  0
LINE
 8
Layer0
10
24.687944695282305
20
276.5685184901418
30
2.446095326291697e-10
11
24.801184823343373
21
276.5474762238087
31
2.446208124950999e-10
  0
LINE
 8
Layer0
10
130.44378748466676
20
276.30050872599145
30
2.446320923610301e-10
11
130.54196537787905
21
276.24028244551425
31
2.446433722269603e-10
  0
LINE
 8
Layer0
10
127.25077054868972
20
380.076573978703
30
2.445305735676584e-10
11
127.28926840866087
21
380.1851281971994
31
2.4454185343358855e-10
  0
LINE
 8
Layer0
10
24.57375849175096
20
276.583605388393
30
2.446208124950999e-10
11
24.687944695282305
21
276.5685184901418
31
2.446095326291697e-10
  0
LINE
 8
Layer0
10
129.22878411394578
20
276.5928026045195
30
2.446320923610301e-10
11
129.3439246066874
21
276.5957641086854
31
2.446320923610301e-10
  0
LINE
 8
Layer0
10
131.05326647810412
20
275.77947434318577
30
2.446320923610301e-10
11
131.12334026887854
21
275.68806445629036
31
2.446433722269603e-10
  0
LINE
 8
Layer0
10
26.05314337076264
20
275.77947434318577
30
2.446208124950999e-10
11
26.123217161537056
21
275.68806445629036
31
2.446208124950999e-10
  0
LINE
 8
Layer0
10
24.343801499345933
20
276.5957641086854
30
2.446095326291697e-10
11
24.458939189196453
21
276.5926955664229
31
2.445982527632395e-10
  0
LINE
 8
Layer0
10
24.2286610066043
20
276.5928026045195
30
2.446095326291697e-10
11
24.343801499345933
21
276.5957641086854
31
2.446095326291697e-10
  0
LINE
 8
Layer0
10
22.95906889678842
20
276.10612882348755
30
2.446095326291697e-10
11
23.050478783683808
21
276.17620261426197
31
2.446208124950999e-10
  0
LINE
 8
Layer0
10
25.63673361437962
20
276.1750004691382
30
2.446208124950999e-10
11
25.72807831827387
21
276.1048417302227
31
2.446208124950999e-10
  0
LINE
 8
Layer0
10
24.113833303058676
20
276.5838191712021
30
2.446208124950999e-10
11
24.2286610066043
21
276.5928026045195
31
2.446095326291697e-10
  0
LINE
 8
Layer0
10
23.663914135276936
20
276.48840445871326
30
2.446095326291697e-10
11
23.774364817187468
21
276.5210656044558
31
2.446095326291697e-10
  0
LINE
 8
Layer0
10
22.56354277083606
20
275.68971906710465
30
2.445982527632395e-10
11
22.633701509751543
21
275.7810637709988
31
2.446095326291697e-10
  0
LINE
 8
Layer0
10
24.913168492614535
20
276.52053626478323
30
2.446095326291697e-10
11
25.023588763642138
21
276.4877724536204
31
2.446095326291697e-10
  0
LINE
 8
Layer0
10
23.344911050464336
20
276.35644274108614
30
2.446095326291697e-10
11
23.448892572336245
21
276.4059800672646
31
2.446208124950999e-10
  0
LINE
 8
Layer0
10
131.46820325907237
20
274.9641784227868
30
2.446208124950999e-10
11
131.49503910179436
21
274.85216975740263
31
2.446320923610301e-10
  0
LINE
 8
Layer0
10
131.24866898632925
20
275.4948786249848
30
2.446208124950999e-10
11
131.3035803957026
21
275.3936321895099
31
2.446433722269603e-10
  0
LINE
 8
Layer0
10
130.34246879585965
20
381.35551399685704
30
2.4454185343358855e-10
11
130.4436641396612
21
381.30050848832735
31
2.445305735676584e-10
  0
LINE
 8
Layer0
10
25.238533608536315
20
276.405148204828
30
2.446095326291697e-10
11
25.342469033523727
21
276.35551423452114
31
2.446095326291697e-10
  0
LINE
 8
Layer0
10
25.89913673562112
20
275.95067600546594
30
2.446095326291697e-10
11
25.978381589842368
21
275.8670915771603
31
2.446095326291697e-10
  0
LINE
 8
Layer0
10
25.13214298213854
20
276.4492745936492
30
2.446208124950999e-10
11
25.238533608536315
21
276.405148204828
31
2.446095326291697e-10
  0
LINE
 8
Layer0
10
131.3035803957026
20
275.3936321895099
30
2.446433722269603e-10
11
131.35311772188103
21
275.28965066763794
31
2.446433722269603e-10
  0
LINE
 8
Layer0
10
26.515533037416745
20
274.0505985446919
30
2.446320923610301e-10
11
26.49449077108377
21
273.9373584166309
31
2.446320923610301e-10
  0
LINE
 8
Layer0
10
127.19119012350694
20
274.8541702760683
30
2.446320923610301e-10
11
127.2181300825325
21
274.9661539453395
31
2.446208124950999e-10
  0
LINE
 8
Layer0
10
127.9591920041299
20
276.10612882348755
30
2.446208124950999e-10
11
128.0506018910253
21
276.17620261426197
31
2.446433722269603e-10
  0
LINE
 8
Layer0
10
26.3034572883611
20
275.3936321895099
30
2.446208124950999e-10
11
26.35299461453956
21
275.28965066763794
31
2.446320923610301e-10
  0
LINE
 8
Layer0
10
23.050478783683808
20
276.17620261426197
30
2.446208124950999e-10
11
23.14543077535385
21
276.2413963475009
31
2.446320923610301e-10
  0
LINE
 8
Layer0
10
128.34503415780583
20
276.35644274108614
30
2.446320923610301e-10
11
128.44901567967773
21
276.4059800672646
31
2.446320923610301e-10
  0
LINE
 8
Layer0
10
130.81574912007753
20
276.02999852899455
30
2.446208124950999e-10
11
130.8992598429626
21
275.95067600546594
31
2.446320923610301e-10
  0
LINE
 8
Layer0
10
25.815626012736047
20
276.02999852899455
30
2.446095326291697e-10
11
25.89913673562112
21
275.95067600546594
31
2.446095326291697e-10
  0
LINE
 8
Layer0
10
127.33351814248776
20
275.29151906126134
30
2.446320923610301e-10
11
127.38315211279452
21
275.39545448624864
31
2.446320923610301e-10
  0
LINE
 8
Layer0
10
131.39641224826576
20
273.60640025783573
30
2.446320923610301e-10
11
131.35228585944452
21
273.5000096314378
31
2.446208124950999e-10
  0
LINE
 8
Layer0
10
127.14290223863026
20
274.39678695207095
30
2.446208124950999e-10
11
127.14597078089284
21
274.5119246419214
31
2.446320923610301e-10
  0
LINE
 8
Layer0
10
26.539817151794445
20
274.50988223337
30
2.446208124950999e-10
11
26.54277865596045
21
274.3947417406282
31
2.446208124950999e-10
  0
LINE
 8
Layer0
10
128.886496589913
20
276.5479014471779
30
2.446208124950999e-10
11
128.9997562308045
21
276.5688384316997
31
2.446320923610301e-10
  0
LINE
 8
Layer0
10
127.19076490013785
20
273.9393589352965
30
2.446320923610301e-10
11
127.16982791561603
21
274.05261857618797
31
2.446433722269603e-10
  0
LINE
 8
Layer0
10
22.633701509751543
20
275.7810637709988
30
2.446095326291697e-10
11
22.70854471097968
21
275.86861146546096
31
2.446208124950999e-10
  0
LINE
 8
Layer0
10
129.68806780262378
20
276.5685184901418
30
2.446320923610301e-10
11
129.80130793068486
21
276.5474762238087
31
2.446320923610301e-10
  0
LINE
 8
Layer0
10
127.63253752382808
20
273.01205434951333
30
2.446433722269603e-10
11
127.56246373305366
21
273.10346423640874
31
2.446433722269603e-10
  0
LINE
 8
Layer0
10
128.88449607124736
20
272.24405246889046
30
2.446320923610301e-10
11
128.77251240197617
21
272.2709924279159
31
2.446320923610301e-10
  0
LINE
 8
Layer0
10
131.53074304300944
20
274.1647847482232
30
2.446433722269603e-10
11
131.51565614475822
21
274.0505985446919
31
2.4465465209289047e-10
  0
LINE
 8
Layer0
10
127.63382461709303
20
275.7810637709988
30
2.446320923610301e-10
11
127.70866781832117
21
275.86861146546096
31
2.446320923610301e-10
  0
LINE
 8
Layer0
10
131.30265188913768
20
273.3960742064504
30
2.446208124950999e-10
11
131.247646380608
21
273.29487886264894
31
2.446433722269603e-10
  0
LINE
 8
Layer0
10
127.15493761391711
20
379.6267437068119
30
2.445305735676584e-10
11
127.17002451216831
21
379.74092991034314
31
2.4454185343358855e-10
  0
LINE
 8
Layer0
10
131.46767391939972
20
273.8253747473597
30
2.446320923610301e-10
11
131.43491010823692
21
273.71495447633214
31
2.446208124950999e-10
  0
LINE
 8
Layer0
10
127.49826055679584
20
380.5948274855985
30
2.4455313329951876e-10
11
127.56354253317198
21
380.68971882944055
31
2.445192937017282e-10
  0
LINE
 8
Layer0
10
128.048947280211
20
272.616528223561
30
2.446320923610301e-10
11
127.95760257631684
21
272.6866869624764
31
2.446320923610301e-10
  0
LINE
 8
Layer0
10
131.43541876832427
20
380.07462886703325
30
2.4456441316544896e-10
11
131.4680799140668
21
379.9641781851227
31
2.445192937017282e-10
  0
LINE
 8
Layer0
10
131.49503910179436
20
274.85216975740263
30
2.446320923610301e-10
11
131.5159760863162
21
274.73891011651125
31
2.4465465209289047e-10
  0
LINE
 8
Layer0
10
131.247646380608
20
273.29487886264894
30
2.446433722269603e-10
11
131.1874201001308
21
273.1967009694365
31
2.446320923610301e-10
  0
LINE
 8
Layer0
10
128.9977361993085
20
272.2230102025573
30
2.446320923610301e-10
11
128.88449607124736
21
272.24405246889046
31
2.446320923610301e-10
  0
LINE
 8
Layer0
10
127.7879903418497
20
275.95212218834604
30
2.446320923610301e-10
11
127.87157477015533
21
276.0313670425673
31
2.446208124950999e-10
  0
LINE
 8
Layer0
10
127.25026188860245
20
273.71689958800187
30
2.4465465209289047e-10
11
127.21760074285983
21
273.8273502699124
31
2.446433722269603e-10
  0
LINE
 8
Layer0
10
127.21760074285983
20
273.8273502699124
30
2.446433722269603e-10
11
127.19076490013785
21
273.9393589352965
31
2.446320923610301e-10
  0
LINE
 8
Layer0
10
128.55353791245219
20
272.34225409904997
30
2.446208124950999e-10
11
128.4471472860544
21
272.38638048787124
31
2.446208124950999e-10
  0
LINE
 8
Layer0
10
128.0506018910253
20
276.17620261426197
30
2.446433722269603e-10
11
128.14555388269534
21
276.2413963475009
31
2.446433722269603e-10
  0
LINE
 8
Layer0
10
127.2181300825325
20
274.9661539453395
30
2.446208124950999e-10
11
127.25089389369529
21
275.0765742163671
31
2.446320923610301e-10
  0
LINE
 8
Layer0
10
128.4471472860544
20
272.38638048787124
30
2.446208124950999e-10
11
128.34321186106698
21
272.43601445817797
31
2.446320923610301e-10
  0
LINE
 8
Layer0
10
127.33256293504559
20
378.5018777873972
30
2.4455313329951876e-10
11
127.28853547042982
21
378.60830938954257
31
2.4454185343358855e-10
  0
LINE
 8
Layer0
10
129.22674170539426
20
272.19883312627627
30
2.446095326291697e-10
11
129.11192240283975
21
272.2079233043061
31
2.446208124950999e-10
  0
LINE
 8
Layer0
10
127.56366587817755
20
275.68971906710465
30
2.446208124950999e-10
11
127.63382461709303
21
275.7810637709988
31
2.446320923610301e-10
  0
LINE
 8
Layer0
10
128.14383862405316
20
272.55124624718485
30
2.446320923610301e-10
11
128.048947280211
21
272.616528223561
31
2.446320923610301e-10
  0
LINE
 8
Layer0
10
130.8992598429626
20
275.95067600546594
30
2.446320923610301e-10
11
130.97850469718387
21
275.8670915771603
31
2.446320923610301e-10
  0
LINE
 8
Layer0
10
128.24378772233098
20
276.3015313317128
30
2.446433722269603e-10
11
128.34503415780583
21
276.35644274108614
31
2.446320923610301e-10
  0
LINE
 8
Layer0
10
131.49461387842527
20
273.9373584166309
30
2.4465465209289047e-10
11
131.46767391939972
21
273.8253747473597
31
2.446320923610301e-10
  0
LINE
 8
Layer0
10
127.15472383110799
20
379.16681851811956
30
2.445305735676584e-10
11
127.1457403977907
21
379.28164622166514
31
2.445305735676584e-10
  0
LINE
 8
Layer0
10
129.4570198879864
20
272.19872608817974
30
2.446320923610301e-10
11
129.3418793952447
21
272.1957645840137
31
2.446208124950999e-10
  0
LINE
 8
Layer0
10
130.6368567217211
20
276.1750004691382
30
2.446320923610301e-10
11
130.72820142561537
21
276.1048417302227
31
2.446433722269603e-10
  0
LINE
 8
Layer0
10
130.81422923177686
20
272.76016165013186
30
2.446208124950999e-10
11
130.7266119978023
21
272.6853998692115
31
2.446433722269603e-10
  0
LINE
 8
Layer0
10
128.34321186106698
20
272.43601445817797
30
2.446320923610301e-10
11
128.24201651726543
21
272.49101996670765
31
2.446320923610301e-10
  0
LINE
 8
Layer0
10
131.46755057439415
20
378.8253745096956
30
2.445305735676584e-10
11
131.43478676323136
21
378.71495423866804
31
2.445305735676584e-10
  0
LINE
 8
Layer0
10
130.6352021109069
20
272.61532607843714
30
2.446320923610301e-10
11
130.54025011923687
21
272.5501323451982
31
2.446320923610301e-10
  0
LINE
 8
Layer0
10
131.5159760863162
20
274.73891011651125
30
2.4465465209289047e-10
11
131.53095682581866
21
274.62470993691556
31
2.446208124950999e-10
  0
LINE
 8
Layer0
10
127.14597078089284
20
274.5119246419214
30
2.446320923610301e-10
11
127.15506095892269
21
274.626743944476
31
2.446320923610301e-10
  0
LINE
 8
Layer0
10
130.02371187098362
20
276.4877724536204
30
2.446320923610301e-10
11
130.13226608948003
21
276.4492745936492
31
2.446433722269603e-10
  0
LINE
 8
Layer0
10
131.49449053341968
20
378.9373581789668
30
2.4455313329951876e-10
11
131.46755057439415
21
378.8253745096956
31
2.445305735676584e-10
  0
LINE
 8
Layer0
10
130.13226608948003
20
276.4492745936492
30
2.446433722269603e-10
11
130.2386567158778
21
276.405148204828
31
2.446208124950999e-10
  0
LINE
 8
Layer0
10
128.24201651726543
20
272.49101996670765
30
2.446320923610301e-10
11
128.14383862405316
21
272.55124624718485
31
2.446320923610301e-10
  0
LINE
 8
Layer0
10
127.87157477015533
20
276.0313670425673
30
2.446208124950999e-10
11
127.9591920041299
21
276.10612882348755
31
2.446208124950999e-10
  0
LINE
 8
Layer0
10
127.28865881543538
20
273.6083096272066
30
2.446433722269603e-10
11
127.25026188860245
21
273.71689958800187
31
2.4465465209289047e-10
  0
LINE
 8
Layer0
10
127.1427788936247
20
379.39678671440686
30
2.445192937017282e-10
11
127.14584743588726
21
379.5119244042573
31
2.4454185343358855e-10
  0
LINE
 8
Layer0
10
127.17014785717387
20
274.74093014800724
30
2.446433722269603e-10
11
127.19119012350694
21
274.8541702760683
31
2.446320923610301e-10
  0
LINE
 8
Layer0
10
131.54290176330193
20
274.3947417406282
30
2.446433722269603e-10
11
131.53983322103937
21
274.2796040507777
31
2.446320923610301e-10
  0
LINE
 8
Layer0
10
131.18841065711175
20
380.59311222695624
30
2.445305735676584e-10
11
131.2485456413237
21
380.4948783873207
31
2.445305735676584e-10
  0
LINE
 8
Layer0
10
127.4983839018014
20
275.5948277232626
30
2.446433722269603e-10
11
127.56366587817755
21
275.68971906710465
31
2.446208124950999e-10
  0
LINE
 8
Layer0
10
127.19106677850138
20
379.8541700384042
30
2.4454185343358855e-10
11
127.21800673752693
21
379.9661537076754
31
2.445305735676584e-10
  0
LINE
 8
Layer0
10
130.89913649795704
20
380.95067576780184
30
2.445305735676584e-10
11
130.97838135217827
21
380.86709133949626
31
2.4454185343358855e-10
  0
LINE
 8
Layer0
10
127.16982791561603
20
274.05261857618797
30
2.446433722269603e-10
11
127.15484717611355
21
274.1668187557836
31
2.446320923610301e-10
  0
LINE
 8
Layer0
10
128.66209213094857
20
272.30375623907867
30
2.446320923610301e-10
11
128.55353791245219
21
272.34225409904997
31
2.446208124950999e-10
  0
LINE
 8
Layer0
10
131.39714518649683
20
275.18321906549255
30
2.446320923610301e-10
11
131.43554211332983
21
275.0746291046973
31
2.4465465209289047e-10
  0
LINE
 8
Layer0
10
128.66403724261843
20
276.48840445871326
30
2.446320923610301e-10
11
128.77448792452896
21
276.5210656044558
31
2.446208124950999e-10
  0
LINE
 8
Layer0
10
129.91131607740326
20
272.2704630882433
30
2.446320923610301e-10
11
129.79930741201912
21
272.2436272455212
31
2.446320923610301e-10
  0
LINE
 8
Layer0
10
129.22866076894022
20
381.5928023668554
30
2.445305735676584e-10
11
129.34380126168185
21
381.5957638710213
31
2.445305735676584e-10
  0
LINE
 8
Layer0
10
130.8978136600825
20
272.8394065043531
30
2.446208124950999e-10
11
130.81422923177686
21
272.76016165013186
31
2.446208124950999e-10
  0
LINE
 8
Layer0
10
129.1138330653946
20
381.583818933538
30
2.4455313329951876e-10
11
129.22866076894022
21
381.5928023668554
31
2.445305735676584e-10
  0
LINE
 8
Layer0
10
131.43478676323136
20
378.71495423866804
30
2.445305735676584e-10
11
131.3962889032602
21
378.60640002017163
31
2.445305735676584e-10
  0
LINE
 8
Layer0
10
131.51565614475822
20
274.0505985446919
30
2.4465465209289047e-10
11
131.49461387842527
21
273.9373584166309
31
2.4465465209289047e-10
  0
LINE
 8
Layer0
10
127.25089389369529
20
275.0765742163671
30
2.446320923610301e-10
11
127.28939175366644
21
275.1851284348635
31
2.446320923610301e-10
  0
LINE
 8
Layer0
10
130.02176675931378
20
272.3031242339859
30
2.446320923610301e-10
11
129.91131607740326
21
272.2704630882433
31
2.446320923610301e-10
  0
LINE
 8
Layer0
10
131.35228585944452
20
273.5000096314378
30
2.446208124950999e-10
11
131.30265188913768
21
273.3960742064504
31
2.446208124950999e-10
  0
LINE
 8
Layer0
10
128.14543053768978
20
381.2413961098368
30
2.4455313329951876e-10
11
128.24366437732542
21
381.3015310940487
31
2.4454185343358855e-10
  0
LINE
 8
Layer0
10
128.77448792452896
20
276.5210656044558
30
2.446208124950999e-10
11
128.886496589913
21
276.5479014471779
31
2.446208124950999e-10
  0
LINE
 8
Layer0
10
128.55544728182318
20
276.4500075318804
30
2.446208124950999e-10
11
128.66403724261843
21
276.48840445871326
31
2.446320923610301e-10
  0
LINE
 8
Layer0
10
129.11192240283975
20
272.2079233043061
30
2.446208124950999e-10
11
128.9977361993085
21
272.2230102025573
31
2.446320923610301e-10
  0
LINE
 8
Layer0
10
130.34076984412647
20
272.43508595161296
30
2.446320923610301e-10
11
130.23678832225437
21
272.3855486254346
31
2.446320923610301e-10
  0
LINE
 8
Layer0
10
131.05197938483917
20
273.01046492170036
30
2.446320923610301e-10
11
130.97713618361104
21
272.92291722723803
31
2.446320923610301e-10
  0
LINE
 8
Layer0
10
127.3333947974822
20
380.29151882359724
30
2.445305735676584e-10
11
127.38302876778896
21
380.3954542485846
31
2.445305735676584e-10
  0
LINE
 8
Layer0
10
130.23678832225437
20
272.3855486254346
30
2.446320923610301e-10
11
130.13035672010903
21
272.34152116081884
31
2.446320923610301e-10
  0
LINE
 8
Layer0
10
24.911815361414646
20
377.2704628505792
30
2.445982527632395e-10
11
24.79980669603052
21
377.2436270078571
31
2.4458697289730936e-10
  0
LINE
 8
Layer0
10
130.44201627960123
20
272.4899973609863
30
2.446433722269603e-10
11
130.34076984412647
21
272.43508595161296
31
2.446320923610301e-10
  0
LINE
 8
Layer0
10
131.303457050697
20
380.39363195184586
30
2.4454185343358855e-10
11
131.35299437687547
21
380.28965042997385
31
2.4455313329951876e-10
  0
LINE
 8
Layer0
10
131.0518560398336
20
378.0104646840363
30
2.4454185343358855e-10
11
130.97701283860548
21
377.92291698957393
31
2.4454185343358855e-10
  0
LINE
 8
Layer0
10
128.24366437732542
20
381.3015310940487
30
2.4454185343358855e-10
11
128.34491081280026
21
381.35644250342204
31
2.4454185343358855e-10
  0
LINE
 8
Layer0
10
130.13035672010903
20
272.34152116081884
30
2.446320923610301e-10
11
130.02176675931378
21
272.3031242339859
31
2.446320923610301e-10
  0
LINE
 8
Layer0
10
129.57184759153205
20
272.20770952149707
30
2.446433722269603e-10
11
129.4570198879864
21
272.19872608817974
31
2.446320923610301e-10
  0
LINE
 8
Layer0
10
128.77251240197617
20
272.2709924279159
30
2.446320923610301e-10
11
128.66209213094857
21
272.30375623907867
31
2.446320923610301e-10
  0
LINE
 8
Layer0
10
131.12213812375467
20
273.10180962559446
30
2.446320923610301e-10
11
131.05197938483917
21
273.01046492170036
31
2.446320923610301e-10
  0
LINE
 8
Layer0
10
128.44702394104883
20
377.38638025020714
30
2.445192937017282e-10
11
128.3430885160614
21
377.43601422051387
31
2.4454185343358855e-10
  0
LINE
 8
Layer0
10
129.91316825495045
20
381.5205360271192
30
2.445305735676584e-10
11
130.02358852597806
21
381.4877722159563
31
2.4454185343358855e-10
  0
LINE
 8
Layer0
10
25.7271112818137
20
377.68539963154745
30
2.445982527632395e-10
11
25.635701394918307
21
377.61532584077304
31
2.4458697289730936e-10
  0
LINE
 8
Layer0
10
127.78654415896959
20
272.84085268723305
30
2.446320923610301e-10
11
127.70729930474835
21
272.92443711553875
31
2.446320923610301e-10
  0
LINE
 8
Layer0
10
131.5397098760338
20
379.2796038131136
30
2.4454185343358855e-10
11
131.53061969800385
21
379.1647845105591
31
2.4454185343358855e-10
  0
LINE
 8
Layer0
10
128.99963288579895
20
381.5688381940356
30
2.445305735676584e-10
11
129.1138330653946
21
381.583818933538
31
2.4455313329951876e-10
  0
LINE
 8
Layer0
10
131.53095682581866
20
274.62470993691556
30
2.446208124950999e-10
11
131.53994025913593
21
274.50988223337
31
2.446433722269603e-10
  0
LINE
 8
Layer0
10
127.87005488185467
20
272.7615301637046
30
2.446320923610301e-10
11
127.78654415896959
21
272.84085268723305
31
2.446320923610301e-10
  0
LINE
 8
Layer0
10
130.02358852597806
20
381.4877722159563
30
2.4454185343358855e-10
11
130.13214274447446
21
381.44927435598515
31
2.4454185343358855e-10
  0
LINE
 8
Layer0
10
131.43491010823692
20
273.71495447633214
30
2.446208124950999e-10
11
131.39641224826576
21
273.60640025783573
31
2.446320923610301e-10
  0
LINE
 8
Layer0
10
130.13214274447446
20
381.44927435598515
30
2.4454185343358855e-10
11
130.23853337087223
21
381.4051479671639
31
2.445305735676584e-10
  0
LINE
 8
Layer0
10
127.38302876778896
20
380.3954542485846
30
2.445305735676584e-10
11
127.43803427631865
21
380.4966495923861
31
2.4454185343358855e-10
  0
LINE
 8
Layer0
10
130.97713618361104
20
272.92291722723803
30
2.446320923610301e-10
11
130.8978136600825
21
272.8394065043531
31
2.446208124950999e-10
  0
LINE
 8
Layer0
10
129.3418793952447
20
272.1957645840137
30
2.446208124950999e-10
11
129.22674170539426
21
272.19883312627627
31
2.446095326291697e-10
  0
LINE
 8
Layer0
10
131.51553279975266
20
379.0505983070279
30
2.4455313329951876e-10
11
131.49449053341968
21
378.9373581789668
31
2.4455313329951876e-10
  0
LINE
 8
Layer0
10
128.66391389761284
20
381.4884042210492
30
2.4454185343358855e-10
11
128.7743645795234
21
381.52106536679173
31
2.445305735676584e-10
  0
LINE
 8
Layer0
10
131.53981691413037
20
379.5098819957059
30
2.4454185343358855e-10
11
131.54277841829636
21
379.39474150296417
31
2.4454185343358855e-10
  0
LINE
 8
Layer0
10
131.53994025913593
20
274.50988223337
30
2.446433722269603e-10
11
131.54290176330193
21
274.3947417406282
31
2.446433722269603e-10
  0
LINE
 8
Layer0
10
130.7266119978023
20
272.6853998692115
30
2.446433722269603e-10
11
130.6352021109069
21
272.61532607843714
31
2.446320923610301e-10
  0
LINE
 8
Layer0
10
131.35299437687547
20
380.28965042997385
30
2.4455313329951876e-10
11
131.39702184149124
21
380.18321882782845
31
2.4454185343358855e-10
  0
LINE
 8
Layer0
10
131.53061969800385
20
379.1647845105591
30
2.4454185343358855e-10
11
131.51553279975266
21
379.0505983070279
31
2.4455313329951876e-10
  0
LINE
 8
Layer0
10
127.14584743588726
20
379.5119244042573
30
2.4454185343358855e-10
11
127.15493761391711
21
379.6267437068119
31
2.445305735676584e-10
  0
LINE
 8
Layer0
10
129.68794445761822
20
381.5685182524777
30
2.445305735676584e-10
11
129.8011845856793
21
381.5474759861446
31
2.4454185343358855e-10
  0
LINE
 8
Layer0
10
131.5158527413106
20
379.73890987884715
30
2.4455313329951876e-10
11
131.5308334808131
21
379.62470969925147
31
2.445305735676584e-10
  0
LINE
 8
Layer0
10
130.23853337087223
20
381.4051479671639
30
2.445305735676584e-10
11
130.34246879585965
21
381.35551399685704
31
2.4454185343358855e-10
  0
LINE
 8
Layer0
10
131.3962889032602
20
378.60640002017163
30
2.445305735676584e-10
11
131.35216251443896
21
378.5000093937738
31
2.445305735676584e-10
  0
LINE
 8
Layer0
10
131.1874201001308
20
273.1967009694365
30
2.446320923610301e-10
11
131.12213812375467
21
273.10180962559446
31
2.446320923610301e-10
  0
LINE
 8
Layer0
10
130.54025011923687
20
272.5501323451982
30
2.446320923610301e-10
11
130.44201627960123
21
272.4899973609863
31
2.446433722269603e-10
  0
LINE
 8
Layer0
10
129.79930741201912
20
272.2436272455212
30
2.446320923610301e-10
11
129.6860477711278
21
272.2226902609994
31
2.446433722269603e-10
  0
LINE
 8
Layer0
10
127.70729930474835
20
272.92443711553875
30
2.446320923610301e-10
11
127.63253752382808
21
273.01205434951333
31
2.446433722269603e-10
  0
LINE
 8
Layer0
10
127.56354253317198
20
380.68971882944055
30
2.445192937017282e-10
11
127.63370127208746
21
380.7810635333347
31
2.445305735676584e-10
  0
LINE
 8
Layer0
10
131.5308334808131
20
379.62470969925147
30
2.445305735676584e-10
11
131.53981691413037
21
379.5098819957059
31
2.4454185343358855e-10
  0
LINE
 8
Layer0
10
130.89769031507691
20
377.839406266689
30
2.445192937017282e-10
11
130.8141058867713
21
377.7601614124678
31
2.445305735676584e-10
  0
LINE
 8
Layer0
10
130.97701283860548
20
377.92291698957393
30
2.4454185343358855e-10
11
130.89769031507691
21
377.839406266689
31
2.445192937017282e-10
  0
LINE
 8
Layer0
10
130.54012677423128
20
377.5501321075342
30
2.4454185343358855e-10
11
130.44189293459564
21
377.4899971233222
31
2.4454185343358855e-10
  0
LINE
 8
Layer0
10
24.457519171997816
20
377.19872585051564
30
2.445982527632395e-10
11
24.342378679256093
21
377.1957643463496
31
2.4457569303137916e-10
  0
LINE
 8
Layer0
10
127.95747923131128
20
377.6866867248123
30
2.445305735676584e-10
11
127.8699315368491
21
377.7615299260405
31
2.445305735676584e-10
  0
LINE
 8
Layer0
10
25.8983129440939
20
377.839406266689
30
2.4457569303137916e-10
11
25.814728515788275
21
377.7601614124678
31
2.4458697289730936e-10
  0
LINE
 8
Layer0
10
130.4436641396612
20
381.30050848832735
30
2.445305735676584e-10
11
130.5418420328735
21
381.24028220785016
31
2.4455313329951876e-10
  0
LINE
 8
Layer0
10
127.95906865912434
20
381.1061285858235
30
2.445305735676584e-10
11
128.05047854601972
21
381.1762023765979
31
2.4454185343358855e-10
  0
LINE
 8
Layer0
10
127.16970457061046
20
379.05261833852387
30
2.4455313329951876e-10
11
127.15472383110799
21
379.16681851811956
31
2.445305735676584e-10
  0
LINE
 8
Layer0
10
131.35216251443896
20
378.5000093937738
30
2.445305735676584e-10
11
131.30252854413212
21
378.39607396878637
31
2.445305735676584e-10
  0
LINE
 8
Layer0
10
130.97838135217827
20
380.86709133949626
30
2.4454185343358855e-10
11
131.05314313309856
21
380.7794741055217
31
2.4454185343358855e-10
  0
LINE
 8
Layer0
10
129.8011845856793
20
381.5474759861446
30
2.4454185343358855e-10
11
129.91316825495045
21
381.5205360271192
31
2.445305735676584e-10
  0
LINE
 8
Layer0
10
24.574380883103853
20
381.5836051507289
30
2.445982527632395e-10
11
24.688567086635192
21
381.5685182524777
31
2.4458697289730936e-10
  0
LINE
 8
Layer0
10
128.99761285430293
20
377.22300996489327
30
2.4454185343358855e-10
11
128.88437272624176
21
377.2440522312264
31
2.4454185343358855e-10
  0
LINE
 8
Layer0
10
131.05314313309856
20
380.7794741055217
30
2.4454185343358855e-10
11
131.12321692387297
21
380.68806421862627
31
2.4455313329951876e-10
  0
LINE
 8
Layer0
10
25.130856004120425
20
377.34152092315475
30
2.445982527632395e-10
11
25.022266043325182
21
377.3031239963218
31
2.4458697289730936e-10
  0
LINE
 8
Layer0
10
129.45689654298084
20
377.19872585051564
30
2.4454185343358855e-10
11
129.34175605023913
21
377.1957643463496
31
2.445192937017282e-10
  0
LINE
 8
Layer0
10
128.7743645795234
20
381.52106536679173
30
2.445305735676584e-10
11
128.88637324490742
21
381.5479012095138
31
2.445305735676584e-10
  0
LINE
 8
Layer0
10
127.6324141788225
20
378.0120541118493
30
2.4455313329951876e-10
11
127.5623403880481
21
378.10346399874464
31
2.4455313329951876e-10
  0
LINE
 8
Layer0
10
127.38210026122395
20
378.3978962655252
30
2.445192937017282e-10
11
127.33256293504559
21
378.5018777873972
31
2.4455313329951876e-10
  0
LINE
 8
Layer0
10
26.052478668850576
20
378.0104646840363
30
2.445982527632395e-10
11
25.977635467622434
21
377.92291698957393
31
2.445982527632395e-10
  0
LINE
 8
Layer0
10
127.25013854359689
20
378.71689935033777
30
2.4455313329951876e-10
11
127.21747739785427
21
378.8273500322483
31
2.4454185343358855e-10
  0
LINE
 8
Layer0
10
127.19064155513229
20
378.93935869763243
30
2.445305735676584e-10
11
127.16970457061046
21
379.05261833852387
31
2.4455313329951876e-10
  0
LINE
 8
Layer0
10
128.44889233467217
20
381.4059798296005
30
2.4454185343358855e-10
11
128.55532393681762
21
381.4500072942163
31
2.445305735676584e-10
  0
LINE
 8
Layer0
10
131.12201477874908
20
378.10180938793036
30
2.4454185343358855e-10
11
131.0518560398336
21
378.0104646840363
31
2.4454185343358855e-10
  0
LINE
 8
Layer0
10
129.6860477711278
20
272.2226902609994
30
2.446433722269603e-10
11
129.57184759153205
21
272.20770952149707
31
2.446433722269603e-10
  0
LINE
 8
Layer0
10
129.57375825408687
20
381.5836051507289
30
2.4454185343358855e-10
11
129.68794445761822
21
381.5685182524777
31
2.445305735676584e-10
  0
LINE
 8
Layer0
10
129.34175605023913
20
377.1957643463496
30
2.445192937017282e-10
11
129.2266183603887
21
377.19883288861223
31
2.445192937017282e-10
  0
LINE
 8
Layer0
10
130.81562577507196
20
381.0299982913305
30
2.445305735676584e-10
11
130.89913649795704
21
380.95067576780184
31
2.445305735676584e-10
  0
LINE
 8
Layer0
10
130.5418420328735
20
381.24028220785016
30
2.4455313329951876e-10
11
130.63673337671554
21
381.1750002314741
31
2.4454185343358855e-10
  0
LINE
 8
Layer0
10
127.43803427631865
20
380.4966495923861
30
2.4454185343358855e-10
11
127.49826055679584
21
380.5948274855985
31
2.4455313329951876e-10
  0
LINE
 8
Layer0
10
131.39702184149124
20
380.18321882782845
30
2.4454185343358855e-10
11
131.43541876832427
21
380.07462886703325
31
2.4456441316544896e-10
  0
LINE
 8
Layer0
10
128.34491081280026
20
381.35644250342204
30
2.4454185343358855e-10
11
128.44889233467217
21
381.4059798296005
31
2.4454185343358855e-10
  0
LINE
 8
Layer0
10
128.88637324490742
20
381.5479012095138
30
2.445305735676584e-10
11
128.99963288579895
21
381.5688381940356
31
2.445305735676584e-10
  0
LINE
 8
Layer0
10
131.12321692387297
20
380.68806421862627
30
2.4455313329951876e-10
11
131.18841065711175
21
380.59311222695624
31
2.445305735676584e-10
  0
LINE
 8
Layer0
10
129.45893895153236
20
381.59269532875885
30
2.445192937017282e-10
11
129.57375825408687
21
381.5836051507289
31
2.4454185343358855e-10
  0
LINE
 8
Layer0
10
129.34380126168185
20
381.5957638710213
30
2.445305735676584e-10
11
129.45893895153236
21
381.59269532875885
31
2.445192937017282e-10
  0
LINE
 8
Layer0
10
131.30252854413212
20
378.39607396878637
30
2.445305735676584e-10
11
131.24752303560243
21
378.2948786249849
31
2.4454185343358855e-10
  0
LINE
 8
Layer0
10
24.112421686851157
20
377.2079230666421
30
2.4458697289730936e-10
11
23.998235483319903
21
377.22300996489327
31
2.445982527632395e-10
  0
LINE
 8
Layer0
10
131.54277841829636
20
379.39474150296417
30
2.4454185343358855e-10
11
131.5397098760338
21
379.2796038131136
31
2.4454185343358855e-10
  0
LINE
 8
Layer0
10
131.24752303560243
20
378.2948786249849
30
2.4454185343358855e-10
11
131.18729675512523
21
378.1967007317724
31
2.4454185343358855e-10
  0
LINE
 8
Layer0
10
128.88437272624176
20
377.2440522312264
30
2.4454185343358855e-10
11
128.7723890569706
21
377.2709921902519
31
2.445305735676584e-10
  0
LINE
 8
Layer0
10
25.022266043325182
20
377.3031239963218
30
2.4458697289730936e-10
11
24.911815361414646
21
377.2704628505792
31
2.445982527632395e-10
  0
LINE
 8
Layer0
10
127.28853547042982
20
378.60830938954257
30
2.4454185343358855e-10
11
127.25013854359689
21
378.71689935033777
31
2.4455313329951876e-10
  0
LINE
 8
Layer0
10
130.63673337671554
20
381.1750002314741
30
2.4454185343358855e-10
11
130.72807808060978
21
381.10484149255865
31
2.4454185343358855e-10
  0
LINE
 8
Layer0
10
127.87145142514976
20
381.0313668049032
30
2.445305735676584e-10
11
127.95906865912434
21
381.1061285858235
31
2.445305735676584e-10
  0
LINE
 8
Layer0
10
128.7723890569706
20
377.2709921902519
30
2.445305735676584e-10
11
128.661968785943
21
377.30375600141457
31
2.445305735676584e-10
  0
LINE
 8
Layer0
10
25.977635467622434
20
377.92291698957393
30
2.445982527632395e-10
11
25.8983129440939
21
377.839406266689
31
2.4457569303137916e-10
  0
LINE
 8
Layer0
10
128.05047854601972
20
381.1762023765979
30
2.4454185343358855e-10
11
128.14543053768978
21
381.2413961098368
31
2.4455313329951876e-10
  0
LINE
 8
Layer0
10
25.23728760626578
20
377.38554838777054
30
2.445982527632395e-10
11
25.130856004120425
21
377.34152092315475
31
2.445982527632395e-10
  0
LINE
 8
Layer0
10
131.49491575678877
20
379.8521695197386
30
2.4454185343358855e-10
11
131.5158527413106
21
379.73890987884715
31
2.4455313329951876e-10
  0
LINE
 8
Layer0
10
127.5623403880481
20
378.10346399874464
30
2.4455313329951876e-10
11
127.49714665480931
21
378.19841599041473
31
2.4454185343358855e-10
  0
LINE
 8
Layer0
10
131.4680799140668
20
379.9641781851227
30
2.445192937017282e-10
11
131.49491575678877
21
379.8521695197386
31
2.4454185343358855e-10
  0
LINE
 8
Layer0
10
127.7085444733156
20
380.8686112277969
30
2.4454185343358855e-10
11
127.78786699684414
21
380.952121950682
31
2.445305735676584e-10
  0
LINE
 8
Layer0
10
128.1437152790476
20
377.55124600952075
30
2.445305735676584e-10
11
128.04882393520543
21
377.61652798589694
31
2.4454185343358855e-10
  0
LINE
 8
Layer0
10
25.635701394918307
20
377.61532584077304
30
2.4458697289730936e-10
11
25.540749403248263
21
377.5501321075342
31
2.445982527632395e-10
  0
LINE
 8
Layer0
10
131.2485456413237
20
380.4948783873207
30
2.445305735676584e-10
11
131.303457050697
21
380.39363195184586
31
2.4454185343358855e-10
  0
LINE
 8
Layer0
10
131.18729675512523
20
378.1967007317724
30
2.4454185343358855e-10
11
131.12201477874908
21
378.10180938793036
31
2.4454185343358855e-10
  0
LINE
 8
Layer0
10
23.554037196463575
20
377.34225386138587
30
2.4457569303137916e-10
11
23.4476465700658
21
377.38638025020714
31
2.4457569303137916e-10
  0
LINE
 8
Layer0
10
26.468702543083776
20
379.9641781851227
30
2.4457569303137916e-10
11
26.49553838580575
21
379.8521695197386
31
2.445982527632395e-10
  0
LINE
 8
Layer0
10
127.70717595974278
20
377.9244368778747
30
2.445305735676584e-10
11
127.6324141788225
21
378.0120541118493
31
2.4455313329951876e-10
  0
LINE
 8
Layer0
10
22.78848962586111
20
380.952121950682
30
2.4458697289730936e-10
11
22.872074054166735
21
381.0313668049032
31
2.4457569303137916e-10
  0
LINE
 8
Layer0
10
24.22928339795719
20
381.5928023668554
30
2.4458697289730936e-10
11
24.344423890698824
21
381.5957638710213
31
2.4458697289730936e-10
  0
LINE
 8
Layer0
10
26.352785143455925
20
378.5000093937738
30
2.4458697289730936e-10
11
26.303151173149082
21
378.39607396878637
31
2.4457569303137916e-10
  0
LINE
 8
Layer0
10
22.143401522641664
20
379.39678671440686
30
2.4457569303137916e-10
11
22.146470064904236
21
379.5119244042573
31
2.4458697289730936e-10
  0
LINE
 8
Layer0
10
129.57172424652646
20
377.207709283833
30
2.4454185343358855e-10
11
129.45689654298084
21
377.19872585051564
31
2.4454185343358855e-10
  0
LINE
 8
Layer0
10
22.438656905335623
20
380.4966495923861
30
2.445982527632395e-10
11
22.49888318581281
21
380.5948274855985
31
2.446095326291697e-10
  0
LINE
 8
Layer0
10
128.55532393681762
20
381.4500072942163
30
2.445305735676584e-10
11
128.66391389761284
21
381.4884042210492
31
2.4454185343358855e-10
  0
LINE
 8
Layer0
10
23.55594656583458
20
381.4500072942163
30
2.4458697289730936e-10
11
23.664536526629824
21
381.4884042210492
31
2.445982527632395e-10
  0
LINE
 8
Layer0
10
24.000255514815915
20
381.5688381940356
30
2.4458697289730936e-10
11
24.114455694411568
21
381.583818933538
31
2.446095326291697e-10
  0
LINE
 8
Layer0
10
23.34371114507839
20
377.43601422051387
30
2.445982527632395e-10
11
23.242515801276834
21
377.4910197290436
31
2.445982527632395e-10
  0
LINE
 8
Layer0
10
22.70916710233257
20
380.8686112277969
30
2.445982527632395e-10
11
22.78848962586111
21
380.952121950682
31
2.4458697289730936e-10
  0
LINE
 8
Layer0
10
25.34126912813787
20
377.4350857139489
30
2.4458697289730936e-10
11
25.23728760626578
21
377.38554838777054
31
2.445982527632395e-10
  0
LINE
 8
Layer0
10
23.242515801276834
20
377.4910197290436
30
2.445982527632395e-10
11
23.144337908064557
21
377.55124600952075
31
2.4458697289730936e-10
  0
LINE
 8
Layer0
10
127.78786699684414
20
380.952121950682
30
2.445305735676584e-10
11
127.87145142514976
21
381.0313668049032
31
2.445305735676584e-10
  0
LINE
 8
Layer0
10
24.342378679256093
20
377.1957643463496
30
2.4457569303137916e-10
11
24.227240989405665
21
377.19883288861223
31
2.4457569303137916e-10
  0
LINE
 8
Layer0
10
24.114455694411568
20
381.583818933538
30
2.446095326291697e-10
11
24.22928339795719
21
381.5928023668554
31
2.4458697289730936e-10
  0
LINE
 8
Layer0
10
23.449514963689136
20
381.4059798296005
30
2.445982527632395e-10
11
23.55594656583458
21
381.4500072942163
31
2.4458697289730936e-10
  0
LINE
 8
Layer0
10
22.17032719962743
20
379.05261833852387
30
2.445982527632395e-10
11
22.15534646012495
21
379.16681851811956
31
2.4458697289730936e-10
  0
LINE
 8
Layer0
10
130.13023337510344
20
377.34152092315475
30
2.4454185343358855e-10
11
130.02164341430822
21
377.3031239963218
31
2.445305735676584e-10
  0
LINE
 8
Layer0
10
22.155560242934087
20
379.6267437068119
30
2.4458697289730936e-10
11
22.17064714118528
21
379.74092991034314
31
2.445982527632395e-10
  0
LINE
 8
Layer0
10
24.227240989405665
20
377.19883288861223
30
2.4457569303137916e-10
11
24.112421686851157
21
377.2079230666421
31
2.4458697289730936e-10
  0
LINE
 8
Layer0
10
129.1117990578342
20
377.2079230666421
30
2.445305735676584e-10
11
128.99761285430293
21
377.22300996489327
31
2.4454185343358855e-10
  0
LINE
 8
Layer0
10
24.686547055139183
20
377.2226900233353
30
2.446095326291697e-10
11
24.572346875543438
21
377.207709283833
31
2.445982527632395e-10
  0
LINE
 8
Layer0
10
25.442515563612627
20
377.4899971233222
30
2.445982527632395e-10
11
25.34126912813787
21
377.4350857139489
31
2.4458697289730936e-10
  0
LINE
 8
Layer0
10
127.49714665480931
20
378.19841599041473
30
2.4454185343358855e-10
11
127.43701167059729
21
378.29664983005034
31
2.445305735676584e-10
  0
LINE
 8
Layer0
10
127.8699315368491
20
377.7615299260405
30
2.445305735676584e-10
11
127.78642081396403
21
377.840852449569
31
2.4454185343358855e-10
  0
LINE
 8
Layer0
10
129.6859244261222
20
377.2226900233353
30
2.4455313329951876e-10
11
129.57172424652646
21
377.207709283833
31
2.4454185343358855e-10
  0
LINE
 8
Layer0
10
127.43701167059729
20
378.29664983005034
30
2.445305735676584e-10
11
127.38210026122395
21
378.3978962655252
31
2.445192937017282e-10
  0
LINE
 8
Layer0
10
22.562963017065062
20
378.10346399874464
30
2.446095326291697e-10
11
22.497769283826283
21
378.19841599041473
31
2.445982527632395e-10
  0
LINE
 8
Layer0
10
26.187919384142194
20
378.1967007317724
30
2.445982527632395e-10
11
26.122637407766057
21
378.10180938793036
31
2.445982527632395e-10
  0
LINE
 8
Layer0
10
130.63507876590134
20
377.61532584077304
30
2.445305735676584e-10
11
130.54012677423128
21
377.5501321075342
31
2.4454185343358855e-10
  0
LINE
 8
Layer0
10
129.79918406701356
20
377.2436270078571
30
2.445305735676584e-10
11
129.6859244261222
21
377.2226900233353
31
2.4455313329951876e-10
  0
LINE
 8
Layer0
10
130.8141058867713
20
377.7601614124678
30
2.445305735676584e-10
11
130.72648865279672
21
377.68539963154745
31
2.4454185343358855e-10
  0
LINE
 8
Layer0
10
22.787043442980995
20
377.840852449569
30
2.4458697289730936e-10
11
22.70779858875975
21
377.9244368778747
31
2.4458697289730936e-10
  0
LINE
 8
Layer0
10
127.78642081396403
20
377.840852449569
30
2.4454185343358855e-10
11
127.70717595974278
21
377.9244368778747
31
2.445305735676584e-10
  0
LINE
 8
Layer0
10
127.21747739785427
20
378.8273500322483
30
2.4454185343358855e-10
11
127.19064155513229
21
378.93935869763243
31
2.445305735676584e-10
  0
LINE
 8
Layer0
10
23.998235483319903
20
377.22300996489327
30
2.445982527632395e-10
11
23.884995355258745
21
377.2440522312264
31
2.445982527632395e-10
  0
LINE
 8
Layer0
10
127.63370127208746
20
380.7810635333347
30
2.445305735676584e-10
11
127.7085444733156
21
380.8686112277969
31
2.4454185343358855e-10
  0
LINE
 8
Layer0
10
130.3406464991209
20
377.4350857139489
30
2.445305735676584e-10
11
130.2366649772488
21
377.38554838777054
31
2.4454185343358855e-10
  0
LINE
 8
Layer0
10
22.872074054166735
20
381.0313668049032
30
2.4457569303137916e-10
11
22.95969128814131
21
381.1061285858235
31
2.4458697289730936e-10
  0
LINE
 8
Layer0
10
24.688567086635192
20
381.5685182524777
30
2.4458697289730936e-10
11
24.80180721469626
21
381.5474759861446
31
2.445982527632395e-10
  0
LINE
 8
Layer0
10
130.72807808060978
20
381.10484149255865
30
2.4454185343358855e-10
11
130.81562577507196
21
381.0299982913305
31
2.445305735676584e-10
  0
LINE
 8
Layer0
10
128.661968785943
20
377.30375600141457
30
2.445305735676584e-10
11
128.5534145674466
21
377.34225386138587
31
2.445305735676584e-10
  0
LINE
 8
Layer0
10
26.122637407766057
20
378.10180938793036
30
2.445982527632395e-10
11
26.052478668850576
21
378.0104646840363
31
2.445982527632395e-10
  0
LINE
 8
Layer0
10
22.15534646012495
20
379.16681851811956
30
2.4458697289730936e-10
11
22.146363026807673
21
379.28164622166514
31
2.4458697289730936e-10
  0
LINE
 8
Layer0
10
128.04882393520543
20
377.61652798589694
30
2.4454185343358855e-10
11
127.95747923131128
21
377.6866867248123
31
2.445305735676584e-10
  0
LINE
 8
Layer0
10
22.146363026807673
20
379.28164622166514
30
2.4458697289730936e-10
11
22.143401522641664
21
379.39678671440686
31
2.4457569303137916e-10
  0
LINE
 8
Layer0
10
128.3430885160614
20
377.43601422051387
30
2.4454185343358855e-10
11
128.24189317225986
21
377.4910197290436
31
2.4454185343358855e-10
  0
LINE
 8
Layer0
10
22.437634299614256
20
378.29664983005034
30
2.4458697289730936e-10
11
22.382722890240927
21
378.3978962655252
31
2.4457569303137916e-10
  0
LINE
 8
Layer0
10
25.34309142487662
20
381.35551399685704
30
2.4458697289730936e-10
11
25.44428676867817
21
381.30050848832735
31
2.4458697289730936e-10
  0
LINE
 8
Layer0
10
25.814728515788275
20
377.7601614124678
30
2.4458697289730936e-10
11
25.7271112818137
21
377.68539963154745
31
2.445982527632395e-10
  0
LINE
 8
Layer0
10
128.24189317225986
20
377.4910197290436
30
2.4454185343358855e-10
11
128.1437152790476
21
377.55124600952075
31
2.445305735676584e-10
  0
LINE
 8
Layer0
10
24.79980669603052
20
377.2436270078571
30
2.4458697289730936e-10
11
24.686547055139183
21
377.2226900233353
31
2.446095326291697e-10
  0
LINE
 8
Layer0
10
22.70779858875975
20
377.9244368778747
30
2.4458697289730936e-10
11
22.633036807839474
21
378.0120541118493
31
2.446095326291697e-10
  0
LINE
 8
Layer0
10
129.2266183603887
20
377.19883288861223
30
2.445192937017282e-10
11
129.1117990578342
21
377.2079230666421
31
2.445305735676584e-10
  0
LINE
 8
Layer0
10
130.72648865279672
20
377.68539963154745
30
2.4454185343358855e-10
11
130.63507876590134
21
377.61532584077304
31
2.445305735676584e-10
  0
LINE
 8
Layer0
10
25.54246466189045
20
381.24028220785016
30
2.445982527632395e-10
11
25.637356005732507
21
381.1750002314741
31
2.445982527632395e-10
  0
LINE
 8
Layer0
10
25.637356005732507
20
381.1750002314741
30
2.445982527632395e-10
11
25.72870070962676
21
381.10484149255865
31
2.445982527632395e-10
  0
LINE
 8
Layer0
10
24.459561580549344
20
381.59269532875885
30
2.4457569303137916e-10
11
24.574380883103853
21
381.5836051507289
31
2.445982527632395e-10
  0
LINE
 8
Layer0
10
22.289158099446787
20
378.60830938954257
30
2.445982527632395e-10
11
22.250761172613856
21
378.71689935033777
31
2.446095326291697e-10
  0
LINE
 8
Layer0
10
22.382722890240927
20
378.3978962655252
30
2.4457569303137916e-10
11
22.333185564062557
21
378.5018777873972
31
2.446095326291697e-10
  0
LINE
 8
Layer0
10
22.28989103767784
20
380.1851281971994
30
2.445982527632395e-10
11
22.33401742649917
21
380.29151882359724
31
2.4458697289730936e-10
  0
LINE
 8
Layer0
10
26.53124232702083
20
379.1647845105591
30
2.445982527632395e-10
11
26.516155428769636
21
379.0505983070279
31
2.446095326291697e-10
  0
LINE
 8
Layer0
10
80.34277889361053
20
327.3957643463496
30
2.372184004784117e-10
11
80.34277889361053
21
332.39576434634955
31
2.372184004784117e-10
  0
LINE
 8
Layer0
10
25.44428676867817
20
381.30050848832735
30
2.4458697289730936e-10
11
25.54246466189045
21
381.24028220785016
31
2.445982527632395e-10
  0
LINE
 8
Layer0
10
22.49888318581281
20
380.5948274855985
30
2.446095326291697e-10
11
22.56416516218895
21
380.68971882944055
31
2.4457569303137916e-10
  0
LINE
 8
Layer0
10
22.95969128814131
20
381.1061285858235
30
2.4458697289730936e-10
11
23.0511011750367
21
381.1762023765979
31
2.445982527632395e-10
  0
LINE
 8
Layer0
10
13.84277889362461
20
229.89576434634955
30
2.4460389269620464e-10
11
13.84277889362461
21
220.89576434634958
31
2.446490121599254e-10
  0
LINE
 8
Layer0
10
23.66259141495998
20
377.30375600141457
30
2.4458697289730936e-10
11
23.554037196463575
21
377.34225386138587
31
2.4457569303137916e-10
  0
LINE
 8
Layer0
10
23.8869958739244
20
381.5479012095138
30
2.4458697289730936e-10
11
24.000255514815915
21
381.5688381940356
31
2.4458697289730936e-10
  0
LINE
 8
Layer0
10
99.34277889361049
20
332.39576434634955
30
2.3744681776349805e-10
11
101.34277889361049
21
332.39576434634955
31
2.3746937749535846e-10
  0
LINE
 8
Layer0
10
51.34277889362461
20
357.89576434634944
30
2.445305735676584e-10
11
51.34277889362461
21
359.89576434634944
31
2.445305735676584e-10
  0
LINE
 8
Layer0
10
25.72870070962676
20
381.10484149255865
30
2.445982527632395e-10
11
25.816248404088935
21
381.0299982913305
31
2.4458697289730936e-10
  0
LINE
 8
Layer0
10
22.146470064904236
20
379.5119244042573
30
2.4458697289730936e-10
11
22.155560242934087
21
379.6267437068119
31
2.4458697289730936e-10
  0
LINE
 8
Layer0
10
25.979003981195255
20
380.86709133949626
30
2.445982527632395e-10
11
26.053765762115532
21
380.7794741055217
31
2.445982527632395e-10
  0
LINE
 8
Layer0
10
26.249168270340657
20
380.4948783873207
30
2.4458697289730936e-10
11
26.30407967971399
21
380.39363195184586
31
2.445982527632395e-10
  0
LINE
 8
Layer0
10
119.34277889362463
20
227.89576434634958
30
2.4460389269620464e-10
11
78.34277889362461
21
227.89576434634958
31
2.4460389269620464e-10
  0
LINE
 8
Layer0
10
25.13276537349143
20
381.44927435598515
30
2.445982527632395e-10
11
25.239155999889206
21
381.4051479671639
31
2.4458697289730936e-10
  0
LINE
 8
Layer0
10
26.43604139734124
20
380.07462886703325
30
2.446208124950999e-10
11
26.468702543083776
21
379.9641781851227
31
2.4457569303137916e-10
  0
LINE
 8
Layer0
10
26.516155428769636
20
379.0505983070279
30
2.446095326291697e-10
11
26.49511316243666
21
378.9373581789668
31
2.446095326291697e-10
  0
LINE
 8
Layer0
10
24.913790883967426
20
381.5205360271192
30
2.4458697289730936e-10
11
25.024211154995026
21
381.4877722159563
31
2.445982527632395e-10
  0
LINE
 8
Layer0
10
92.3427788936105
20
325.3957643463496
30
2.373622187690216e-10
11
92.3427788936105
21
327.3957643463496
31
2.373622187690216e-10
  0
LINE
 8
Layer0
10
26.30407967971399
20
380.39363195184586
30
2.445982527632395e-10
11
26.35361700589245
21
380.28965042997385
31
2.446095326291697e-10
  0
LINE
 8
Layer0
10
22.56416516218895
20
380.68971882944055
30
2.4457569303137916e-10
11
22.63432390110443
21
380.7810635333347
31
2.4458697289730936e-10
  0
LINE
 8
Layer0
10
129.91119273239767
20
377.2704628505792
30
2.4454185343358855e-10
11
129.79918406701356
21
377.2436270078571
31
2.445305735676584e-10
  0
LINE
 8
Layer0
10
22.17064714118528
20
379.74092991034314
30
2.445982527632395e-10
11
22.191689407518346
21
379.8541700384042
31
2.445982527632395e-10
  0
LINE
 8
Layer0
10
25.540749403248263
20
377.5501321075342
30
2.445982527632395e-10
11
25.442515563612627
21
377.4899971233222
31
2.445982527632395e-10
  0
LINE
 8
Layer0
10
26.540439543147333
20
379.5098819957059
30
2.445982527632395e-10
11
26.543401047313342
21
379.39474150296417
31
2.445982527632395e-10
  0
LINE
 8
Layer0
10
23.04944656422241
20
377.61652798589694
30
2.445982527632395e-10
11
22.95810186032825
21
377.6866867248123
31
2.4458697289730936e-10
  0
LINE
 8
Layer0
10
22.633036807839474
20
378.0120541118493
30
2.446095326291697e-10
11
22.562963017065062
21
378.10346399874464
31
2.446095326291697e-10
  0
LINE
 8
Layer0
10
24.344423890698824
20
381.5957638710213
30
2.4458697289730936e-10
11
24.459561580549344
21
381.59269532875885
31
2.4457569303137916e-10
  0
LINE
 8
Layer0
10
130.2366649772488
20
377.38554838777054
30
2.4454185343358855e-10
11
130.13023337510344
21
377.34152092315475
31
2.4454185343358855e-10
  0
LINE
 8
Layer0
10
26.49553838580575
20
379.8521695197386
30
2.445982527632395e-10
11
26.51647537032758
21
379.73890987884715
31
2.446095326291697e-10
  0
LINE
 8
Layer0
10
22.21810002687123
20
378.8273500322483
30
2.445982527632395e-10
11
22.191264184149254
21
378.93935869763243
31
2.4458697289730936e-10
  0
LINE
 8
Layer0
10
23.345533441817228
20
381.35644250342204
30
2.445982527632395e-10
11
23.449514963689136
21
381.4059798296005
31
2.445982527632395e-10
  0
LINE
 8
Layer0
10
22.383651396805924
20
380.3954542485846
30
2.4458697289730936e-10
11
22.438656905335623
21
380.4966495923861
31
2.445982527632395e-10
  0
LINE
 8
Layer0
10
22.251393177706692
20
380.076573978703
30
2.4458697289730936e-10
11
22.28989103767784
21
380.1851281971994
31
2.445982527632395e-10
  0
LINE
 8
Layer0
10
23.664536526629824
20
381.4884042210492
30
2.445982527632395e-10
11
23.77498720854036
21
381.52106536679173
31
2.4458697289730936e-10
  0
LINE
 8
Layer0
10
23.77301168598758
20
377.2709921902519
30
2.4458697289730936e-10
11
23.66259141495998
21
377.30375600141457
31
2.4458697289730936e-10
  0
LINE
 8
Layer0
10
130.02164341430822
20
377.3031239963218
30
2.445305735676584e-10
11
129.91119273239767
21
377.2704628505792
31
2.4454185343358855e-10
  0
LINE
 8
Layer0
10
23.0511011750367
20
381.1762023765979
30
2.445982527632395e-10
11
23.146053166706743
21
381.2413961098368
31
2.446095326291697e-10
  0
LINE
 8
Layer0
10
128.5534145674466
20
377.34225386138587
30
2.445305735676584e-10
11
128.44702394104883
21
377.38638025020714
31
2.445192937017282e-10
  0
LINE
 8
Layer0
10
22.218629366543897
20
379.9661537076754
30
2.4458697289730936e-10
11
22.251393177706692
21
380.076573978703
31
2.4458697289730936e-10
  0
LINE
 8
Layer0
10
24.572346875543438
20
377.207709283833
30
2.445982527632395e-10
11
24.457519171997816
21
377.19872585051564
31
2.445982527632395e-10
  0
LINE
 8
Layer0
10
26.053765762115532
20
380.7794741055217
30
2.445982527632395e-10
11
26.123839552889944
21
380.68806421862627
31
2.445982527632395e-10
  0
LINE
 8
Layer0
10
26.51647537032758
20
379.73890987884715
30
2.446095326291697e-10
11
26.531456109830057
21
379.62470969925147
31
2.4458697289730936e-10
  0
LINE
 8
Layer0
10
25.239155999889206
20
381.4051479671639
30
2.4458697289730936e-10
11
25.34309142487662
21
381.35551399685704
31
2.4458697289730936e-10
  0
LINE
 8
Layer0
10
130.44189293459564
20
377.4899971233222
30
2.4454185343358855e-10
11
130.3406464991209
21
377.4350857139489
31
2.445305735676584e-10
  0
LINE
 8
Layer0
10
22.333185564062557
20
378.5018777873972
30
2.446095326291697e-10
11
22.289158099446787
21
378.60830938954257
31
2.445982527632395e-10
  0
LINE
 8
Layer0
10
24.80180721469626
20
381.5474759861446
30
2.445982527632395e-10
11
24.913790883967426
21
381.5205360271192
31
2.4458697289730936e-10
  0
LINE
 8
Layer0
10
23.24428700634238
20
381.3015310940487
30
2.445982527632395e-10
11
23.345533441817228
21
381.35644250342204
31
2.445982527632395e-10
  0
LINE
 8
Layer0
10
23.144337908064557
20
377.55124600952075
30
2.4458697289730936e-10
11
23.04944656422241
21
377.61652798589694
31
2.445982527632395e-10
  0
LINE
 8
Layer0
10
22.497769283826283
20
378.19841599041473
30
2.445982527632395e-10
11
22.437634299614256
21
378.29664983005034
31
2.4458697289730936e-10
  0
LINE
 8
Layer0
10
26.531456109830057
20
379.62470969925147
30
2.4458697289730936e-10
11
26.540439543147333
21
379.5098819957059
31
2.445982527632395e-10
  0
LINE
 8
Layer0
10
26.49511316243666
20
378.9373581789668
30
2.446095326291697e-10
11
26.46817320341111
21
378.8253745096956
31
2.4458697289730936e-10
  0
LINE
 8
Layer0
10
22.33401742649917
20
380.29151882359724
30
2.4458697289730936e-10
11
22.383651396805924
21
380.3954542485846
31
2.4458697289730936e-10
  0
LINE
 8
Layer0
10
26.303151173149082
20
378.39607396878637
30
2.4457569303137916e-10
11
26.248145664619386
21
378.2948786249849
31
2.445982527632395e-10
  0
LINE
 8
Layer0
10
23.77498720854036
20
381.52106536679173
30
2.4458697289730936e-10
11
23.8869958739244
21
381.5479012095138
31
2.4458697289730936e-10
  0
LINE
 8
Layer0
10
22.191689407518346
20
379.8541700384042
30
2.445982527632395e-10
11
22.218629366543897
21
379.9661537076754
31
2.4458697289730936e-10
  0
LINE
 8
Layer0
10
26.543401047313342
20
379.39474150296417
30
2.445982527632395e-10
11
26.54033250505077
21
379.2796038131136
31
2.4458697289730936e-10
  0
LINE
 8
Layer0
10
26.54033250505077
20
379.2796038131136
30
2.4458697289730936e-10
11
26.53124232702083
21
379.1647845105591
31
2.445982527632395e-10
  0
LINE
 8
Layer0
10
58.3427788936246
20
357.89576434634944
30
2.445305735676584e-10
11
51.34277889362461
21
357.89576434634944
31
2.445305735676584e-10
  0
LINE
 8
Layer0
10
37.34277889362459
20
201.89576434634958
30
2.4460389269620464e-10
11
78.34277889362461
21
201.89576434634958
31
2.4460389269620464e-10
  0
LINE
 8
Layer0
10
15.842778893624606
20
220.89576434634958
30
2.446490121599254e-10
11
15.842778893624606
21
206.8957643463496
31
2.446067126626872e-10
  0
LINE
 8
Layer0
10
183.84277889362463
20
229.89576434634955
30
2.4460389269620464e-10
11
183.84277889362463
21
220.89576434634958
31
2.446490121599254e-10
  0
LINE
 8
Layer0
10
78.34277889362461
20
231.8957643463496
30
2.4458133296434424e-10
11
13.84277889362461
21
231.8957643463496
31
2.4460389269620464e-10
  0
LINE
 8
Layer0
10
56.3427788936246
20
364.89576434634944
30
2.445305735676584e-10
11
58.3427788936246
21
364.89576434634944
31
2.445305735676584e-10
  0
LINE
 8
Layer0
10
26.35361700589245
20
380.28965042997385
30
2.446095326291697e-10
11
26.39764447050822
21
380.18321882782845
31
2.445982527632395e-10
  0
LINE
 8
Layer0
10
56.3427788936246
20
359.89576434634944
30
2.445305735676584e-10
11
56.3427788936246
21
364.89576434634944
31
2.445305735676584e-10
  0
LINE
 8
Layer0
10
26.435409392248314
20
378.71495423866804
30
2.4458697289730936e-10
11
26.396911532277166
21
378.60640002017163
31
2.4458697289730936e-10
  0
LINE
 8
Layer0
10
80.34277889361053
20
332.39576434634955
30
2.372184004784117e-10
11
78.34277889361049
21
332.39576434634955
31
2.371958407465513e-10
  0
LINE
 8
Layer0
10
141.8427788936246
20
221.89576434634958
30
2.446490121599254e-10
11
141.8427788936246
21
225.89576434634958
31
2.4460389269620464e-10
  0
LINE
 8
Layer0
10
15.842778893624606
20
206.8957643463496
30
2.446067126626872e-10
11
13.84277889362461
21
206.8957643463496
31
2.446067126626872e-10
  0
LINE
 8
Layer0
10
78.34277889362461
20
199.8957643463496
30
2.4460389269620464e-10
11
119.34277889362463
21
199.8957643463496
31
2.4460389269620464e-10
  0
LINE
 8
Layer0
10
160.34277889362454
20
201.89576434634958
30
2.4460389269620464e-10
11
160.34277889362454
21
199.8957643463496
31
2.4460389269620464e-10
  0
LINE
 8
Layer0
10
77.34277889361049
20
311.39576434634955
30
2.409915156320608e-10
11
77.34277889361049
21
318.39576434634955
31
2.409915156320608e-10
  0
LINE
 8
Layer0
10
139.8427788936246
20
221.89576434634958
30
2.446490121599254e-10
11
141.8427788936246
21
221.89576434634958
31
2.446490121599254e-10
  0
LINE
 8
Layer0
10
25.89975912697401
20
380.95067576780184
30
2.4458697289730936e-10
11
25.979003981195255
21
380.86709133949626
31
2.445982527632395e-10
  0
LINE
 8
Layer0
10
99.34277889361049
20
327.3957643463496
30
2.3744681776349805e-10
11
99.34277889361049
21
325.3957643463496
31
2.3744681776349805e-10
  0
LINE
 8
Layer0
10
183.84277889362463
20
206.8957643463496
30
2.446067126626872e-10
11
183.84277889362463
21
199.8957643463496
31
2.4460389269620464e-10
  0
LINE
 8
Layer0
10
139.8427788936246
20
225.89576434634958
30
2.4460389269620464e-10
11
139.8427788936246
21
221.89576434634958
31
2.446490121599254e-10
  0
LINE
 8
Layer0
10
13.84277889362461
20
220.89576434634958
30
2.446490121599254e-10
11
15.842778893624606
21
220.89576434634958
31
2.446490121599254e-10
  0
LINE
 8
Layer0
10
22.95810186032825
20
377.6866867248123
30
2.4458697289730936e-10
11
22.87055416586607
21
377.7615299260405
31
2.4458697289730936e-10
  0
LINE
 8
Layer0
10
141.8427788936246
20
225.89576434634958
30
2.4460389269620464e-10
11
139.8427788936246
21
225.89576434634958
31
2.4460389269620464e-10
  0
LINE
 8
Layer0
10
160.34277889362454
20
199.8957643463496
30
2.4460389269620464e-10
11
183.84277889362463
21
199.8957643463496
31
2.4460389269620464e-10
  0
LINE
 8
Layer0
10
13.84277889362461
20
199.8957643463496
30
2.4460389269620464e-10
11
37.34277889362459
21
199.8957643463496
31
2.4460389269620464e-10
  0
LINE
 8
Layer0
10
42.34277889362458
20
359.89576434634944
30
2.445305735676584e-10
11
42.34277889362458
21
357.89576434634944
31
2.445305735676584e-10
  0
LINE
 8
Layer0
10
25.024211154995026
20
381.4877722159563
30
2.445982527632395e-10
11
25.13276537349143
21
381.44927435598515
31
2.445982527632395e-10
  0
LINE
 8
Layer0
10
23.884995355258745
20
377.2440522312264
30
2.445982527632395e-10
11
23.77301168598758
21
377.2709921902519
31
2.4458697289730936e-10
  0
LINE
 8
Layer0
10
25.816248404088935
20
381.0299982913305
30
2.4458697289730936e-10
11
25.89975912697401
21
380.95067576780184
31
2.4458697289730936e-10
  0
LINE
 8
Layer0
10
99.34277889361049
20
325.3957643463496
30
2.3744681776349805e-10
11
92.3427788936105
21
325.3957643463496
31
2.373622187690216e-10
  0
LINE
 8
Layer0
10
106.25553587953421
20
328.3257206879363
30
2.3746937749535846e-10
11
126.25553587953426
21
328.3257206879363
31
2.3746937749535846e-10
  0
LINE
 8
Layer0
10
126.25553587953426
20
308.3257206879363
30
2.3746937749535846e-10
11
106.25553587953421
21
308.3257206879363
31
2.3746937749535846e-10
  0
LINE
 8
Layer0
10
181.84277889362463
20
220.89576434634958
30
2.446490121599254e-10
11
181.84277889362463
21
206.8957643463496
31
2.446067126626872e-10
  0
LINE
 8
Layer0
10
78.34277889361049
20
337.39576434634955
30
2.371958407465513e-10
11
99.34277889361049
21
337.39576434634955
31
2.3744681776349805e-10
  0
LINE
 8
Layer0
10
58.3427788936246
20
359.89576434634944
30
2.445305735676584e-10
11
58.3427788936246
21
357.89576434634944
31
2.445305735676584e-10
  0
LINE
 8
Layer0
10
78.34277889362461
20
229.89576434634955
30
2.4460389269620464e-10
11
13.84277889362461
21
229.89576434634955
31
2.4460389269620464e-10
  0
LINE
 8
Layer0
10
119.34277889362463
20
233.8957643463496
30
2.4458133296434424e-10
11
78.34277889362461
21
233.8957643463496
31
2.4458133296434424e-10
  0
LINE
 8
Layer0
10
61.342778893622516
20
284.8957643463741
30
2.37503217093149e-10
11
63.34277889362251
21
284.89576434637615
31
2.374947571937014e-10
  0
LINE
 8
Layer0
10
78.34277889362461
20
227.89576434634958
30
2.4460389269620464e-10
11
78.34277889362461
21
229.89576434634955
31
2.4460389269620464e-10
  0
LINE
 8
Layer0
10
37.34277889362459
20
369.8957643463495
30
2.445305735676584e-10
11
37.34277889362459
21
357.89576434634944
31
2.445305735676584e-10
  0
LINE
 8
Layer0
10
58.3427788936246
20
369.8957643463495
30
2.445305735676584e-10
11
37.34277889362459
21
369.8957643463495
31
2.445305735676584e-10
  0
LINE
 8
Layer0
10
56.3427788936246
20
359.89576434634944
30
2.445305735676584e-10
11
58.3427788936246
21
359.89576434634944
31
2.445305735676584e-10
  0
LINE
 8
Layer0
10
22.63432390110443
20
380.7810635333347
30
2.4458697289730936e-10
11
22.70916710233257
21
380.8686112277969
31
2.445982527632395e-10
  0
LINE
 8
Layer0
10
22.250761172613856
20
378.71689935033777
30
2.446095326291697e-10
11
22.21810002687123
21
378.8273500322483
31
2.445982527632395e-10
  0
LINE
 8
Layer0
10
23.4476465700658
20
377.38638025020714
30
2.4457569303137916e-10
11
23.34371114507839
21
377.43601422051387
31
2.445982527632395e-10
  0
LINE
 8
Layer0
10
26.396911532277166
20
378.60640002017163
30
2.4458697289730936e-10
11
26.352785143455925
21
378.5000093937738
31
2.4458697289730936e-10
  0
LINE
 8
Layer0
10
42.34277889362458
20
359.89576434634944
30
2.445305735676584e-10
11
51.34277889362461
21
359.89576434634944
31
2.445305735676584e-10
  0
LINE
 8
Layer0
10
26.248145664619386
20
378.2948786249849
30
2.445982527632395e-10
11
26.187919384142194
21
378.1967007317724
31
2.445982527632395e-10
  0
LINE
 8
Layer0
10
92.3427788936105
20
327.3957643463496
30
2.373622187690216e-10
11
80.34277889361053
21
327.3957643463496
31
2.372184004784117e-10
  0
LINE
 8
Layer0
10
26.123839552889944
20
380.68806421862627
30
2.445982527632395e-10
11
26.189033286128723
21
380.59311222695624
31
2.4458697289730936e-10
  0
LINE
 8
Layer0
10
22.191264184149254
20
378.93935869763243
30
2.4458697289730936e-10
11
22.17032719962743
21
379.05261833852387
31
2.445982527632395e-10
  0
LINE
 8
Layer0
10
42.34277889362458
20
357.89576434634944
30
2.445305735676584e-10
11
37.34277889362459
21
357.89576434634944
31
2.445305735676584e-10
  0
LINE
 8
Layer0
10
22.87055416586607
20
377.7615299260405
30
2.4458697289730936e-10
11
22.787043442980995
21
377.840852449569
31
2.4458697289730936e-10
  0
LINE
 8
Layer0
10
78.34277889361049
20
332.39576434634955
30
2.371958407465513e-10
11
78.34277889361049
21
337.39576434634955
31
2.371958407465513e-10
  0
LINE
 8
Layer0
10
58.3427788936246
20
364.89576434634944
30
2.445305735676584e-10
11
58.3427788936246
21
369.8957643463495
31
2.445305735676584e-10
  0
LINE
 8
Layer0
10
99.34277889361049
20
337.39576434634955
30
2.3744681776349805e-10
11
99.34277889361049
21
332.39576434634955
31
2.3744681776349805e-10
  0
LINE
 8
Layer0
10
13.84277889362461
20
206.8957643463496
30
2.446067126626872e-10
11
13.84277889362461
21
199.8957643463496
31
2.4460389269620464e-10
  0
LINE
 8
Layer0
10
23.146053166706743
20
381.2413961098368
30
2.446095326291697e-10
11
23.24428700634238
21
381.3015310940487
31
2.445982527632395e-10
  0
LINE
 8
Layer0
10
119.34277889362463
20
229.89576434634955
30
2.4460389269620464e-10
11
119.34277889362463
21
227.89576434634958
31
2.4460389269620464e-10
  0
LINE
 8
Layer0
10
101.34277889361049
20
327.3957643463496
30
2.3746937749535846e-10
11
99.34277889361049
21
327.3957643463496
31
2.3744681776349805e-10
  0
LINE
 8
Layer0
10
37.34277889362459
20
199.8957643463496
30
2.4460389269620464e-10
11
37.34277889362459
21
201.89576434634958
31
2.4460389269620464e-10
  0
LINE
 8
Layer0
10
26.46817320341111
20
378.8253745096956
30
2.4458697289730936e-10
11
26.435409392248314
21
378.71495423866804
31
2.4458697289730936e-10
  0
LINE
 8
Layer0
10
101.34277889361049
20
332.39576434634955
30
2.3746937749535846e-10
11
101.34277889361049
21
327.3957643463496
31
2.3746937749535846e-10
  0
LINE
 8
Layer0
10
15.842778893624606
20
135.8957643463497
30
2.447025915230938e-10
11
15.842778893624606
21
144.89576434634967
31
2.447025915230938e-10
  0
LINE
 8
Layer0
10
57.3427788936246
20
163.89576434634967
30
2.4456441316544896e-10
11
97.34277889362461
21
163.8957643463497
31
2.4443469470725177e-10
  0
LINE
 8
Layer0
10
101.34277889361049
20
320.39576434634955
30
2.3746937749535846e-10
11
101.34277889361049
21
308.39576434634955
31
2.3746937749535846e-10
  0
LINE
 8
Layer0
10
15.842778893624606
20
144.89576434634967
30
2.447025915230938e-10
11
13.84277889362461
21
144.89576434634967
31
2.447082314560589e-10
  0
LINE
 8
Layer0
10
126.25553587953426
20
328.3257206879363
30
2.3746937749535846e-10
11
126.25553587953426
21
308.3257206879363
31
2.3746937749535846e-10
  0
LINE
 8
Layer0
10
74.34277889361366
20
372.39576434635586
30
2.385832642559649e-10
11
54.34277889361364
21
372.3957643463873
31
2.36380870433095e-10
  0
LINE
 8
Layer0
10
101.34277889361049
20
308.39576434634955
30
2.3746937749535846e-10
11
75.34277889361049
21
308.39576434634955
31
2.4128479214624573e-10
  0
LINE
 8
Layer0
10
119.34277889362463
20
231.8957643463496
30
2.4458133296434424e-10
11
119.34277889362463
21
233.8957643463496
31
2.4458133296434424e-10
  0
LINE
 8
Layer0
10
63.34277889355709
20
348.8957643463762
30
1.3970113954542284e-11
11
63.342778893553024
21
352.8957643463762
31
0.0
  0
LINE
 8
Layer0
10
54.34277889361364
20
372.3957643463873
30
2.36380870433095e-10
11
54.34277889361996
21
376.39576434638735
31
2.395251330611359e-10
  0
LINE
 8
Layer0
10
78.34277889361053
20
366.39576434634955
30
2.374524576964632e-10
11
80.34277889361053
21
366.39576434634955
31
2.374524576964632e-10
  0
LINE
 8
Layer0
10
140.8427788936246
20
144.89576434634967
30
2.4429369638312437e-10
11
140.8427788936246
21
158.8957643463497
31
2.4429369638312437e-10
  0
LINE
 8
Layer0
10
57.3427788936246
20
163.89576434634967
30
2.4456441316544896e-10
11
57.3427788936246
21
165.89576434634967
31
2.4456441316544896e-10
  0
LINE
 8
Layer0
10
26.189033286128723
20
380.59311222695624
30
2.4458697289730936e-10
11
26.249168270340657
21
380.4948783873207
31
2.4458697289730936e-10
  0
LINE
 8
Layer0
10
138.8427788936246
20
144.89576434634967
30
2.4429933631608945e-10
11
140.8427788936246
21
144.89576434634967
31
2.4429369638312437e-10
  0
LINE
 8
Layer0
10
61.34277889355709
20
348.8957643463741
30
1.3978573853989927e-11
11
63.34277889355709
21
348.8957643463762
31
1.3970113954542284e-11
  0
LINE
 8
Layer0
10
131.04277889362461
20
148.89576434634967
30
2.443247160144324e-10
11
131.04277889362461
21
158.8957643463497
31
2.443247160144324e-10
  0
LINE
 8
Layer0
10
99.34277889361049
20
361.39576434634955
30
2.37441177830533e-10
11
94.3427788936105
21
361.39576434634955
31
2.37441177830533e-10
  0
LINE
 8
Layer0
10
119.34277889362463
20
199.8957643463496
30
2.4460389269620464e-10
11
119.34277889362463
21
201.89576434634958
31
2.4460389269620464e-10
  0
LINE
 8
Layer0
10
97.34277889362461
20
135.8957643463497
30
2.4442341484132156e-10
11
97.34277889362461
21
137.8957643463497
31
2.4442341484132156e-10
  0
LINE
 8
Layer0
10
127.19085417201022
20
19.853170066148618
30
2.385550645911394e-10
11
127.25045455777524
21
20.075601733974427
31
2.385550645911394e-10
  0
LINE
 8
Layer0
10
126.25553587953426
20
353.3257206879363
30
2.3746937749535846e-10
11
126.25553587953426
21
333.3257206879363
31
2.3746937749535846e-10
  0
LINE
 8
Layer0
10
126.25553587953426
20
333.3257206879363
30
2.3746937749535846e-10
11
106.25553587953421
21
333.3257206879363
31
2.3746937749535846e-10
  0
LINE
 8
Layer0
10
57.3427788936246
20
165.89576434634967
30
2.4456441316544896e-10
11
15.842778893624606
21
165.89576434634967
31
2.446997715566113e-10
  0
LINE
 8
Layer0
10
138.8427788936246
20
144.89576434634967
30
2.4429933631608945e-10
11
138.8427788936246
21
135.89576434634972
31
2.4429933631608945e-10
  0
LINE
 8
Layer0
10
183.84277889362463
20
231.8957643463496
30
2.4460389269620464e-10
11
119.34277889362463
21
231.8957643463496
31
2.4458133296434424e-10
  0
LINE
 8
Layer0
10
136.04277889362461
20
148.89576434634967
30
2.443077962155371e-10
11
131.04277889362461
21
148.89576434634967
31
2.443247160144324e-10
  0
LINE
 8
Layer0
10
52.34277889361996
20
376.39576434639054
30
2.3930517567549713e-10
11
52.342778893624654
21
379.3957643463905
31
2.4166266765490716e-10
  0
LINE
 8
Layer0
10
61.342778893622516
20
284.8957643463741
30
2.37503217093149e-10
11
61.34277889355709
21
348.8957643463741
31
1.3978573853989927e-11
  0
LINE
 8
Layer0
10
128.04965133858119
20
17.615926958724685
30
2.3856070452410447e-10
11
127.87069155963512
21
17.7608457302993
31
2.3856070452410447e-10
  0
LINE
 8
Layer0
10
78.84277889362458
20
142.89576434634967
30
2.444967339698678e-10
11
78.84277889362458
21
157.89576434634967
31
2.4449391400338526e-10
  0
LINE
 8
Layer0
10
131.04277889362461
20
158.8957643463497
30
2.443247160144324e-10
11
136.04277889362461
21
158.8957643463497
31
2.443077962155371e-10
  0
LINE
 8
Layer0
10
106.25553587953421
20
333.3257206879363
30
2.3746937749535846e-10
11
106.25553587953421
21
353.3257206879363
31
2.3746937749535846e-10
  0
LINE
 8
Layer0
10
127.19085417201026
20
18.938358626550468
30
2.385550645911394e-10
11
127.15483072381438
21
19.165801727160737
31
2.385550645911394e-10
  0
LINE
 8
Layer0
10
119.34277889362463
20
201.89576434634958
30
2.4460389269620464e-10
11
160.34277889362454
21
201.89576434634958
31
2.4460389269620464e-10
  0
LINE
 8
Layer0
10
52.342778893624654
20
379.3957643463905
30
2.4166266765490716e-10
11
78.34277889362465
21
379.3957643463496
31
2.445277536011758e-10
  0
LINE
 8
Layer0
10
77.34277889361049
20
311.39576434634955
30
2.409915156320608e-10
11
75.34277889361049
21
311.39576434634955
31
2.4128479214624573e-10
  0
LINE
 8
Layer0
10
181.84277889362463
20
206.8957643463496
30
2.446067126626872e-10
11
183.84277889362463
21
206.8957643463496
31
2.446067126626872e-10
  0
LINE
 8
Layer0
10
58.84277889362462
20
142.89576434634967
30
2.445615931989664e-10
11
78.84277889362458
21
142.89576434634967
31
2.444967339698678e-10
  0
LINE
 8
Layer0
10
183.84277889362463
20
220.89576434634958
30
2.446490121599254e-10
11
181.84277889362463
21
220.89576434634958
31
2.446490121599254e-10
  0
LINE
 8
Layer0
10
63.342778893553024
20
352.8957643463762
30
0.0
11
37.34277889355303
21
352.8957643463496
31
1.071587263368201e-13
  0
LINE
 8
Layer0
10
78.34277889362465
20
379.3957643463496
30
2.445277536011758e-10
11
78.34277889361053
21
370.39576434634955
31
2.374524576964632e-10
  0
LINE
 8
Layer0
10
75.34277889361049
20
311.39576434634955
30
2.4128479214624573e-10
11
75.34277889361049
21
308.39576434634955
31
2.4128479214624573e-10
  0
LINE
 8
Layer0
10
97.34277889362461
20
137.8957643463497
30
2.4442341484132156e-10
11
57.3427788936246
21
137.8957643463497
31
2.445559532660013e-10
  0
LINE
 8
Layer0
10
80.34277889361053
20
340.39576434634955
30
2.374524576964632e-10
11
80.34277889361053
21
354.3957643463496
31
2.374524576964632e-10
  0
LINE
 8
Layer0
10
128.24277889362463
20
17.490508458023786
30
2.3856070452410447e-10
11
128.04965133858119
21
17.615926958724685
31
2.3856070452410447e-10
  0
LINE
 8
Layer0
10
49.3427788936266
20
280.89576434636183
30
2.515240904443772e-10
11
49.34277889362457
21
282.89576434636183
31
2.44539033467106e-10
  0
LINE
 8
Layer0
10
97.34277889361049
20
320.39576434634955
30
2.380559305237284e-10
11
101.34277889361049
21
320.39576434634955
31
2.3746937749535846e-10
  0
LINE
 8
Layer0
10
78.34277889362461
20
201.89576434634958
30
2.4460389269620464e-10
11
78.34277889362461
21
199.8957643463496
31
2.4460389269620464e-10
  0
LINE
 8
Layer0
10
13.84277889362461
20
144.89576434634967
30
2.447082314560589e-10
11
13.84277889362461
21
158.89576434634967
31
2.447082314560589e-10
  0
LINE
 8
Layer0
10
57.3427788936246
20
137.8957643463497
30
2.445559532660013e-10
11
57.3427788936246
21
135.8957643463497
31
2.445559532660013e-10
  0
LINE
 8
Layer0
10
26.39764447050822
20
380.18321882782845
30
2.445982527632395e-10
11
26.43604139734124
21
380.07462886703325
31
2.446208124950999e-10
  0
LINE
 8
Layer0
10
94.3427788936105
20
363.39576434634955
30
2.374524576964632e-10
11
85.34277889361047
21
363.39576434634955
31
2.374524576964632e-10
  0
LINE
 8
Layer0
10
106.25553587953421
20
308.3257206879363
30
2.3746937749535846e-10
11
106.25553587953421
21
328.3257206879363
31
2.3746937749535846e-10
  0
LINE
 8
Layer0
10
183.84277889362463
20
229.89576434634955
30
2.4460389269620464e-10
11
119.34277889362463
21
229.89576434634955
31
2.4460389269620464e-10
  0
LINE
 8
Layer0
10
106.25553587953421
20
353.3257206879363
30
2.3746937749535846e-10
11
126.25553587953426
21
353.3257206879363
31
2.3746937749535846e-10
  0
LINE
 8
Layer0
10
78.84277889362458
20
157.89576434634967
30
2.4449391400338526e-10
11
58.84277889362462
21
157.89576434634967
31
2.445615931989664e-10
  0
LINE
 8
Layer0
10
13.84277889362461
20
158.89576434634967
30
2.447082314560589e-10
11
15.842778893624606
21
158.89576434634967
31
2.446997715566113e-10
  0
LINE
 8
Layer0
10
57.3427788936246
20
135.8957643463497
30
2.445559532660013e-10
11
15.842778893624606
21
135.8957643463497
31
2.447025915230938e-10
  0
LINE
 8
Layer0
10
136.04277889362461
20
158.8957643463497
30
2.443077962155371e-10
11
136.04277889362461
21
148.89576434634967
31
2.443077962155371e-10
  0
LINE
 8
Layer0
10
140.8427788936246
20
158.8957643463497
30
2.4429369638312437e-10
11
138.8427788936246
21
158.8957643463497
31
2.4429933631608945e-10
  0
LINE
 8
Layer0
10
97.34277889362461
20
163.8957643463497
30
2.4443469470725177e-10
11
97.34277889362461
21
165.8957643463497
31
2.4443469470725177e-10
  0
LINE
 8
Layer0
10
138.8427788936246
20
165.8957643463497
30
2.4429933631608945e-10
11
138.8427788936246
21
158.8957643463497
31
2.4429933631608945e-10
  0
LINE
 8
Layer0
10
74.34277889361053
20
370.39576434635586
30
2.3700972295870313e-10
11
78.34277889361053
21
370.39576434634955
31
2.374524576964632e-10
  0
LINE
 8
Layer0
10
128.04965133858116
20
21.175601733974446
30
2.3856070452410447e-10
11
128.24277889362457
21
21.301020234675345
31
2.385663444570696e-10
  0
LINE
 8
Layer0
10
78.34277889362461
20
134.8957643463496
30
2.447025915230938e-10
11
78.34277889362461
21
132.8957643463496
31
2.447025915230938e-10
  0
LINE
 8
Layer0
10
15.842778893624606
20
158.89576434634967
30
2.446997715566113e-10
11
15.842778893624606
21
165.89576434634967
31
2.446997715566113e-10
  0
LINE
 8
Layer0
10
183.84277889362463
20
91.39576434634961
30
2.432249290862387e-10
11
181.84277889362463
21
91.39576434634961
31
2.432023693543783e-10
  0
LINE
 8
Layer0
10
15.842778893624606
20
132.8957643463496
30
2.447025915230938e-10
11
78.34277889362461
21
132.8957643463496
31
2.447025915230938e-10
  0
LINE
 8
Layer0
10
94.3427788936105
20
361.39576434634955
30
2.37441177830533e-10
11
94.3427788936105
21
363.39576434634955
31
2.374524576964632e-10
  0
LINE
 8
Layer0
10
13.84277889362461
20
51.395764346349594
30
2.417077871186279e-10
11
13.84277889362461
21
91.39576434634961
31
2.417077871186279e-10
  0
LINE
 8
Layer0
10
128.66294150599975
20
17.303440010500246
30
2.385663444570696e-10
11
128.44795827885784
21
17.385964339535857
31
2.385663444570696e-10
  0
LINE
 8
Layer0
10
63.34277889362251
20
284.89576434637615
30
2.374947571937014e-10
11
63.342778893626615
21
280.89576434637615
31
2.5146487114824364e-10
  0
LINE
 8
Layer0
10
131.35257890043835
20
18.50094373158284
30
2.3858890418892995e-10
11
131.2480347819504
21
18.29576434634959
31
2.3858890418892995e-10
  0
LINE
 8
Layer0
10
127.15483072381438
20
19.625726965538394
30
2.385550645911394e-10
11
127.19085417201022
21
19.853170066148618
31
2.385550645911394e-10
  0
LINE
 8
Layer0
10
119.34277889362457
20
132.8957643463496
30
2.447025915230938e-10
11
119.34277889362457
21
134.8957643463496
31
2.447025915230938e-10
  0
LINE
 8
Layer0
10
13.84277889362461
20
91.39576434634961
30
2.417077871186279e-10
11
15.842778893624606
21
91.39576434634961
31
2.417077871186279e-10
  0
LINE
 8
Layer0
10
181.84277889362463
20
51.395764346349594
30
2.432023693543783e-10
11
183.84277889362463
21
51.395764346349594
31
2.432249290862387e-10
  0
LINE
 8
Layer0
10
15.842778893624606
20
91.39576434634961
30
2.417077871186279e-10
11
15.842778893624606
21
132.8957643463496
31
2.447025915230938e-10
  0
LINE
 8
Layer0
10
128.44795827885784
20
21.405564353163275
30
2.385663444570696e-10
11
128.6629415059997
21
21.488088682198885
31
2.385663444570696e-10
  0
LINE
 8
Layer0
10
97.34277889361049
20
318.39576434634955
30
2.380559305237284e-10
11
97.34277889361049
21
320.39576434634955
31
2.380559305237284e-10
  0
LINE
 8
Layer0
10
78.34277889361053
20
354.3957643463496
30
2.374524576964632e-10
11
78.34277889361053
21
366.39576434634955
31
2.374524576964632e-10
  0
LINE
 8
Layer0
10
85.34277889361047
20
340.39576434634955
30
2.374524576964632e-10
11
80.34277889361053
21
340.39576434634955
31
2.374524576964632e-10
  0
LINE
 8
Layer0
10
28.538365237594007
20
28.402274933023804
30
2.420236233646733e-10
11
24.342778893624615
21
33.58339257918889
31
2.430218914994953e-10
  0
LINE
 8
Layer0
10
127.43752300529887
20
18.295764346349547
30
2.385550645911394e-10
11
127.33297888681089
21
18.500943731582794
31
2.385550645911394e-10
  0
LINE
 8
Layer0
10
37.34277889355303
20
352.8957643463496
30
1.071587263368201e-13
11
37.34277889362455
21
282.8957643463496
31
2.4458697289730936e-10
  0
LINE
 8
Layer0
10
119.34277889362457
20
9.895764346349605
30
2.447025915230938e-10
11
119.34277889362457
21
7.895764346349609
31
2.447025915230938e-10
  0
LINE
 8
Layer0
10
119.34277889362457
20
132.8957643463496
30
2.447025915230938e-10
11
181.84277889362463
21
132.8957643463496
31
2.447025915230938e-10
  0
LINE
 8
Layer0
10
181.84277889362463
20
51.395764346349594
30
2.432023693543783e-10
11
181.84277889362463
21
9.895764346349605
31
2.447025915230938e-10
  0
LINE
 8
Layer0
10
127.70786027757434
20
17.923677012360088
30
2.3856070452410447e-10
11
127.56294150599976
21
18.102636791306118
31
2.3856070452410447e-10
  0
LINE
 8
Layer0
10
127.25045455777529
20
18.71592695872466
30
2.385550645911394e-10
11
127.19085417201026
21
18.938358626550468
31
2.385550645911394e-10
  0
LINE
 8
Layer0
10
49.34277889362457
20
282.89576434636183
30
2.44539033467106e-10
11
37.34277889362455
21
282.8957643463496
31
2.4458697289730936e-10
  0
LINE
 8
Layer0
10
131.53072706343482
20
19.62572696553844
30
2.3858890418892995e-10
11
131.5427788936246
21
19.395764346349612
31
2.3858890418892995e-10
  0
LINE
 8
Layer0
10
77.34277889361049
20
318.39576434634955
30
2.409915156320608e-10
11
97.34277889361049
21
318.39576434634955
31
2.380559305237284e-10
  0
LINE
 8
Layer0
10
129.11281627443583
20
17.20781617653939
30
2.385719843900347e-10
11
128.88537317382554
21
17.24383962473518
31
2.385663444570696e-10
  0
LINE
 8
Layer0
10
99.34277889361049
20
354.3957643463496
30
2.374524576964632e-10
11
99.34277889361049
21
361.39576434634955
31
2.37441177830533e-10
  0
LINE
 8
Layer0
10
85.34277889361047
20
363.39576434634955
30
2.374524576964632e-10
11
85.34277889361047
21
361.39576434634955
31
2.37441177830533e-10
  0
LINE
 8
Layer0
10
101.34277889361053
20
354.3957643463496
30
2.374524576964632e-10
11
101.34277889361053
21
340.39576434634955
31
2.374524576964632e-10
  0
LINE
 8
Layer0
10
181.84277889362463
20
132.8957643463496
30
2.447025915230938e-10
11
181.84277889362463
21
91.39576434634961
31
2.432023693543783e-10
  0
LINE
 8
Layer0
10
99.34277889361049
20
354.3957643463496
30
2.374524576964632e-10
11
101.34277889361053
21
354.3957643463496
31
2.374524576964632e-10
  0
LINE
 8
Layer0
10
58.84277889362462
20
157.89576434634967
30
2.445615931989664e-10
11
58.84277889362462
21
142.89576434634967
31
2.445615931989664e-10
  0
LINE
 8
Layer0
10
130.23759950839138
20
17.385964339535857
30
2.3857762432299975e-10
11
130.0226162812495
21
17.303440010500246
31
2.3857762432299975e-10
  0
LINE
 8
Layer0
10
15.842778893624606
20
9.895764346349605
30
2.447025915230938e-10
11
15.842778893624606
21
51.395764346349594
31
2.417077871186279e-10
  0
LINE
 8
Layer0
10
127.56294150599967
20
20.688891901393013
30
2.3856070452410447e-10
11
127.70786027757434
21
20.867851680339044
31
2.3856070452410447e-10
  0
LINE
 8
Layer0
10
54.34277889361996
20
376.39576434638735
30
2.395251330611359e-10
11
52.34277889361996
21
376.39576434639054
31
2.3930517567549713e-10
  0
LINE
 8
Layer0
10
127.87069155963512
20
17.7608457302993
30
2.3856070452410447e-10
11
127.70786027757434
21
17.923677012360088
31
2.3856070452410447e-10
  0
LINE
 8
Layer0
10
128.44795827885784
20
17.385964339535857
30
2.385663444570696e-10
11
128.24277889362463
21
17.490508458023786
31
2.3856070452410447e-10
  0
LINE
 8
Layer0
10
128.8853731738255
20
21.54768906796395
30
2.385663444570696e-10
11
129.11281627443572
21
21.583712516159785
31
2.385719843900347e-10
  0
LINE
 8
Layer0
10
85.34277889361047
20
342.39576434634955
30
2.374524576964632e-10
11
94.3427788936105
21
342.39576434634955
31
2.374524576964632e-10
  0
LINE
 8
Layer0
10
49.3427788936266
20
280.89576434636183
30
2.515240904443772e-10
11
63.342778893626615
21
280.89576434637615
31
2.5146487114824364e-10
  0
LINE
 8
Layer0
10
130.63590644866804
20
17.615926958724685
30
2.385832642559649e-10
11
130.44277889362462
21
17.49050845802383
31
2.3857762432299975e-10
  0
LINE
 8
Layer0
10
80.34277889361053
20
366.39576434634955
30
2.374524576964632e-10
11
80.34277889361053
21
361.39576434634955
31
2.37441177830533e-10
  0
LINE
 8
Layer0
10
128.24277889362457
20
21.301020234675345
30
2.385663444570696e-10
11
128.44795827885784
21
21.405564353163275
31
2.385663444570696e-10
  0
LINE
 8
Layer0
10
138.8427788936246
20
165.8957643463497
30
2.4429933631608945e-10
11
97.34277889362461
21
165.8957643463497
31
2.4443469470725177e-10
  0
LINE
 8
Layer0
10
127.33297888681089
20
125.29058496111637
30
2.444600744055947e-10
11
127.43752300529887
21
125.4957643463496
31
2.444600744055947e-10
  0
LINE
 8
Layer0
10
138.8427788936246
20
135.89576434634972
30
2.4429933631608945e-10
11
97.34277889362461
21
135.8957643463497
31
2.4442341484132156e-10
  0
LINE
 8
Layer0
10
94.3427788936105
20
340.39576434634955
30
2.374524576964632e-10
11
94.3427788936105
21
342.39576434634955
31
2.374524576964632e-10
  0
LINE
 8
Layer0
10
127.56294150599976
20
18.102636791306118
30
2.3856070452410447e-10
11
127.43752300529887
21
18.295764346349547
31
2.385550645911394e-10
  0
LINE
 8
Layer0
10
131.494703615239
20
18.938358626550556
30
2.3858890418892995e-10
11
131.43510322947395
21
18.715926958724705
31
2.3858890418892995e-10
  0
LINE
 8
Layer0
10
130.97769750967487
20
17.92367701236013
30
2.385832642559649e-10
11
130.8148662276141
21
17.760845730299344
31
2.385832642559649e-10
  0
LINE
 8
Layer0
10
127.14277889362461
20
124.3957643463496
30
2.444600744055947e-10
11
127.15483072381438
21
124.62572696553843
31
2.444600744055947e-10
  0
LINE
 8
Layer0
10
80.34277889361053
20
354.3957643463496
30
2.374524576964632e-10
11
78.34277889361053
21
354.3957643463496
31
2.374524576964632e-10
  0
LINE
 8
Layer0
10
78.34277889362461
20
233.8957643463496
30
2.4458133296434424e-10
11
78.34277889362461
21
231.8957643463496
31
2.4458133296434424e-10
  0
LINE
 8
Layer0
10
85.34277889361047
20
342.39576434634955
30
2.374524576964632e-10
11
85.34277889361047
21
340.39576434634955
31
2.374524576964632e-10
  0
LINE
 8
Layer0
10
130.97769750967487
20
20.86785168033909
30
2.385832642559649e-10
11
131.12261628124944
21
20.688891901393013
31
2.385832642559649e-10
  0
LINE
 8
Layer0
10
130.44277889362462
20
17.49050845802383
30
2.3857762432299975e-10
11
130.23759950839138
21
17.385964339535857
31
2.3857762432299975e-10
  0
LINE
 8
Layer0
10
131.2480347819504
20
18.29576434634959
30
2.3858890418892995e-10
11
131.12261628124952
21
18.10263679130616
31
2.385832642559649e-10
  0
LINE
 8
Layer0
10
78.34277889362461
20
7.895764346349609
30
2.447025915230938e-10
11
78.34277889362461
21
9.895764346349605
31
2.447025915230938e-10
  0
LINE
 8
Layer0
10
101.34277889361053
20
340.39576434634955
30
2.374524576964632e-10
11
94.3427788936105
21
340.39576434634955
31
2.374524576964632e-10
  0
LINE
 8
Layer0
10
119.34277889362457
20
7.895764346349609
30
2.447025915230938e-10
11
78.34277889362461
21
7.895764346349609
31
2.447025915230938e-10
  0
LINE
 8
Layer0
10
129.3427788936246
20
126.5957643463496
30
2.4447699420449e-10
11
129.57274151281342
21
126.58371251615979
31
2.4447699420449e-10
  0
LINE
 8
Layer0
10
127.87069155963512
20
122.76084573029934
30
2.444657143385598e-10
11
127.70786027757434
21
122.92367701236012
31
2.444657143385598e-10
  0
LINE
 8
Layer0
10
131.24803478195034
20
20.495764346349585
30
2.3858890418892995e-10
11
131.35257890043832
21
20.29058496111638
31
2.3858890418892995e-10
  0
LINE
 8
Layer0
10
127.70786027757434
20
20.867851680339044
30
2.3856070452410447e-10
11
127.87069155963512
21
21.03068296239983
31
2.3856070452410447e-10
  0
LINE
 8
Layer0
10
127.25045455777524
20
125.07560173397448
30
2.444600744055947e-10
11
127.33297888681089
21
125.29058496111637
31
2.444600744055947e-10
  0
LINE
 8
Layer0
10
127.15483072381438
20
124.16580172716077
30
2.444600744055947e-10
11
127.14277889362461
21
124.3957643463496
31
2.444600744055947e-10
  0
LINE
 8
Layer0
10
130.44277889362456
20
122.49050845802384
30
2.4448263413745506e-10
11
130.23759950839138
21
122.38596433953589
31
2.4448263413745506e-10
  0
LINE
 8
Layer0
10
127.56294150599972
20
125.68889190139305
30
2.444657143385598e-10
11
127.70786027757434
21
125.86785168033907
31
2.444657143385598e-10
  0
LINE
 8
Layer0
10
130.63590644866804
20
122.61592695872471
30
2.444882740704202e-10
11
130.44277889362456
21
122.49050845802384
31
2.4448263413745506e-10
  0
LINE
 8
Layer0
10
22.56294150599973
20
123.10263679130615
30
2.440427193661776e-10
11
22.437523005298832
21
123.2957643463496
31
2.4405963916507287e-10
  0
LINE
 8
Layer0
10
128.24277889362463
20
126.30102023467536
30
2.4447135427152486e-10
11
128.44795827885784
21
126.40556435316331
31
2.4447135427152486e-10
  0
LINE
 8
Layer0
10
129.34277889362465
20
17.19576434634957
30
2.385719843900347e-10
11
129.11281627443583
21
17.20781617653939
31
2.385719843900347e-10
  0
LINE
 8
Layer0
10
128.6629415059997
20
126.48808868219893
30
2.4447135427152486e-10
11
128.88537317382554
21
126.54768906796396
31
2.4447135427152486e-10
  0
LINE
 8
Layer0
10
131.53072706343482
20
19.165801727160737
30
2.3858890418892995e-10
11
131.494703615239
21
18.938358626550556
31
2.3858890418892995e-10
  0
LINE
 8
Layer0
10
127.33297888681085
20
20.29058496111629
30
2.385550645911394e-10
11
127.43752300529881
21
20.495764346349542
31
2.385550645911394e-10
  0
LINE
 8
Layer0
10
85.34277889361047
20
361.39576434634955
30
2.37441177830533e-10
11
80.34277889361053
21
361.39576434634955
31
2.37441177830533e-10
  0
LINE
 8
Layer0
10
130.0226162812495
20
17.303440010500246
30
2.3857762432299975e-10
11
129.8001846134237
21
17.243839624735227
31
2.3857762432299975e-10
  0
LINE
 8
Layer0
10
129.80018461342365
20
21.54768906796395
30
2.3857762432299975e-10
11
130.02261628124947
21
21.488088682198928
31
2.3857762432299975e-10
  0
LINE
 8
Layer0
10
131.43510322947392
20
20.07560173397447
30
2.3858890418892995e-10
11
131.49470361523893
21
19.853170066148664
31
2.3858890418892995e-10
  0
LINE
 8
Layer0
10
128.88537317382554
20
17.24383962473518
30
2.385663444570696e-10
11
128.66294150599975
21
17.303440010500246
31
2.385663444570696e-10
  0
LINE
 8
Layer0
10
128.6629415059997
20
122.30344001050025
30
2.4447135427152486e-10
11
128.44795827885784
21
122.38596433953589
31
2.4447135427152486e-10
  0
LINE
 8
Layer0
10
129.57274151281348
20
17.20781617653939
30
2.385719843900347e-10
11
129.34277889362465
21
17.19576434634957
31
2.385719843900347e-10
  0
LINE
 8
Layer0
10
15.842778893624606
20
51.395764346349594
30
2.417077871186279e-10
11
13.84277889362461
21
51.395764346349594
31
2.417077871186279e-10
  0
LINE
 8
Layer0
10
127.14277889362461
20
19.395764346349566
30
2.385550645911394e-10
11
127.15483072381438
21
19.625726965538394
31
2.385550645911394e-10
  0
LINE
 8
Layer0
10
129.80018461342365
20
122.24383962473523
30
2.4448263413745506e-10
11
129.57274151281342
21
122.2078161765394
31
2.4447699420449e-10
  0
LINE
 8
Layer0
10
127.56294150599972
20
123.10263679130615
30
2.444657143385598e-10
11
127.43752300529887
21
123.2957643463496
31
2.444600744055947e-10
  0
LINE
 8
Layer0
10
129.57274151281342
20
126.58371251615979
30
2.4447699420449e-10
11
129.80018461342365
21
126.54768906796396
31
2.4448263413745506e-10
  0
LINE
 8
Layer0
10
128.04965133858116
20
126.17560173397447
30
2.444657143385598e-10
11
128.24277889362463
21
126.30102023467536
31
2.4447135427152486e-10
  0
LINE
 8
Layer0
10
127.43752300529881
20
20.495764346349542
30
2.385550645911394e-10
11
127.56294150599967
21
20.688891901393013
31
2.3856070452410447e-10
  0
LINE
 8
Layer0
10
130.23759950839138
20
122.38596433953589
30
2.4448263413745506e-10
11
130.0226162812495
21
122.30344001050025
31
2.4448263413745506e-10
  0
LINE
 8
Layer0
10
129.8001846134237
20
17.243839624735227
30
2.3857762432299975e-10
11
129.57274151281348
21
17.20781617653939
31
2.385719843900347e-10
  0
LINE
 8
Layer0
10
74.34277889361366
20
372.39576434635586
30
2.385832642559649e-10
11
74.34277889361053
21
370.39576434635586
31
2.3700972295870313e-10
  0
LINE
 8
Layer0
10
127.43752300529887
20
123.2957643463496
30
2.444600744055947e-10
11
127.33297888681089
21
123.50094373158282
31
2.444600744055947e-10
  0
LINE
 8
Layer0
10
127.87069155963512
20
126.03068296239987
30
2.444657143385598e-10
11
128.04965133858116
21
126.17560173397447
31
2.444657143385598e-10
  0
LINE
 8
Layer0
10
128.44795827885784
20
122.38596433953589
30
2.4447135427152486e-10
11
128.24277889362463
21
122.49050845802384
31
2.444657143385598e-10
  0
LINE
 8
Layer0
10
128.24277889362463
20
122.49050845802384
30
2.444657143385598e-10
11
128.04965133858116
21
122.61592695872471
31
2.444657143385598e-10
  0
LINE
 8
Layer0
10
127.15483072381438
20
19.165801727160737
30
2.385550645911394e-10
11
127.14277889362461
21
19.395764346349566
31
2.385550645911394e-10
  0
LINE
 8
Layer0
10
33.34928948029881
20
120.2001780023802
30
2.420518230294988e-10
11
38.53040712646389
21
124.3957643463496
31
2.426947753875197e-10
  0
LINE
 8
Layer0
10
129.11281627443577
20
122.2078161765394
30
2.4447699420449e-10
11
128.88537317382554
21
122.24383962473523
31
2.4447135427152486e-10
  0
LINE
 8
Layer0
10
129.5727415128134
20
21.583712516159785
30
2.385719843900347e-10
11
129.80018461342365
21
21.54768906796395
31
2.3857762432299975e-10
  0
LINE
 8
Layer0
10
183.84277889362463
20
51.395764346349594
30
2.432249290862387e-10
11
183.84277889362463
21
91.39576434634961
31
2.432249290862387e-10
  0
LINE
 8
Layer0
10
129.11281627443577
20
126.58371251615979
30
2.4447699420449e-10
11
129.3427788936246
21
126.5957643463496
31
2.4447699420449e-10
  0
LINE
 8
Layer0
10
130.23759950839133
20
21.40556435316332
30
2.3857762432299975e-10
11
130.44277889362456
21
21.301020234675345
31
2.385832642559649e-10
  0
LINE
 8
Layer0
10
129.11281627443572
20
21.583712516159785
30
2.385719843900347e-10
11
129.34277889362457
21
21.59576434634956
31
2.385719843900347e-10
  0
LINE
 8
Layer0
10
130.97769750967487
20
122.92367701236012
30
2.444882740704202e-10
11
130.8148662276141
21
122.76084573029934
31
2.444882740704202e-10
  0
LINE
 8
Layer0
10
78.34277889362461
20
9.895764346349605
30
2.447025915230938e-10
11
15.842778893624606
21
9.895764346349605
31
2.447025915230938e-10
  0
LINE
 8
Layer0
10
119.34277889362457
20
134.8957643463496
30
2.447025915230938e-10
11
78.34277889362461
21
134.8957643463496
31
2.447025915230938e-10
  0
LINE
 8
Layer0
10
131.49470361523893
20
19.853170066148664
30
2.3858890418892995e-10
11
131.53072706343482
21
19.62572696553844
31
2.3858890418892995e-10
  0
LINE
 8
Layer0
10
22.250454557775296
20
125.07560173397448
30
2.4420063748920027e-10
11
22.332978886810903
21
125.29058496111637
31
2.4421191735513047e-10
  0
LINE
 8
Layer0
10
127.33297888681089
20
18.500943731582794
30
2.385550645911394e-10
11
127.25045455777529
21
18.71592695872466
31
2.385550645911394e-10
  0
LINE
 8
Layer0
10
131.43510322947395
20
18.715926958724705
30
2.3858890418892995e-10
11
131.35257890043835
21
18.50094373158284
31
2.3858890418892995e-10
  0
LINE
 8
Layer0
10
127.25045455777524
20
20.075601733974427
30
2.385550645911394e-10
11
127.33297888681085
21
20.29058496111629
31
2.385550645911394e-10
  0
LINE
 8
Layer0
10
127.15483072381438
20
124.62572696553843
30
2.444600744055947e-10
11
127.19085417201026
21
124.85317006614868
31
2.444600744055947e-10
  0
LINE
 8
Layer0
10
25.442778893624634
20
122.49050845802384
30
2.4384532171239924e-10
11
25.237599508391384
21
122.38596433953589
31
2.438509616453643e-10
  0
LINE
 8
Layer0
10
23.24277889362464
20
122.49050845802384
30
2.4395812037170116e-10
11
23.049651338581164
21
122.61592695872471
31
2.4398068010356156e-10
  0
LINE
 8
Layer0
10
181.84277889362463
20
9.895764346349605
30
2.447025915230938e-10
11
119.34277889362457
21
9.895764346349605
31
2.447025915230938e-10
  0
LINE
 8
Layer0
10
128.44795827885784
20
126.40556435316331
30
2.4447135427152486e-10
11
128.6629415059997
21
126.48808868219893
31
2.4447135427152486e-10
  0
LINE
 8
Layer0
10
131.1226162812495
20
123.10263679130615
30
2.444882740704202e-10
11
130.97769750967487
21
122.92367701236012
31
2.444882740704202e-10
  0
LINE
 8
Layer0
10
130.0226162812495
20
122.30344001050025
30
2.4448263413745506e-10
11
129.80018461342365
21
122.24383962473523
31
2.4448263413745506e-10
  0
LINE
 8
Layer0
10
130.8148662276141
20
17.760845730299344
30
2.385832642559649e-10
11
130.63590644866804
21
17.615926958724685
31
2.385832642559649e-10
  0
LINE
 8
Layer0
10
22.56294150599973
20
125.68889190139305
30
2.4422883715402575e-10
11
22.707860277574348
21
125.86785168033907
31
2.442344770869909e-10
  0
LINE
 8
Layer0
10
131.5427788936246
20
19.395764346349612
30
2.3858890418892995e-10
11
131.53072706343482
21
19.165801727160737
31
2.3858890418892995e-10
  0
LINE
 8
Layer0
10
25.442778893624588
20
126.30102023467536
30
2.4412731836065403e-10
11
25.635906448668063
21
126.17560173397447
31
2.4410475862879363e-10
  0
LINE
 8
Layer0
10
130.635906448668
20
21.175601733974446
30
2.385832642559649e-10
11
130.8148662276141
21
21.030682962399876
31
2.385832642559649e-10
  0
LINE
 8
Layer0
10
127.33297888681089
20
123.50094373158282
30
2.444600744055947e-10
11
127.25045455777524
21
123.71592695872472
31
2.444600744055947e-10
  0
LINE
 8
Layer0
10
25.934774967231135
20
17.877361072636944
30
2.3817718908247797e-10
11
25.767337485344846
21
17.719270141541216
31
2.3819410888137325e-10
  0
LINE
 8
Layer0
10
23.447958278857843
20
126.40556435316331
30
2.442344770869909e-10
11
23.662941505999708
21
126.48808868219893
31
2.4422883715402575e-10
  0
LINE
 8
Layer0
10
127.19085417201026
20
124.85317006614868
30
2.444600744055947e-10
11
127.25045455777524
21
125.07560173397448
31
2.444600744055947e-10
  0
LINE
 8
Layer0
10
131.12261628124944
20
20.688891901393013
30
2.385832642559649e-10
11
131.24803478195034
21
20.495764346349585
31
2.3858890418892995e-10
  0
LINE
 8
Layer0
10
24.800184613423667
20
126.54768906796396
30
2.441780777573399e-10
11
25.022616281249473
21
126.48808868219893
31
2.441611579584446e-10
  0
LINE
 8
Layer0
10
24.342778893624615
20
126.5957643463496
30
2.4420063748920027e-10
11
24.572741512813444
21
126.58371251615979
31
2.4418935762327007e-10
  0
LINE
 8
Layer0
10
22.270827861611266
20
20.13537162115088
30
2.3819974881433837e-10
11
22.359488238012982
21
20.347897832455306
31
2.3817718908247797e-10
  0
LINE
 8
Layer0
10
25.97769750967488
20
122.92367701236012
30
2.438509616453643e-10
11
25.814866227614093
21
122.76084573029934
31
2.438509616453643e-10
  0
LINE
 8
Layer0
10
23.242778893624592
20
126.30102023467536
30
2.4424011701995595e-10
11
23.447958278857843
21
126.40556435316331
31
2.442344770869909e-10
  0
LINE
 8
Layer0
10
22.332978886810903
20
123.50094373158282
30
2.440821988969333e-10
11
22.250454557775296
21
123.71592695872472
31
2.4409911869582855e-10
  0
LINE
 8
Layer0
10
127.25045455777524
20
123.71592695872472
30
2.444600744055947e-10
11
127.19085417201026
21
123.93835862655052
31
2.444600744055947e-10
  0
LINE
 8
Layer0
10
130.8148662276141
20
21.030682962399876
30
2.385832642559649e-10
11
130.97769750967487
21
20.86785168033909
31
2.385832642559649e-10
  0
LINE
 8
Layer0
10
128.04965133858116
20
122.61592695872471
30
2.444657143385598e-10
11
127.87069155963512
21
122.76084573029934
31
2.444657143385598e-10
  0
LINE
 8
Layer0
10
24.572741512813444
20
122.2078161765394
30
2.438735213772247e-10
11
24.342778893624615
21
122.1957643463496
31
2.438848012431549e-10
  0
LINE
 8
Layer0
10
131.12261628124952
20
18.10263679130616
30
2.385832642559649e-10
11
130.97769750967487
21
17.92367701236013
31
2.385832642559649e-10
  0
LINE
 8
Layer0
10
23.049651338581164
20
122.61592695872471
30
2.4398068010356156e-10
11
22.870691559635134
21
122.76084573029934
31
2.4399759990245684e-10
  0
LINE
 8
Layer0
10
26.122616281249496
20
123.10263679130615
30
2.4385660157832945e-10
11
25.97769750967488
21
122.92367701236012
31
2.438509616453643e-10
  0
LINE
 8
Layer0
10
23.506008362381657
20
21.430417898688038
30
2.380474706242808e-10
11
23.723271488012536
21
21.5067381913775
31
2.380305508253855e-10
  0
LINE
 8
Layer0
10
131.43510322947395
20
125.07560173397448
30
2.4449391400338526e-10
11
131.49470361523893
21
124.85317006614868
31
2.4449391400338526e-10
  0
LINE
 8
Layer0
10
131.43510322947395
20
123.71592695872472
30
2.4449391400338526e-10
11
131.35257890043832
21
123.50094373158282
31
2.4449391400338526e-10
  0
LINE
 8
Layer0
10
24.279638655830322
20
17.196670598831926
30
2.3830690754067516e-10
11
24.050116654649923
21
17.21531741650278
31
2.3831818740660536e-10
  0
LINE
 8
Layer0
10
131.49470361523893
20
123.93835862655052
30
2.4449391400338526e-10
11
131.43510322947395
21
123.71592695872472
31
2.4449391400338526e-10
  0
LINE
 8
Layer0
10
131.53072706343482
20
124.16580172716077
30
2.4449391400338526e-10
11
131.49470361523893
21
123.93835862655052
31
2.4449391400338526e-10
  0
LINE
 8
Layer0
10
131.53072706343482
20
124.62572696553843
30
2.4449391400338526e-10
11
131.5427788936246
21
124.3957643463496
31
2.4449391400338526e-10
  0
LINE
 8
Layer0
10
127.87069155963512
20
21.03068296239983
30
2.3856070452410447e-10
11
128.04965133858116
21
21.175601733974446
31
2.3856070452410447e-10
  0
LINE
 8
Layer0
10
130.02261628124947
20
21.488088682198928
30
2.3857762432299975e-10
11
130.23759950839133
21
21.40556435316332
31
2.3857762432299975e-10
  0
LINE
 8
Layer0
10
130.44277889362456
20
21.301020234675345
30
2.385832642559649e-10
11
130.635906448668
21
21.175601733974446
31
2.385832642559649e-10
  0
LINE
 8
Layer0
10
25.237599508391384
20
122.38596433953589
30
2.438509616453643e-10
11
25.02261628124952
21
122.30344001050025
31
2.4385660157832945e-10
  0
LINE
 8
Layer0
10
131.1226162812495
20
125.68889190139305
30
2.444882740704202e-10
11
131.24803478195034
21
125.4957643463496
31
2.4449391400338526e-10
  0
LINE
 8
Layer0
10
130.8148662276141
20
122.76084573029934
30
2.444882740704202e-10
11
130.63590644866804
21
122.61592695872471
31
2.444882740704202e-10
  0
LINE
 8
Layer0
10
128.6629415059997
20
21.488088682198885
30
2.385663444570696e-10
11
128.8853731738255
21
21.54768906796395
31
2.385663444570696e-10
  0
LINE
 8
Layer0
10
128.88537317382554
20
126.54768906796396
30
2.4447135427152486e-10
11
129.11281627443577
21
126.58371251615979
31
2.4447699420449e-10
  0
LINE
 8
Layer0
10
128.88537317382554
20
122.24383962473523
30
2.4447135427152486e-10
11
128.6629415059997
21
122.30344001050025
31
2.4447135427152486e-10
  0
LINE
 8
Layer0
10
23.447958278857843
20
122.38596433953589
30
2.439412005728059e-10
11
23.24277889362464
21
122.49050845802384
31
2.4395812037170116e-10
  0
LINE
 8
Layer0
10
22.870691559635134
20
126.03068296239987
30
2.442344770869909e-10
11
23.049651338581164
21
126.17560173397447
31
2.4424011701995595e-10
  0
LINE
 8
Layer0
10
22.19085417201023
20
124.85317006614868
30
2.44183717690305e-10
11
22.250454557775296
21
125.07560173397448
31
2.4420063748920027e-10
  0
LINE
 8
Layer0
10
129.34277889362457
20
21.59576434634956
30
2.385719843900347e-10
11
129.5727415128134
21
21.583712516159785
31
2.385719843900347e-10
  0
LINE
 8
Layer0
10
129.57274151281342
20
122.2078161765394
30
2.4447699420449e-10
11
129.3427788936246
21
122.1957643463496
31
2.4447699420449e-10
  0
LINE
 8
Layer0
10
131.35257890043832
20
20.29058496111638
30
2.3858890418892995e-10
11
131.43510322947392
21
20.07560173397447
31
2.3858890418892995e-10
  0
LINE
 8
Layer0
10
25.237599508391384
20
126.40556435316331
30
2.441442381595493e-10
11
25.442778893624588
21
126.30102023467536
31
2.4412731836065403e-10
  0
LINE
 8
Layer0
10
24.112816274435787
20
126.58371251615979
30
2.4421191735513047e-10
11
24.342778893624615
21
126.5957643463496
31
2.4420063748920027e-10
  0
LINE
 8
Layer0
10
129.80018461342365
20
126.54768906796396
30
2.4448263413745506e-10
11
130.0226162812495
21
126.48808868219893
31
2.4448263413745506e-10
  0
LINE
 8
Layer0
10
24.572741512813444
20
126.58371251615979
30
2.4418935762327007e-10
11
24.800184613423667
21
126.54768906796396
31
2.441780777573399e-10
  0
LINE
 8
Layer0
10
130.0226162812495
20
126.48808868219893
30
2.4448263413745506e-10
11
130.23759950839138
21
126.40556435316331
31
2.4448263413745506e-10
  0
LINE
 8
Layer0
10
130.8148662276141
20
126.03068296239987
30
2.444882740704202e-10
11
130.97769750967487
21
125.86785168033907
31
2.444882740704202e-10
  0
LINE
 8
Layer0
10
23.049651338581164
20
126.17560173397447
30
2.4424011701995595e-10
11
23.242778893624592
21
126.30102023467536
31
2.4424011701995595e-10
  0
LINE
 8
Layer0
10
24.342778893624615
20
122.1957643463496
30
2.438848012431549e-10
11
24.112816274435787
21
122.2078161765394
31
2.4389608110908513e-10
  0
LINE
 8
Layer0
10
131.35257890043832
20
125.29058496111637
30
2.4449391400338526e-10
11
131.43510322947395
21
125.07560173397448
31
2.4449391400338526e-10
  0
LINE
 8
Layer0
10
23.662941505999708
20
126.48808868219893
30
2.4422883715402575e-10
11
23.88537317382556
21
126.54768906796396
31
2.4422319722106067e-10
  0
LINE
 8
Layer0
10
22.154830723814438
20
124.62572696553843
30
2.441724378243748e-10
11
22.19085417201023
21
124.85317006614868
31
2.44183717690305e-10
  0
LINE
 8
Layer0
10
26.53072706343479
20
124.16580172716077
30
2.439130009079804e-10
11
26.494703615238997
21
123.93835862655052
31
2.439017210420502e-10
  0
LINE
 8
Layer0
10
22.707860277574348
20
125.86785168033907
30
2.442344770869909e-10
11
22.870691559635134
21
126.03068296239987
31
2.442344770869909e-10
  0
LINE
 8
Layer0
10
127.70786027757434
20
122.92367701236012
30
2.444657143385598e-10
11
127.56294150599972
21
123.10263679130615
31
2.444657143385598e-10
  0
LINE
 8
Layer0
10
22.154830723814438
20
124.16580172716077
30
2.4413859822658424e-10
11
22.142778893624616
21
124.3957643463496
31
2.441555180254795e-10
  0
LINE
 8
Layer0
10
131.5427788936246
20
124.3957643463496
30
2.4449391400338526e-10
11
131.53072706343482
21
124.16580172716077
31
2.4449391400338526e-10
  0
LINE
 8
Layer0
10
127.70786027757434
20
125.86785168033907
30
2.444657143385598e-10
11
127.87069155963512
21
126.03068296239987
31
2.444657143385598e-10
  0
LINE
 8
Layer0
10
24.800184613423667
20
122.24383962473523
30
2.438622415112945e-10
11
24.572741512813444
21
122.2078161765394
31
2.438735213772247e-10
  0
LINE
 8
Layer0
10
127.19085417201026
20
123.93835862655052
30
2.444600744055947e-10
11
127.15483072381438
21
124.16580172716077
31
2.444600744055947e-10
  0
LINE
 8
Layer0
10
24.509852434668993
20
17.20211751244883
30
2.3829562767474496e-10
11
24.279638655830322
21
17.196670598831926
31
2.3830690754067516e-10
  0
LINE
 8
Layer0
10
26.43510322947393
20
125.07560173397448
30
2.4398632003652664e-10
11
26.494703615238997
21
124.85317006614868
31
2.4396376030466624e-10
  0
LINE
 8
Layer0
10
26.494703615238997
20
123.93835862655052
30
2.439017210420502e-10
11
26.43510322947393
21
123.71592695872472
31
2.438848012431549e-10
  0
LINE
 8
Layer0
10
25.022616281249473
20
126.48808868219893
30
2.441611579584446e-10
11
25.237599508391384
21
126.40556435316331
31
2.441442381595493e-10
  0
LINE
 8
Layer0
10
130.97769750967487
20
125.86785168033907
30
2.444882740704202e-10
11
131.1226162812495
21
125.68889190139305
31
2.444882740704202e-10
  0
LINE
 8
Layer0
10
25.635906448668063
20
126.17560173397447
30
2.4410475862879363e-10
11
25.814866227614093
21
126.03068296239987
31
2.4408783882989835e-10
  0
LINE
 8
Layer0
10
131.35257890043832
20
123.50094373158282
30
2.4449391400338526e-10
11
131.24803478195034
21
123.2957643463496
31
2.4449391400338526e-10
  0
LINE
 8
Layer0
10
22.149132059723787
20
19.228690805305185
30
2.382674280099195e-10
11
22.143685146106883
21
19.458904584143813
31
2.382505082110242e-10
  0
LINE
 8
Layer0
10
131.24803478195034
20
125.4957643463496
30
2.4449391400338526e-10
11
131.35257890043832
21
125.29058496111637
31
2.4449391400338526e-10
  0
LINE
 8
Layer0
10
25.02261628124952
20
122.30344001050025
30
2.4385660157832945e-10
11
24.800184613423667
21
122.24383962473523
31
2.438622415112945e-10
  0
LINE
 8
Layer0
10
26.248034781950395
20
125.4957643463496
30
2.440257995672823e-10
11
26.352578900438324
21
125.29058496111637
31
2.440032398354219e-10
  0
LINE
 8
Layer0
10
22.46987796186786
20
20.549992270039194
30
2.381602692835827e-10
11
22.600787580260786
21
20.739440744953484
31
2.381377095517223e-10
  0
LINE
 8
Layer0
10
23.662941505999708
20
122.30344001050025
30
2.439242807739106e-10
11
23.447958278857843
21
122.38596433953589
31
2.439412005728059e-10
  0
LINE
 8
Layer0
10
130.23759950839138
20
126.40556435316331
30
2.4448263413745506e-10
11
130.44277889362456
21
126.30102023467536
31
2.444882740704202e-10
  0
LINE
 8
Layer0
10
25.861182167337233
20
20.987760419956132
30
2.3796287162980434e-10
11
26.019273098432915
21
20.820322938069843
31
2.379685115627694e-10
  0
LINE
 8
Layer0
10
23.18855096993494
20
17.522863414592855
30
2.3833510720550064e-10
11
22.999102495020693
21
17.653773032985782
31
2.3833510720550064e-10
  0
LINE
 8
Layer0
10
25.497006817314197
20
21.268665278106276
30
2.3796287162980434e-10
11
25.68645529222844
21
21.13775565971339
31
2.3796287162980434e-10
  0
LINE
 8
Layer0
10
25.082386168425842
20
21.46771537836291
30
2.379685115627694e-10
11
25.294912379730267
21
21.3790550019612
31
2.3796287162980434e-10
  0
LINE
 8
Layer0
10
130.44277889362456
20
126.30102023467536
30
2.444882740704202e-10
11
130.63590644866804
21
126.17560173397447
31
2.444882740704202e-10
  0
LINE
 8
Layer0
10
22.250454557775296
20
123.71592695872472
30
2.4409911869582855e-10
11
22.19085417201023
21
123.93835862655052
31
2.4412167842768896e-10
  0
LINE
 8
Layer0
10
26.248034781950395
20
123.2957643463496
30
2.438622415112945e-10
11
26.122616281249496
21
123.10263679130615
31
2.4385660157832945e-10
  0
LINE
 8
Layer0
10
25.814866227614093
20
126.03068296239987
30
2.4408783882989835e-10
11
25.97769750967488
21
125.86785168033907
31
2.44065279098038e-10
  0
LINE
 8
Layer0
10
22.824375619911905
20
17.803768272743042
30
2.3833510720550064e-10
11
22.66628468881622
21
17.97120575462929
31
2.3832946727253557e-10
  0
LINE
 8
Layer0
10
26.158996008191732
20
20.63727769414465
30
2.3797415149573454e-10
11
26.278820063175527
21
20.440630170177624
31
2.379797914286996e-10
  0
LINE
 8
Layer0
10
22.870691559635134
20
122.76084573029934
30
2.4399759990245684e-10
11
22.707860277574348
21
122.92367701236012
31
2.440201596343172e-10
  0
LINE
 8
Layer0
10
22.19085417201023
20
123.93835862655052
30
2.4412167842768896e-10
11
22.154830723814438
21
124.16580172716077
31
2.4413859822658424e-10
  0
LINE
 8
Layer0
10
26.019273098432915
20
20.820322938069843
30
2.379685115627694e-10
11
26.158996008191732
21
20.63727769414465
31
2.3797415149573454e-10
  0
LINE
 8
Layer0
10
25.97769750967488
20
125.86785168033907
30
2.44065279098038e-10
11
26.122616281249496
21
125.68889190139305
31
2.440427193661776e-10
  0
LINE
 8
Layer0
10
23.88537317382556
20
122.24383962473523
30
2.439073609750153e-10
11
23.662941505999708
21
122.30344001050025
31
2.439242807739106e-10
  0
LINE
 8
Layer0
10
24.738235720829522
20
17.231598479828016
30
2.382787078758497e-10
11
24.509852434668993
21
17.20211751244883
31
2.3829562767474496e-10
  0
LINE
 8
Layer0
10
32.644745936842064
20
120.74079327748089
30
2.4303317136542543e-10
11
33.34928948029881
21
120.2001780023802
31
2.420518230294988e-10
  0
LINE
 8
Layer0
10
22.91822030190429
20
21.072258551157912
30
2.3810386995393173e-10
11
23.101265545829484
21
21.21198146091677
31
2.3808131022207133e-10
  0
LINE
 8
Layer0
10
22.999102495020693
20
17.653773032985782
30
2.3833510720550064e-10
11
22.824375619911905
21
17.803768272743042
31
2.3833510720550064e-10
  0
LINE
 8
Layer0
10
22.30812534128614
20
18.558993815106653
30
2.3830690754067516e-10
11
22.23180504859668
21
18.77625694073758
31
2.3829562767474496e-10
  0
LINE
 8
Layer0
10
22.526561779057406
20
18.154250998554527
30
2.3832382733957044e-10
11
22.40673772407361
21
18.350898522521554
31
2.3831818740660536e-10
  0
LINE
 8
Layer0
10
22.20486821429987
20
19.91474211777093
30
2.3821666861323365e-10
11
22.270827861611266
21
20.13537162115088
31
2.3819974881433837e-10
  0
LINE
 8
Layer0
10
23.603171618823296
20
17.323813314336263
30
2.3832946727253557e-10
11
23.39064540751887
21
17.41247369073802
31
2.3833510720550064e-10
  0
LINE
 8
Layer0
10
22.142778893624616
20
124.3957643463496
30
2.441555180254795e-10
11
22.154830723814438
21
124.62572696553843
31
2.441724378243748e-10
  0
LINE
 8
Layer0
10
26.377432445963
20
20.23253487759252
30
2.379910712946298e-10
11
26.453752738652458
21
20.015271751961595
31
2.3800235116056e-10
  0
LINE
 8
Layer0
10
26.453752738652458
20
20.015271751961595
30
2.3800235116056e-10
11
26.506944760146116
21
19.791221173554565
31
2.3801363102649017e-10
  0
LINE
 8
Layer0
10
130.63590644866804
20
126.17560173397447
30
2.444882740704202e-10
11
130.8148662276141
21
126.03068296239987
31
2.444882740704202e-10
  0
LINE
 8
Layer0
10
22.707860277574348
20
122.92367701236012
30
2.440201596343172e-10
11
22.56294150599973
21
123.10263679130615
31
2.440427193661776e-10
  0
LINE
 8
Layer0
10
22.359488238012982
20
20.347897832455306
30
2.3817718908247797e-10
11
22.46987796186786
21
20.549992270039194
31
2.381602692835827e-10
  0
LINE
 8
Layer0
10
24.17570535258014
20
21.58941118025039
30
2.3800235116056e-10
11
24.342778893624615
21
21.593364180589138
31
2.4101971529688627e-10
  0
LINE
 8
Layer0
10
22.17861302710302
20
19.000307519144613
30
2.382843478088148e-10
11
22.149132059723787
21
19.228690805305185
31
2.382674280099195e-10
  0
LINE
 8
Layer0
10
25.635906448668063
20
122.61592695872471
30
2.4384532171239924e-10
11
25.442778893624634
21
122.49050845802384
31
2.4384532171239924e-10
  0
LINE
 8
Layer0
10
23.39064540751887
20
17.41247369073802
30
2.3833510720550064e-10
11
23.18855096993494
21
17.522863414592855
31
2.3833510720550064e-10
  0
LINE
 8
Layer0
10
23.723271488012536
20
21.5067381913775
30
2.380305508253855e-10
11
23.947322066419616
21
21.55993021287116
31
2.380192709594553e-10
  0
LINE
 8
Layer0
10
26.480689572949267
20
18.876786574928243
30
2.3808131022207133e-10
11
26.414729925637868
21
18.65615707154834
31
2.380982300209666e-10
  0
LINE
 8
Layer0
10
26.54277889362461
20
124.3957643463496
30
2.439299207068757e-10
11
26.53072706343479
21
124.16580172716077
31
2.439130009079804e-10
  0
LINE
 8
Layer0
10
22.332978886810903
20
125.29058496111637
30
2.4421191735513047e-10
11
22.437523005298832
21
125.4957643463496
31
2.4422319722106067e-10
  0
LINE
 8
Layer0
10
23.101265545829484
20
21.21198146091677
30
2.3808131022207133e-10
11
23.29791306979651
21
21.331805515900523
31
2.3806439042317605e-10
  0
LINE
 8
Layer0
10
23.88537317382556
20
126.54768906796396
30
2.4422319722106067e-10
11
24.112816274435787
21
126.58371251615979
31
2.4421191735513047e-10
  0
LINE
 8
Layer0
10
26.43510322947393
20
123.71592695872472
30
2.438848012431549e-10
11
26.352578900438324
21
123.50094373158282
31
2.438735213772247e-10
  0
LINE
 8
Layer0
10
25.294912379730267
20
21.3790550019612
30
2.3796287162980434e-10
11
25.497006817314197
21
21.268665278106276
31
2.3796287162980434e-10
  0
LINE
 8
Layer0
10
25.767337485344846
20
17.719270141541216
30
2.3819410888137325e-10
11
25.584292241419654
21
17.579547231782403
31
2.3821666861323365e-10
  0
LINE
 8
Layer0
10
23.947322066419616
20
21.55993021287116
30
2.380192709594553e-10
11
24.17570535258014
21
21.58941118025039
31
2.3800235116056e-10
  0
LINE
 8
Layer0
10
129.3427788936246
20
122.1957643463496
30
2.4447699420449e-10
11
129.11281627443577
21
122.2078161765394
31
2.4447699420449e-10
  0
LINE
 8
Layer0
10
22.437523005298832
20
123.2957643463496
30
2.4405963916507287e-10
11
22.332978886810903
21
123.50094373158282
31
2.440821988969333e-10
  0
LINE
 8
Layer0
10
131.24803478195034
20
123.2957643463496
30
2.4449391400338526e-10
11
131.1226162812495
21
123.10263679130615
31
2.444882740704202e-10
  0
LINE
 8
Layer0
10
26.21567982538128
20
18.241536422659937
30
2.381377095517223e-10
11
26.08477020698835
21
18.052087947745694
31
2.381602692835827e-10
  0
LINE
 8
Layer0
10
25.814866227614093
20
122.76084573029934
30
2.438509616453643e-10
11
25.635906448668063
21
122.61592695872471
31
2.4384532171239924e-10
  0
LINE
 8
Layer0
10
22.66628468881622
20
17.97120575462929
30
2.3832946727253557e-10
11
22.526561779057406
21
18.154250998554527
31
2.3832382733957044e-10
  0
LINE
 8
Layer0
10
26.494703615238997
20
124.85317006614868
30
2.4396376030466624e-10
11
26.53072706343479
21
124.62572696553843
31
2.4394684050577096e-10
  0
LINE
 8
Layer0
10
26.352578900438324
20
125.29058496111637
30
2.440032398354219e-10
11
26.43510322947393
21
125.07560173397448
31
2.4398632003652664e-10
  0
LINE
 8
Layer0
10
127.43752300529887
20
125.4957643463496
30
2.444600744055947e-10
11
127.56294150599972
21
125.68889190139305
31
2.444657143385598e-10
  0
LINE
 8
Layer0
10
25.68645529222844
20
21.13775565971339
30
2.3796287162980434e-10
11
25.861182167337233
21
20.987760419956132
31
2.3796287162980434e-10
  0
LINE
 8
Layer0
10
115.15515066078532
20
124.3957643463496
30
2.4094639616834e-10
11
120.33626830695036
21
120.20017800238026
31
2.425481371304272e-10
  0
LINE
 8
Layer0
10
126.1435675840941
20
117.79471588102783
30
2.407771981793871e-10
11
126.02765279391136
21
116.91425563677164
31
2.407771981793871e-10
  0
LINE
 8
Layer0
10
131.49470361523893
20
124.85317006614868
30
2.4449391400338526e-10
11
131.53072706343482
21
124.62572696553843
31
2.4449391400338526e-10
  0
LINE
 8
Layer0
10
125.14719254965516
20
115.38925375967543
30
2.425763367952527e-10
11
129.3427788936246
21
110.20813611351032
31
2.4061364012339936e-10
  0
LINE
 8
Layer0
10
27.657904993337805
20
26.877273055927585
30
2.41183273352874e-10
11
27.541990203155112
21
25.996812811671383
31
2.41183273352874e-10
  0
LINE
 8
Layer0
10
122.74173042830274
20
121.1965530368191
30
2.4076027838049183e-10
11
123.62219067255894
21
121.08063824663638
31
2.4076591831345696e-10
  0
LINE
 8
Layer0
10
126.02765279391136
20
116.91425563677164
30
2.407771981793871e-10
11
125.6878078247559
21
116.09379730313216
31
2.407771981793871e-10
  0
LINE
 8
Layer0
10
28.538365237594007
20
120.20017800238018
30
2.4301625156653015e-10
11
29.242908781050748
21
120.74079327748088
31
2.4301625156653015e-10
  0
LINE
 8
Layer0
10
22.23180504859668
20
18.77625694073758
30
2.3829562767474496e-10
11
22.17861302710302
21
19.000307519144613
31
2.382843478088148e-10
  0
LINE
 8
Layer0
10
126.02765279391136
20
118.67517612528401
30
2.407771981793871e-10
11
126.1435675840941
21
117.79471588102783
31
2.407771981793871e-10
  0
LINE
 8
Layer0
10
38.53040712646394
20
19.395764346349566
30
2.426947753875197e-10
11
115.15515066078528
21
19.395764346349566
31
2.4091255657054943e-10
  0
LINE
 8
Layer0
10
28.538365237594007
20
28.402274933023804
30
2.420236233646733e-10
11
27.99774996249332
21
27.697731389567064
31
2.41183273352874e-10
  0
LINE
 8
Layer0
10
121.86127018404659
20
121.08063824663635
30
2.4076027838049183e-10
11
122.74173042830274
21
121.1965530368191
31
2.4076027838049183e-10
  0
LINE
 8
Layer0
10
24.050116654649923
20
17.21531741650278
30
2.3831818740660536e-10
11
23.8238011222032
21
17.257853667024914
31
2.3832382733957044e-10
  0
LINE
 8
Layer0
10
22.437523005298832
20
125.4957643463496
30
2.4422319722106067e-10
11
22.56294150599973
21
125.68889190139305
31
2.4422883715402575e-10
  0
LINE
 8
Layer0
10
26.352578900438324
20
123.50094373158282
30
2.438735213772247e-10
11
26.248034781950395
21
123.2957643463496
31
2.438622415112945e-10
  0
LINE
 8
Layer0
10
124.44264900619842
20
120.74079327748089
30
2.4077155824642204e-10
11
125.14719254965516
21
120.2001780023802
31
2.4077155824642204e-10
  0
LINE
 8
Layer0
10
31.82428760320263
20
22.710890446062802
30
2.41183273352874e-10
11
32.644745936842114
21
23.050735415218316
31
2.41183273352874e-10
  0
LINE
 8
Layer0
10
26.5232258234714
20
19.10310210737492
30
2.3806439042317605e-10
11
26.480689572949267
21
18.876786574928243
31
2.3808131022207133e-10
  0
LINE
 8
Layer0
10
141.8427788936246
20
239.89576434634958
30
2.445785129978617e-10
11
141.8427788936246
21
235.8957643463496
31
2.4460389269620464e-10
  0
LINE
 8
Layer0
10
120.33626830695036
20
120.20017800238026
30
2.425481371304272e-10
11
121.04081185040715
21
120.74079327748088
31
2.4075463844752676e-10
  0
LINE
 8
Layer0
10
30.94382735894643
20
121.1965530368191
30
2.4302753143246035e-10
11
31.82428760320259
21
121.08063824663638
31
2.4302753143246035e-10
  0
LINE
 8
Layer0
10
25.17954942486748
20
17.361110794011136
30
2.382505082110242e-10
11
24.9622862992366
21
17.284790501321677
31
2.382674280099195e-10
  0
LINE
 8
Layer0
10
26.122616281249496
20
125.68889190139305
30
2.440427193661776e-10
11
26.248034781950395
21
125.4957643463496
31
2.440257995672823e-10
  0
LINE
 8
Layer0
10
27.65790499333785
20
116.9142556367716
30
2.430106116335651e-10
11
27.541990203155112
21
117.79471588102778
31
2.430106116335651e-10
  0
LINE
 8
Layer0
10
22.40673772407361
20
18.350898522521554
30
2.3831818740660536e-10
11
22.30812534128614
21
18.558993815106653
31
2.3830690754067516e-10
  0
LINE
 8
Layer0
10
125.68780782475594
20
24.295894233775748
30
2.4158370859339585e-10
11
125.14719254965526
21
23.591350690319004
31
2.415780686604307e-10
  0
LINE
 8
Layer0
10
121.04081185040715
20
23.050735415218316
30
2.4156114886153545e-10
11
120.3362683069504
21
23.59135069031896
31
2.425481371304272e-10
  0
LINE
 8
Layer0
10
24.9622862992366
20
17.284790501321677
30
2.382674280099195e-10
11
24.738235720829522
21
17.231598479828016
31
2.382787078758497e-10
  0
LINE
 8
Layer0
10
24.405919131418816
20
21.594858093867252
30
2.379910712946298e-10
11
24.635441132599215
21
21.576211276196396
31
2.379797914286996e-10
  0
LINE
 8
Layer0
10
22.750782820018
20
20.914167620062276
30
2.38120789752827e-10
11
22.91822030190429
21
21.072258551157912
31
2.3810386995393173e-10
  0
LINE
 8
Layer0
10
26.278820063175527
20
20.440630170177624
30
2.379797914286996e-10
11
26.377432445963
21
20.23253487759252
31
2.379910712946298e-10
  0
LINE
 8
Layer0
10
29.242908781050748
20
120.74079327748088
30
2.4301625156653015e-10
11
30.063367114690227
21
121.08063824663635
31
2.430218914994953e-10
  0
LINE
 8
Layer0
10
25.387644717452627
20
17.459723176798654
30
2.3823358841212893e-10
11
25.17954942486748
21
17.361110794011136
31
2.382505082110242e-10
  0
LINE
 8
Layer0
10
125.68780782475585
20
119.49563445892346
30
2.407771981793871e-10
11
126.02765279391136
21
118.67517612528401
31
2.407771981793871e-10
  0
LINE
 8
Layer0
10
24.112816274435787
20
122.2078161765394
30
2.4389608110908513e-10
11
23.88537317382556
21
122.24383962473523
31
2.439073609750153e-10
  0
LINE
 8
Layer0
10
15.842778893624606
20
254.89576434634955
30
2.4457569303137916e-10
11
13.84277889362461
21
254.89576434634955
31
2.4457569303137916e-10
  0
LINE
 8
Layer0
10
27.541990203155112
20
117.79471588102778
30
2.430106116335651e-10
11
27.65790499333785
21
118.67517612528395
31
2.430106116335651e-10
  0
LINE
 8
Layer0
10
27.541990203155112
20
25.996812811671383
30
2.41183273352874e-10
11
27.65790499333785
21
25.11635256741518
31
2.41183273352874e-10
  0
LINE
 8
Layer0
10
26.08477020698835
20
18.052087947745694
30
2.381602692835827e-10
11
25.934774967231135
21
17.877361072636944
31
2.3817718908247797e-10
  0
LINE
 8
Layer0
10
22.16233196377774
20
19.688426585324212
30
2.3823358841212893e-10
11
22.20486821429987
21
19.91474211777093
31
2.3821666861323365e-10
  0
LINE
 8
Layer0
10
24.342778893624615
20
21.593364180589138
30
2.4101971529688627e-10
11
24.405919131418816
21
21.594858093867252
31
2.379910712946298e-10
  0
LINE
 8
Layer0
10
26.326069549236156
20
18.443630860243868
30
2.38120789752827e-10
11
26.21567982538128
21
18.241536422659937
31
2.381377095517223e-10
  0
LINE
 8
Layer0
10
27.997749962493366
20
116.09379730313215
30
2.430106116335651e-10
11
27.65790499333785
21
116.9142556367716
31
2.430106116335651e-10
  0
LINE
 8
Layer0
10
27.65790499333785
20
118.67517612528395
30
2.430106116335651e-10
11
27.997749962493366
21
119.49563445892343
31
2.430106116335651e-10
  0
LINE
 8
Layer0
10
26.414729925637868
20
18.65615707154834
30
2.380982300209666e-10
11
26.326069549236156
21
18.443630860243868
31
2.38120789752827e-10
  0
LINE
 8
Layer0
10
26.53072706343479
20
124.62572696553843
30
2.4394684050577096e-10
11
26.54277889362461
21
124.3957643463496
31
2.439299207068757e-10
  0
LINE
 8
Layer0
10
124.44264900619851
20
23.050735415218316
30
2.415780686604307e-10
11
123.62219067255903
21
22.710890446062802
31
2.4157242872746565e-10
  0
LINE
 8
Layer0
10
24.861756665045935
20
21.533675025674263
30
2.3797415149573454e-10
11
25.082386168425842
21
21.46771537836291
31
2.379685115627694e-10
  0
LINE
 8
Layer0
10
125.14719254965516
20
120.2001780023802
30
2.4077155824642204e-10
11
125.68780782475585
21
119.49563445892346
31
2.407771981793871e-10
  0
LINE
 8
Layer0
10
22.143685146106883
20
19.458904584143813
30
2.382505082110242e-10
11
22.16233196377774
21
19.688426585324212
31
2.3823358841212893e-10
  0
LINE
 8
Layer0
10
32.644745936842114
20
23.050735415218316
30
2.41183273352874e-10
11
33.34928948029885
21
23.59135069031896
31
2.420518230294988e-10
  0
LINE
 8
Layer0
10
25.584292241419654
20
17.579547231782403
30
2.3821666861323365e-10
11
25.387644717452627
21
17.459723176798654
31
2.3823358841212893e-10
  0
LINE
 8
Layer0
10
13.84277889362461
20
231.8957643463496
30
2.4460389269620464e-10
11
13.84277889362461
21
240.89576434634958
31
2.445785129978617e-10
  0
LINE
 8
Layer0
10
23.8238011222032
20
17.257853667024914
30
2.3832382733957044e-10
11
23.603171618823296
21
17.323813314336263
31
2.3832946727253557e-10
  0
LINE
 8
Layer0
10
26.506944760146116
20
19.791221173554565
30
2.3801363102649017e-10
11
26.536425727525348
21
19.56283788739399
31
2.380305508253855e-10
  0
LINE
 8
Layer0
10
31.82428760320259
20
121.08063824663638
30
2.4302753143246035e-10
11
32.644745936842064
21
120.74079327748089
31
2.4303317136542543e-10
  0
LINE
 8
Layer0
10
22.600787580260786
20
20.739440744953484
30
2.381377095517223e-10
11
22.750782820018
21
20.914167620062276
31
2.38120789752827e-10
  0
LINE
 8
Layer0
10
26.54037872786414
20
19.395764346349566
30
2.4098587569909567e-10
11
26.541872641142255
21
19.332624108555365
31
2.380474706242808e-10
  0
LINE
 8
Layer0
10
123.62219067255894
20
121.08063824663638
30
2.4076591831345696e-10
11
124.44264900619842
21
120.74079327748089
31
2.4077155824642204e-10
  0
LINE
 8
Layer0
10
30.94382735894643
20
22.594975655880067
30
2.41183273352874e-10
11
31.82428760320263
21
22.710890446062802
31
2.41183273352874e-10
  0
LINE
 8
Layer0
10
13.84277889362461
20
261.8957643463496
30
2.445982527632395e-10
11
37.34277889362459
21
261.8957643463496
31
2.445982527632395e-10
  0
LINE
 8
Layer0
10
121.86127018404663
20
22.710890446062802
30
2.415667887945005e-10
11
121.04081185040715
21
23.050735415218316
31
2.4156114886153545e-10
  0
LINE
 8
Layer0
10
30.063367114690227
20
121.08063824663635
30
2.430218914994953e-10
11
30.94382735894643
21
121.1965530368191
31
2.4302753143246035e-10
  0
LINE
 8
Layer0
10
57.3427788936246
20
195.89576434634964
30
2.4469413162364615e-10
11
97.34277889362461
21
195.89576434634964
31
2.4486896954556415e-10
  0
LINE
 8
Layer0
10
138.8427788936246
20
188.89576434634958
30
2.4515942609326655e-10
11
138.8427788936246
21
197.8957643463496
31
2.453793834789053e-10
  0
LINE
 8
Layer0
10
57.3427788936246
20
197.8957643463496
30
2.447025915230938e-10
11
57.3427788936246
21
195.89576434634964
31
2.4469413162364615e-10
  0
LINE
 8
Layer0
10
139.8427788936246
20
235.8957643463496
30
2.4460389269620464e-10
11
139.8427788936246
21
239.89576434634958
31
2.445785129978617e-10
  0
LINE
 8
Layer0
10
13.84277889362461
20
240.89576434634958
30
2.445785129978617e-10
11
15.842778893624606
21
240.89576434634958
31
2.445785129978617e-10
  0
LINE
 8
Layer0
10
23.29791306979651
20
21.331805515900523
30
2.3806439042317605e-10
11
23.506008362381657
21
21.430417898688038
31
2.380474706242808e-10
  0
LINE
 8
Layer0
10
13.84277889362461
20
188.8957643463496
30
2.4460389269620464e-10
11
13.84277889362461
21
174.89576434634964
31
2.444967339698678e-10
  0
LINE
 8
Layer0
10
57.3427788936246
20
197.8957643463496
30
2.447025915230938e-10
11
15.842778893624606
21
197.89576434634964
31
2.44832309981291e-10
  0
LINE
 8
Layer0
10
38.53040712646394
20
19.395764346349566
30
2.426947753875197e-10
11
33.34928948029885
21
23.59135069031896
31
2.420518230294988e-10
  0
LINE
 8
Layer0
10
181.84277889362463
20
240.89576434634958
30
2.445785129978617e-10
11
181.84277889362463
21
254.89576434634955
31
2.4457569303137916e-10
  0
LINE
 8
Layer0
10
183.84277889362463
20
254.89576434634955
30
2.4457569303137916e-10
11
183.84277889362463
21
261.8957643463496
31
2.445982527632395e-10
  0
LINE
 8
Layer0
10
26.541872641142255
20
19.332624108555365
30
2.380474706242808e-10
11
26.5232258234714
21
19.10310210737492
31
2.3806439042317605e-10
  0
LINE
 8
Layer0
10
115.15515066078532
20
124.3957643463496
30
2.4094639616834e-10
11
38.53040712646389
21
124.3957643463496
31
2.426947753875197e-10
  0
LINE
 8
Layer0
10
138.8427788936246
20
167.89576434634964
30
2.4524684505422553e-10
11
97.34277889362461
21
167.89576434634964
31
2.450607272663774e-10
  0
LINE
 8
Layer0
10
138.8427788936246
20
188.89576434634958
30
2.4515942609326655e-10
11
140.8427788936246
21
188.89576434634958
31
2.451678859927142e-10
  0
LINE
 8
Layer0
10
37.34277889362459
20
259.8957643463496
30
2.445982527632395e-10
11
78.34277889362461
21
259.8957643463496
31
2.445982527632395e-10
  0
LINE
 8
Layer0
10
120.3362683069504
20
23.59135069031896
30
2.425481371304272e-10
11
115.15515066078528
21
19.395764346349566
31
2.4091255657054943e-10
  0
LINE
 8
Layer0
10
26.536425727525348
20
19.56283788739399
30
2.380305508253855e-10
11
26.54037872786414
21
19.395764346349566
31
2.4098587569909567e-10
  0
LINE
 8
Layer0
10
78.34277889362461
20
261.8957643463496
30
2.445982527632395e-10
11
119.34277889362463
21
261.8957643463496
31
2.445982527632395e-10
  0
LINE
 8
Layer0
10
140.8427788936246
20
174.8957643463496
30
2.450607272663774e-10
11
138.8427788936246
21
174.8957643463496
31
2.4505226736692976e-10
  0
LINE
 8
Layer0
10
119.34277889362463
20
259.8957643463496
30
2.445982527632395e-10
11
160.34277889362454
21
259.8957643463496
31
2.445982527632395e-10
  0
LINE
 8
Layer0
10
24.342778893624615
20
110.20813611351028
30
2.430218914994953e-10
11
28.538365237593965
21
115.38925375967536
31
2.420236233646733e-10
  0
LINE
 8
Layer0
10
27.99774996249332
20
24.2958942337757
30
2.41183273352874e-10
11
28.538365237594007
21
23.59135069031896
31
2.41183273352874e-10
  0
LINE
 8
Layer0
10
28.538365237594007
20
23.59135069031896
30
2.41183273352874e-10
11
29.242908781050794
21
23.050735415218316
31
2.41183273352874e-10
  0
LINE
 8
Layer0
10
126.14356758409419
20
25.996812811671425
30
2.4158370859339585e-10
11
126.02765279391146
21
25.116352567415227
31
2.4158370859339585e-10
  0
LINE
 8
Layer0
10
78.34277889362461
20
259.8957643463496
30
2.445982527632395e-10
11
78.34277889362461
21
261.8957643463496
31
2.445982527632395e-10
  0
LINE
 8
Layer0
10
27.65790499333785
20
25.11635256741518
30
2.41183273352874e-10
11
27.99774996249332
21
24.2958942337757
31
2.41183273352874e-10
  0
LINE
 8
Layer0
10
138.8427788936246
20
167.89576434634964
30
2.4524684505422553e-10
11
138.8427788936246
21
174.8957643463496
31
2.4505226736692976e-10
  0
LINE
 8
Layer0
10
183.84277889362463
20
231.8957643463496
30
2.4460389269620464e-10
11
183.84277889362463
21
240.89576434634958
31
2.445785129978617e-10
  0
LINE
 8
Layer0
10
121.04081185040715
20
120.74079327748088
30
2.4075463844752676e-10
11
121.86127018404659
21
121.08063824663635
31
2.4076027838049183e-10
  0
LINE
 8
Layer0
10
97.34277889362461
20
169.89576434634964
30
2.450720071323076e-10
11
97.34277889362461
21
167.89576434634964
31
2.450607272663774e-10
  0
LINE
 8
Layer0
10
160.34277889362454
20
259.8957643463496
30
2.445982527632395e-10
11
160.34277889362454
21
261.8957643463496
31
2.445982527632395e-10
  0
LINE
 8
Layer0
10
97.34277889362461
20
195.89576434634964
30
2.4486896954556415e-10
11
97.34277889362461
21
197.8957643463496
31
2.448802494114943e-10
  0
LINE
 8
Layer0
10
125.6878078247559
20
27.697731389567064
30
2.4158370859339585e-10
11
126.02765279391146
21
26.877273055927585
31
2.4158370859339585e-10
  0
LINE
 8
Layer0
10
129.3427788936246
20
33.58339257918889
30
2.4059108039153896e-10
11
125.14719254965526
21
28.402274933023804
31
2.425763367952527e-10
  0
LINE
 8
Layer0
10
140.8427788936246
20
188.89576434634958
30
2.451678859927142e-10
11
140.8427788936246
21
174.8957643463496
31
2.450607272663774e-10
  0
LINE
 8
Layer0
10
27.997749962493366
20
119.49563445892343
30
2.430106116335651e-10
11
28.538365237594007
21
120.20017800238018
31
2.4301625156653015e-10
  0
LINE
 8
Layer0
10
183.84277889362463
20
240.89576434634958
30
2.445785129978617e-10
11
181.84277889362463
21
240.89576434634958
31
2.445785129978617e-10
  0
LINE
 8
Layer0
10
125.14719254965526
20
23.591350690319004
30
2.415780686604307e-10
11
124.44264900619851
21
23.050735415218316
31
2.415780686604307e-10
  0
LINE
 8
Layer0
10
181.84277889362463
20
254.89576434634955
30
2.4457569303137916e-10
11
183.84277889362463
21
254.89576434634955
31
2.4457569303137916e-10
  0
LINE
 8
Layer0
10
37.34277889362459
20
261.8957643463496
30
2.445982527632395e-10
11
37.34277889362459
21
259.8957643463496
31
2.445982527632395e-10
  0
LINE
 8
Layer0
10
13.84277889362461
20
174.89576434634964
30
2.444967339698678e-10
11
15.842778893624606
21
174.89576434634964
31
2.4450519386931546e-10
  0
LINE
 8
Layer0
10
125.6878078247559
20
116.09379730313216
30
2.407771981793871e-10
11
125.14719254965516
21
115.38925375967543
31
2.425763367952527e-10
  0
LINE
 8
Layer0
10
15.842778893624606
20
188.8957643463496
30
2.4461235259565225e-10
11
13.84277889362461
21
188.8957643463496
31
2.4460389269620464e-10
  0
LINE
 8
Layer0
10
30.063367114690273
20
22.710890446062802
30
2.41183273352874e-10
11
30.94382735894643
21
22.594975655880067
31
2.41183273352874e-10
  0
LINE
 8
Layer0
10
57.3427788936246
20
167.89576434634964
30
2.448830693779769e-10
11
15.842778893624606
21
167.89576434634967
31
2.446997715566113e-10
  0
LINE
 8
Layer0
10
28.538365237593965
20
115.38925375967536
30
2.420236233646733e-10
11
27.997749962493366
21
116.09379730313215
31
2.430106116335651e-10
  0
LINE
 8
Layer0
10
24.635441132599215
20
21.576211276196396
30
2.379797914286996e-10
11
24.861756665045935
21
21.533675025674263
31
2.3797415149573454e-10
  0
LINE
 8
Layer0
10
119.34277889362463
20
261.8957643463496
30
2.445982527632395e-10
11
119.34277889362463
21
259.8957643463496
31
2.445982527632395e-10
  0
LINE
 8
Layer0
10
13.84277889362461
20
254.89576434634955
30
2.4457569303137916e-10
11
13.84277889362461
21
261.8957643463496
31
2.445982527632395e-10
  0
LINE
 8
Layer0
10
141.8427788936246
20
235.8957643463496
30
2.4460389269620464e-10
11
139.8427788936246
21
235.8957643463496
31
2.4460389269620464e-10
  0
LINE
 8
Layer0
10
57.3427788936246
20
169.89576434634964
30
2.448915292774245e-10
11
97.34277889362461
21
169.89576434634964
31
2.450720071323076e-10
  0
LINE
 8
Layer0
10
29.242908781050794
20
23.050735415218316
30
2.41183273352874e-10
11
30.063367114690273
21
22.710890446062802
31
2.41183273352874e-10
  0
LINE
 8
Layer0
10
123.62219067255903
20
22.710890446062802
30
2.4157242872746565e-10
11
122.74173042830283
21
22.594975655880067
31
2.415667887945005e-10
  0
LINE
 8
Layer0
10
139.8427788936246
20
239.89576434634958
30
2.445785129978617e-10
11
141.8427788936246
21
239.89576434634958
31
2.445785129978617e-10
  0
LINE
 8
Layer0
10
15.842778893624606
20
240.89576434634958
30
2.445785129978617e-10
11
15.842778893624606
21
254.89576434634955
31
2.4457569303137916e-10
  0
LINE
 8
Layer0
10
122.74173042830283
20
22.594975655880067
30
2.415667887945005e-10
11
121.86127018404663
21
22.710890446062802
31
2.415667887945005e-10
  0
LINE
 8
Layer0
10
27.99774996249332
20
27.697731389567064
30
2.41183273352874e-10
11
27.657904993337805
21
26.877273055927585
31
2.41183273352874e-10
  0
LINE
 8
Layer0
10
138.8427788936246
20
197.8957643463496
30
2.453793834789053e-10
11
97.34277889362461
21
197.8957643463496
31
2.448802494114943e-10
  0
LINE
 8
Layer0
10
129.3427788936246
20
33.58339257918889
30
2.4059108039153896e-10
11
129.3427788936246
21
110.20813611351032
31
2.4061364012339936e-10
  0
LINE
 8
Layer0
10
15.842778893624606
20
197.89576434634964
30
2.44832309981291e-10
11
15.842778893624606
21
188.8957643463496
31
2.4461235259565225e-10
  0
LINE
 8
Layer0
10
160.34277889362454
20
261.8957643463496
30
2.445982527632395e-10
11
183.84277889362463
21
261.8957643463496
31
2.445982527632395e-10
  0
LINE
 8
Layer0
10
57.3427788936246
20
169.89576434634964
30
2.448915292774245e-10
11
57.3427788936246
21
167.89576434634964
31
2.448830693779769e-10
  0
LINE
 8
Layer0
10
24.342778893624615
20
110.20813611351028
30
2.430218914994953e-10
11
24.342778893624615
21
33.58339257918889
31
2.430218914994953e-10
  0
LINE
 8
Layer0
10
126.02765279391146
20
25.116352567415227
30
2.4158370859339585e-10
11
125.68780782475594
21
24.295894233775748
31
2.4158370859339585e-10
  0
LINE
 8
Layer0
10
15.842778893624606
20
174.89576434634964
30
2.4450519386931546e-10
11
15.842778893624606
21
167.89576434634967
31
2.446997715566113e-10
  0
LINE
 8
Layer0
10
125.14719254965526
20
28.402274933023804
30
2.425763367952527e-10
11
125.6878078247559
21
27.697731389567064
31
2.4158370859339585e-10
  0
LINE
 8
Layer0
10
126.02765279391146
20
26.877273055927585
30
2.4158370859339585e-10
11
126.14356758409419
21
25.996812811671425
31
2.4158370859339585e-10
 0
ENDSEC
 0
EOF
